<svg width="801" height="2063" viewBox="0 0 801 2063" fill="none" xmlns="http://www.w3.org/2000/svg">
<path d="M320.383 2005.31L320.383 2062.98L400.377 2062.98L400.377 2005.31L320.383 2005.31Z" fill="white"/>
<path d="M400.377 2005.31L320.383 1964.97L320.383 1907.29L400.377 1947.63L400.377 2005.31Z" fill="white"/>
<path d="M400.377 1097.56L320.383 840.735L320.383 783.027L400.377 1039.85L400.377 1097.56Z" fill="white"/>
<path d="M400.377 1907.27L320.383 1826.22L320.383 1768.54L400.377 1849.6L400.377 1907.27Z" fill="white"/>
<path d="M400.377 783.023L320.383 476.341L320.383 418.663L400.377 725.346L400.377 783.023Z" fill="white"/>
<path d="M400.377 1768.55L320.383 1645.94L320.383 1588.26L400.377 1710.87L400.377 1768.55Z" fill="white"/>
<path d="M400.377 418.652L320.383 58.2033L320.383 0.495372L400.377 360.944L400.377 418.652Z" fill="white"/>
<path d="M400.377 1588.25L320.383 1422.85L320.383 1365.18L400.377 1530.57L400.377 1588.25Z" fill="white"/>
<path d="M400.377 1365.2L320.383 1155.24L320.383 1097.57L400.377 1307.49L400.377 1365.2Z" fill="white"/>
<path d="M240.383 2005.31L240.383 2062.99L320.377 2062.99L320.377 2005.31L240.383 2005.31Z" fill="white"/>
<path d="M320.384 2005.31L240.383 1964.97L240.383 1907.29L320.384 1947.63L320.384 2005.31Z" fill="white"/>
<path d="M320.38 1097.56L240.379 840.731L240.379 783.023L320.38 1039.85L320.38 1097.56Z" fill="white"/>
<path d="M320.38 1907.27L240.379 1826.21L240.379 1768.54L320.38 1849.59L320.38 1907.27Z" fill="white"/>
<path d="M320.384 783.027L240.383 476.345L240.383 418.667L320.384 725.35L320.384 783.027Z" fill="white"/>
<path d="M320.384 1768.56L240.383 1645.95L240.383 1588.27L320.384 1710.88L320.384 1768.56Z" fill="white"/>
<path d="M320.384 418.655L240.383 58.2363L240.383 0.528319L320.384 360.977L320.384 418.655Z" fill="white"/>
<path d="M320.384 1588.25L240.383 1422.86L240.383 1365.18L320.384 1530.57L320.384 1588.25Z" fill="white"/>
<path d="M320.384 1365.21L240.383 1155.26L240.383 1097.58L320.384 1307.5L320.384 1365.21Z" fill="white"/>
<path d="M160.383 2005.31L160.383 2062.98L240.384 2062.98L240.384 2005.31L160.383 2005.31Z" fill="white"/>
<path d="M240.377 2005.32L160.383 1964.98L160.383 1907.3L240.377 1947.65L240.377 2005.32Z" fill="white"/>
<path d="M240.377 1097.56L160.383 840.735L160.383 783.027L240.377 1039.85L240.377 1097.56Z" fill="white"/>
<path d="M240.373 1907.27L160.379 1826.21L160.379 1768.54L240.373 1849.59L240.373 1907.27Z" fill="white"/>
<path d="M240.377 783.027L160.383 476.345L160.383 418.667L240.377 725.35L240.377 783.027Z" fill="white"/>
<path d="M240.377 1768.55L160.383 1645.94L160.383 1588.27L240.377 1710.87L240.377 1768.55Z" fill="white"/>
<path d="M240.377 418.656L160.383 58.2372L160.383 0.529296L240.377 360.978L240.377 418.656Z" fill="white"/>
<path d="M240.377 1588.24L160.383 1422.85L160.383 1365.17L240.377 1530.56L240.377 1588.24Z" fill="white"/>
<path d="M240.381 1365.19L160.387 1155.24L160.387 1097.56L240.381 1307.48L240.381 1365.19Z" fill="white"/>
<path d="M80.3828 2005.31L80.3828 2062.99L160.377 2062.99L160.377 2005.31L80.3828 2005.31Z" fill="white"/>
<path d="M160.384 2005.31L80.3828 1964.97L80.3828 1907.29L160.384 1947.63L160.384 2005.31Z" fill="white"/>
<path d="M160.38 1097.46L80.3789 840.63L80.3789 782.921L160.38 1039.75L160.38 1097.46Z" fill="white"/>
<path d="M160.384 1907.26L80.3828 1826.21L80.3828 1768.5L160.384 1849.58L160.384 1907.26Z" fill="white"/>
<path d="M160.384 782.945L80.3828 476.263L80.3828 418.555L160.384 725.268L160.384 782.945Z" fill="white"/>
<path d="M160.384 1768.53L80.3828 1645.89L80.3828 1588.21L160.384 1710.82L160.384 1768.53Z" fill="white"/>
<path d="M160.384 418.543L80.3828 58.0939L80.3828 0.385997L160.384 360.835L160.384 418.543Z" fill="white"/>
<path d="M160.384 1588.2L80.3828 1422.8L80.3828 1365.13L160.384 1530.52L160.384 1588.2Z" fill="white"/>
<path d="M160.38 1365.14L80.3789 1155.19L80.3789 1097.48L160.38 1307.43L160.38 1365.14Z" fill="white"/>
<path d="M0.378908 2005.3L0.378906 2062.98L80.3801 2062.98L80.3801 2005.3L0.378908 2005.3Z" fill="white"/>
<path d="M80.3689 2005.31L0.375002 1964.97L0.375004 1907.29L80.3689 1947.63L80.3689 2005.31Z" fill="white"/>
<path d="M80.3728 1097.53L0.378915 840.704L0.378917 782.996L80.3728 1039.82L80.3728 1097.53Z" fill="white"/>
<path d="M80.3728 1907.27L0.378909 1826.21L0.378911 1768.5L80.3728 1849.59L80.3728 1907.27Z" fill="white"/>
<path d="M80.3728 783.012L0.378916 476.329L0.378918 418.651L80.3728 725.334L80.3728 783.012Z" fill="white"/>
<path d="M80.3728 1768.53L0.37891 1645.92L0.378912 1588.25L80.3728 1710.85L80.3728 1768.53Z" fill="white"/>
<path d="M80.3728 418.633L0.378918 58.2138L0.37892 0.505858L80.3728 360.955L80.3728 418.633Z" fill="white"/>
<path d="M80.3728 1588.21L0.378912 1422.82L0.378914 1365.15L80.3728 1530.54L80.3728 1588.21Z" fill="white"/>
<path d="M80.3728 1365.18L0.378913 1155.22L0.378915 1097.55L80.3728 1307.47L80.3728 1365.18Z" fill="white"/>
<path d="M480.371 2005.31L480.371 2062.99L400.377 2062.99L400.377 2005.31L480.371 2005.31Z" fill="white"/>
<path d="M400.377 2005.32L480.371 1964.98L480.371 1907.3L400.377 1947.65L400.377 2005.32Z" fill="white"/>
<path d="M400.373 1097.58L480.367 840.755L480.367 783.046L400.373 1039.87L400.373 1097.58Z" fill="white"/>
<path d="M400.373 1907.27L480.367 1826.22L480.367 1768.54L400.373 1849.6L400.373 1907.27Z" fill="white"/>
<path d="M400.381 783.035L480.375 476.353L480.375 418.675L400.381 725.357L400.381 783.035Z" fill="white"/>
<path d="M400.373 1768.56L480.367 1645.96L480.367 1588.28L400.373 1710.88L400.373 1768.56Z" fill="white"/>
<path d="M400.377 418.659L480.371 58.2101L480.371 0.502208L400.377 360.951L400.377 418.659Z" fill="white"/>
<path d="M400.377 1588.25L480.371 1422.86L480.371 1365.18L400.377 1530.58L400.377 1588.25Z" fill="white"/>
<path d="M400.373 1365.2L480.367 1155.25L480.367 1097.57L400.373 1307.5L400.373 1365.2Z" fill="white"/>
<path d="M560.371 2005.31L560.371 2062.99L480.377 2062.99L480.377 2005.31L560.371 2005.31Z" fill="white"/>
<path d="M480.37 2005.32L560.371 1964.97L560.371 1907.3L480.37 1947.64L480.37 2005.32Z" fill="white"/>
<path d="M480.37 1097.57L560.371 840.743L560.371 783.035L480.37 1039.86L480.37 1097.57Z" fill="white"/>
<path d="M480.37 1907.27L560.371 1826.21L560.371 1768.54L480.37 1849.59L480.37 1907.27Z" fill="white"/>
<path d="M480.37 783.023L560.371 476.341L560.371 418.663L480.37 725.346L480.37 783.023Z" fill="white"/>
<path d="M480.37 1768.56L560.371 1645.95L560.371 1588.27L480.37 1710.88L480.37 1768.56Z" fill="white"/>
<path d="M480.366 418.663L560.367 58.2441L560.367 0.536132L480.366 360.985L480.366 418.663Z" fill="white"/>
<path d="M480.366 1588.25L560.367 1422.86L560.367 1365.18L480.366 1530.57L480.366 1588.25Z" fill="white"/>
<path d="M480.37 1365.21L560.371 1155.26L560.371 1097.58L480.37 1307.5L480.37 1365.21Z" fill="white"/>
<path d="M640.371 2005.32L640.371 2063L560.37 2063L560.37 2005.32L640.371 2005.32Z" fill="white"/>
<path d="M560.381 2005.32L640.375 1964.97L640.375 1907.3L560.381 1947.64L560.381 2005.32Z" fill="white"/>
<path d="M560.381 1097.56L640.375 840.731L640.375 783.023L560.381 1039.85L560.381 1097.56Z" fill="white"/>
<path d="M560.381 1907.27L640.375 1826.21L640.375 1768.53L560.381 1849.59L560.381 1907.27Z" fill="white"/>
<path d="M560.381 783.047L640.375 476.364L640.375 418.686L560.381 725.369L560.381 783.047Z" fill="white"/>
<path d="M560.377 1768.55L640.371 1645.95L640.371 1588.27L560.377 1710.88L560.377 1768.55Z" fill="white"/>
<path d="M560.381 418.672L640.375 58.2529L640.375 0.544921L560.381 360.994L560.381 418.672Z" fill="white"/>
<path d="M560.377 1588.25L640.371 1422.86L640.371 1365.18L560.377 1530.57L560.377 1588.25Z" fill="white"/>
<path d="M560.377 1365.21L640.371 1155.26L640.371 1097.58L560.377 1307.5L560.377 1365.21Z" fill="white"/>
<path d="M720.367 2005.3L720.367 2062.98L640.373 2062.98L640.373 2005.3L720.367 2005.3Z" fill="white"/>
<path d="M640.374 2005.32L720.375 1964.97L720.375 1907.3L640.374 1947.64L640.374 2005.32Z" fill="white"/>
<path d="M640.374 1097.46L720.375 840.637L720.375 782.929L640.374 1039.76L640.374 1097.46Z" fill="white"/>
<path d="M640.366 1907.28L720.367 1826.22L720.367 1768.51L640.366 1849.6L640.366 1907.28Z" fill="white"/>
<path d="M640.37 782.941L720.371 476.259L720.371 418.551L640.37 725.264L640.37 782.941Z" fill="white"/>
<path d="M640.366 1768.53L720.367 1645.89L720.367 1588.22L640.366 1710.82L640.366 1768.53Z" fill="white"/>
<path d="M640.366 418.555L720.367 58.1057L720.367 0.397716L640.366 360.847L640.366 418.555Z" fill="white"/>
<path d="M640.366 1588.2L720.367 1422.81L720.367 1365.13L640.366 1530.52L640.366 1588.2Z" fill="white"/>
<path d="M640.37 1365.14L720.371 1155.19L720.371 1097.48L640.37 1307.43L640.37 1365.14Z" fill="white"/>
<path d="M800.371 2005.32L800.371 2063L720.37 2063L720.37 2005.32L800.371 2005.32Z" fill="white"/>
<path d="M720.377 2005.32L800.371 1964.97L800.371 1907.29L720.377 1947.64L720.377 2005.32Z" fill="white"/>
<path d="M720.381 1097.54L800.375 840.715L800.375 783.007L720.381 1039.83L720.381 1097.54Z" fill="white"/>
<path d="M720.377 1907.28L800.371 1826.23L800.371 1768.52L720.377 1849.6L720.377 1907.28Z" fill="white"/>
<path d="M720.377 783.016L800.371 476.333L800.371 418.655L720.377 725.338L720.377 783.016Z" fill="white"/>
<path d="M720.377 1768.53L800.371 1645.92L800.371 1588.24L720.377 1710.85L720.377 1768.53Z" fill="white"/>
<path d="M720.381 418.641L800.375 58.2216L800.375 0.513671L720.381 360.963L720.381 418.641Z" fill="white"/>
<path d="M720.377 1588.22L800.371 1422.83L800.371 1365.15L720.377 1530.54L720.377 1588.22Z" fill="white"/>
<path d="M720.377 1365.17L800.371 1155.22L800.371 1097.54L720.377 1307.46L720.377 1365.17Z" fill="white"/>
</svg>
