<svg xmlns="http://www.w3.org/2000/svg" width="100%" height="100%" viewBox="0 0 100 101" fill="none">
<g clip-path="url(#clip0_1017_23408)">
<mask id="path-1-outside-1_1017_23408" maskUnits="userSpaceOnUse" x="1.85742" y="-1.26764" width="100.036" height="86.8895" fill="black">
<rect fill="white" x="1.85742" y="-1.26764" width="100.036" height="86.8895"/>
<path fill-rule="evenodd" clip-rule="evenodd" d="M64.9022 67.0193C71.3142 62.9558 76.9759 57.4158 81.2268 49.8967L81.4266 49.5615C82.6862 47.447 84.137 45.0116 85.2075 42.751C86.6629 39.7967 87.6969 36.8112 88.59 34.1626L88.6012 34.1294L88.6111 34.0966C89.5794 30.8857 90.6661 27.7151 91.8966 24.4133L91.9348 24.3107L91.9611 24.2107C93.5674 18.1014 92.1911 13.0567 89.2247 9.68458L89.2137 9.67214L89.2023 9.66016C84.7955 5.05287 76.6665 4.42319 68.2579 6.04333C62.4245 6.98679 56.4576 8.49693 50.1414 10.8611C46.1608 12.3156 41.858 14.2335 37.7161 17.0898C30.6638 21.9212 25.2655 28.6059 21.8216 35.0028L21.7728 35.092C20.184 37.9924 18.5725 40.9344 17.3955 43.9354C16.2446 46.7814 15.372 49.6405 14.6149 52.3089L14.609 52.3297L14.6037 52.3503C14.4696 52.8648 14.3317 53.3813 14.1919 53.9046L14.1737 53.9729C13.4691 56.611 12.7181 59.4224 12.4915 62.1056L12.4901 62.1219L12.4891 62.1381C12.238 66.1888 12.668 70.2611 14.7317 73.1595C14.7925 73.2704 14.8574 73.3769 14.9245 73.4789L14.9439 73.5083L14.9656 73.5358C15.1177 73.7278 15.2857 73.9009 15.4686 74.0556C18.4358 77.2648 23.2112 78.839 28.9425 78.5005L28.9848 78.498L29.0281 78.4935C30.9155 78.295 32.8824 77.8407 34.6769 77.4262L34.7359 77.4125C35.247 77.2945 35.744 77.1798 36.2352 77.071L36.2594 77.0654C37.6759 76.7362 39.0952 76.4407 40.5463 76.1387L40.559 76.1361C41.9528 75.846 43.3762 75.5498 44.8065 75.2195L44.8268 75.2149L44.8473 75.2097C51.6595 73.513 58.5751 71.0289 64.9022 67.0193ZM35.2917 75.5948L35.2951 75.594C35.3812 75.5741 35.4673 75.5542 35.5533 75.5344C35.4661 75.5545 35.3789 75.5746 35.2917 75.5948ZM34.2818 66.3406L34.1927 66.4037L34.2818 66.3406ZM37.4042 73.7414C37.3622 73.7445 37.3204 73.7472 37.2786 73.7497L37.2751 73.7499L37.2632 73.7506L37.2598 73.7508M34.1787 71.3417C33.8893 71.2723 33.5916 71.2009 33.2928 71.1341C32.428 70.9404 31.5966 70.7033 30.8007 70.4244C32.1771 69.533 33.4897 68.6028 34.7256 67.7269L34.788 67.6827C36.3301 66.5899 37.7542 65.5822 39.2048 64.6815L39.2401 64.6596L39.2751 64.6368C42.5753 62.4884 45.912 60.5803 49.3969 58.7256C49.7859 58.5322 50.18 58.3382 50.5844 58.1392L50.7672 58.0493C53.8816 56.517 57.6547 54.6606 60.9561 51.8401C64.7091 48.7765 67.4984 44.9915 69.8261 41.8328L69.8788 41.7613C71.4226 39.8415 72.8364 37.9079 74.1906 36.0558L74.2139 36.0238C76.3651 33.0817 78.3721 30.3431 80.7501 27.7432L81.0808 27.3971C82.023 26.4115 83.0196 25.3689 83.9876 24.2819C84.2088 25.2342 84.391 26.2189 84.5479 27.2266L84.5509 27.2461L84.5546 27.2652C84.8783 28.9356 85.0688 30.4085 84.5276 32.0205L84.5184 32.0478L84.5101 32.075C83.1196 36.6152 79.5847 41.6268 75.3938 46.1131C73.8066 47.7246 71.9684 49.2852 70.0623 50.8321C67.2122 53.0472 64.5282 55.4472 61.9687 57.7358L61.9184 57.7808C57.9824 61.3003 54.3288 64.5561 50.2817 67.1656C46.1106 69.7304 41.8268 71.6577 38.2992 71.8733L38.277 71.8749C36.8819 71.9771 35.6311 71.6902 34.1863 71.3435L34.1813 71.3424L34.1787 71.3417ZM38.4858 62.3206L38.5346 62.2895C38.5184 62.2999 38.5021 62.3102 38.4858 62.3206ZM32.8079 44.0775C33.4312 43.2691 34.065 42.4472 34.7089 41.6248C35.2806 40.8599 35.844 40.0473 36.4587 39.1599L36.5835 38.9796C38.2426 36.5832 40.316 33.5883 43.2419 31.1906C46.8989 28.0504 50.9688 25.8021 54.6483 23.9516C58.1986 22.1216 61.6658 20.2085 65.1728 18.2197L65.1912 18.2093L65.2095 18.1991C66.8551 17.2906 68.5427 16.2134 70.3633 15.0497L70.4218 15.0123C71.7902 14.1376 73.2347 13.2142 74.7055 12.3504C70.0839 10.4363 64.0308 10.6483 57.1953 14.2592L57.1281 14.2947L57.0606 14.3267C52.6218 16.4318 48.7273 19.916 44.3628 23.8601L44.3407 23.8801C42.986 25.1043 41.5843 26.3709 40.1571 27.588C38.5959 29.0068 36.9797 30.3585 35.4361 31.6495L35.4045 31.6759C33.1693 33.5453 31.083 35.2932 29.1747 37.1755L29.1624 37.1876C27.5496 38.765 26.0627 40.607 24.683 42.5056L24.6667 42.5278C21.1629 47.2718 18.9648 52.311 19.3156 56.1982L19.3169 56.2133L19.3179 56.2285C19.3928 57.3917 19.5549 58.4979 19.8143 59.5383C21.3618 57.6204 23.0307 55.7534 24.499 54.1108L24.5481 54.0559C25.5807 52.9008 26.501 51.8708 27.2727 50.9537L27.2968 50.9251L27.3215 50.8968C29.2249 48.7218 30.9697 46.4612 32.8039 44.0826L32.8079 44.0775ZM28.8249 65.0974C26.3832 65.8845 24.7043 66.3029 23.7317 65.9185L23.6753 65.8564C23.5101 65.4966 23.5225 64.9297 23.764 64.0949C24.0182 63.2165 24.4797 62.1994 25.0111 61.1412C27.3197 56.8346 30.6559 52.3784 34.7773 48.9955L34.8009 48.9758C36.2736 47.7485 37.8001 46.5683 39.3616 45.4333C40.4393 44.6718 41.631 43.9792 43.0144 43.1791L43.1688 43.0899C45.1505 41.9442 47.5672 40.5471 49.6747 38.6296C52.3146 36.366 54.5615 33.8293 56.6032 31.5244L56.6852 31.4318C57.1837 30.8691 57.6705 30.3195 58.1602 29.7753C60.6843 27.0028 63.5158 24.4472 66.5313 22.2148L66.5643 22.1903L66.5969 22.1652C68.206 20.9229 71.4232 19.1292 74.5778 17.9191C76.1279 17.3244 77.5435 16.9178 78.6552 16.7713C79.6911 16.6348 80.2934 16.7448 80.5971 16.9602C80.879 17.8826 80.3206 19.283 79.3141 21.535C79.2288 21.7259 79.1412 21.9219 79.0544 22.1182C78.3699 23.6318 77.7028 25.0442 76.8229 26.3632L76.8101 26.3826C75.0557 29.0526 72.3692 31.4925 69.304 33.8846L69.2399 33.9347L69.1775 33.9874C66.3078 36.4158 63.1188 38.5392 59.8029 40.68L59.7635 40.7054L59.7244 40.732C56.1459 43.1654 53.0201 45.9274 50.2311 49.2746L50.2072 49.3032L50.184 49.3322C47.7328 52.3948 45.2635 55.2751 42.4338 57.619L42.3766 57.6664L42.3212 57.7158C38.3262 61.2749 33.4796 63.7558 28.9065 65.0725L28.8659 65.0842L28.8249 65.0974Z"/>
</mask>
<path fill-rule="evenodd" clip-rule="evenodd" d="M64.9022 67.0193C71.3142 62.9558 76.9759 57.4158 81.2268 49.8967L81.4266 49.5615C82.6862 47.447 84.137 45.0116 85.2075 42.751C86.6629 39.7967 87.6969 36.8112 88.59 34.1626L88.6012 34.1294L88.6111 34.0966C89.5794 30.8857 90.6661 27.7151 91.8966 24.4133L91.9348 24.3107L91.9611 24.2107C93.5674 18.1014 92.1911 13.0567 89.2247 9.68458L89.2137 9.67214L89.2023 9.66016C84.7955 5.05287 76.6665 4.42319 68.2579 6.04333C62.4245 6.98679 56.4576 8.49693 50.1414 10.8611C46.1608 12.3156 41.858 14.2335 37.7161 17.0898C30.6638 21.9212 25.2655 28.6059 21.8216 35.0028L21.7728 35.092C20.184 37.9924 18.5725 40.9344 17.3955 43.9354C16.2446 46.7814 15.372 49.6405 14.6149 52.3089L14.609 52.3297L14.6037 52.3503C14.4696 52.8648 14.3317 53.3813 14.1919 53.9046L14.1737 53.9729C13.4691 56.611 12.7181 59.4224 12.4915 62.1056L12.4901 62.1219L12.4891 62.1381C12.238 66.1888 12.668 70.2611 14.7317 73.1595C14.7925 73.2704 14.8574 73.3769 14.9245 73.4789L14.9439 73.5083L14.9656 73.5358C15.1177 73.7278 15.2857 73.9009 15.4686 74.0556C18.4358 77.2648 23.2112 78.839 28.9425 78.5005L28.9848 78.498L29.0281 78.4935C30.9155 78.295 32.8824 77.8407 34.6769 77.4262L34.7359 77.4125C35.247 77.2945 35.744 77.1798 36.2352 77.071L36.2594 77.0654C37.6759 76.7362 39.0952 76.4407 40.5463 76.1387L40.559 76.1361C41.9528 75.846 43.3762 75.5498 44.8065 75.2195L44.8268 75.2149L44.8473 75.2097C51.6595 73.513 58.5751 71.0289 64.9022 67.0193ZM35.2917 75.5948L35.2951 75.594C35.3812 75.5741 35.4673 75.5542 35.5533 75.5344C35.4661 75.5545 35.3789 75.5746 35.2917 75.5948ZM34.2818 66.3406L34.1927 66.4037L34.2818 66.3406ZM37.4042 73.7414C37.3622 73.7445 37.3204 73.7472 37.2786 73.7497L37.2751 73.7499L37.2632 73.7506L37.2598 73.7508M34.1787 71.3417C33.8893 71.2723 33.5916 71.2009 33.2928 71.1341C32.428 70.9404 31.5966 70.7033 30.8007 70.4244C32.1771 69.533 33.4897 68.6028 34.7256 67.7269L34.788 67.6827C36.3301 66.5899 37.7542 65.5822 39.2048 64.6815L39.2401 64.6596L39.2751 64.6368C42.5753 62.4884 45.912 60.5803 49.3969 58.7256C49.7859 58.5322 50.18 58.3382 50.5844 58.1392L50.7672 58.0493C53.8816 56.517 57.6547 54.6606 60.9561 51.8401C64.7091 48.7765 67.4984 44.9915 69.8261 41.8328L69.8788 41.7613C71.4226 39.8415 72.8364 37.9079 74.1906 36.0558L74.2139 36.0238C76.3651 33.0817 78.3721 30.3431 80.7501 27.7432L81.0808 27.3971C82.023 26.4115 83.0196 25.3689 83.9876 24.2819C84.2088 25.2342 84.391 26.2189 84.5479 27.2266L84.5509 27.2461L84.5546 27.2652C84.8783 28.9356 85.0688 30.4085 84.5276 32.0205L84.5184 32.0478L84.5101 32.075C83.1196 36.6152 79.5847 41.6268 75.3938 46.1131C73.8066 47.7246 71.9684 49.2852 70.0623 50.8321C67.2122 53.0472 64.5282 55.4472 61.9687 57.7358L61.9184 57.7808C57.9824 61.3003 54.3288 64.5561 50.2817 67.1656C46.1106 69.7304 41.8268 71.6577 38.2992 71.8733L38.277 71.8749C36.8819 71.9771 35.6311 71.6902 34.1863 71.3435L34.1813 71.3424L34.1787 71.3417ZM38.4858 62.3206L38.5346 62.2895C38.5184 62.2999 38.5021 62.3102 38.4858 62.3206ZM32.8079 44.0775C33.4312 43.2691 34.065 42.4472 34.7089 41.6248C35.2806 40.8599 35.844 40.0473 36.4587 39.1599L36.5835 38.9796C38.2426 36.5832 40.316 33.5883 43.2419 31.1906C46.8989 28.0504 50.9688 25.8021 54.6483 23.9516C58.1986 22.1216 61.6658 20.2085 65.1728 18.2197L65.1912 18.2093L65.2095 18.1991C66.8551 17.2906 68.5427 16.2134 70.3633 15.0497L70.4218 15.0123C71.7902 14.1376 73.2347 13.2142 74.7055 12.3504C70.0839 10.4363 64.0308 10.6483 57.1953 14.2592L57.1281 14.2947L57.0606 14.3267C52.6218 16.4318 48.7273 19.916 44.3628 23.8601L44.3407 23.8801C42.986 25.1043 41.5843 26.3709 40.1571 27.588C38.5959 29.0068 36.9797 30.3585 35.4361 31.6495L35.4045 31.6759C33.1693 33.5453 31.083 35.2932 29.1747 37.1755L29.1624 37.1876C27.5496 38.765 26.0627 40.607 24.683 42.5056L24.6667 42.5278C21.1629 47.2718 18.9648 52.311 19.3156 56.1982L19.3169 56.2133L19.3179 56.2285C19.3928 57.3917 19.5549 58.4979 19.8143 59.5383C21.3618 57.6204 23.0307 55.7534 24.499 54.1108L24.5481 54.0559C25.5807 52.9008 26.501 51.8708 27.2727 50.9537L27.2968 50.9251L27.3215 50.8968C29.2249 48.7218 30.9697 46.4612 32.8039 44.0826L32.8079 44.0775ZM28.8249 65.0974C26.3832 65.8845 24.7043 66.3029 23.7317 65.9185L23.6753 65.8564C23.5101 65.4966 23.5225 64.9297 23.764 64.0949C24.0182 63.2165 24.4797 62.1994 25.0111 61.1412C27.3197 56.8346 30.6559 52.3784 34.7773 48.9955L34.8009 48.9758C36.2736 47.7485 37.8001 46.5683 39.3616 45.4333C40.4393 44.6718 41.631 43.9792 43.0144 43.1791L43.1688 43.0899C45.1505 41.9442 47.5672 40.5471 49.6747 38.6296C52.3146 36.366 54.5615 33.8293 56.6032 31.5244L56.6852 31.4318C57.1837 30.8691 57.6705 30.3195 58.1602 29.7753C60.6843 27.0028 63.5158 24.4472 66.5313 22.2148L66.5643 22.1903L66.5969 22.1652C68.206 20.9229 71.4232 19.1292 74.5778 17.9191C76.1279 17.3244 77.5435 16.9178 78.6552 16.7713C79.6911 16.6348 80.2934 16.7448 80.5971 16.9602C80.879 17.8826 80.3206 19.283 79.3141 21.535C79.2288 21.7259 79.1412 21.9219 79.0544 22.1182C78.3699 23.6318 77.7028 25.0442 76.8229 26.3632L76.8101 26.3826C75.0557 29.0526 72.3692 31.4925 69.304 33.8846L69.2399 33.9347L69.1775 33.9874C66.3078 36.4158 63.1188 38.5392 59.8029 40.68L59.7635 40.7054L59.7244 40.732C56.1459 43.1654 53.0201 45.9274 50.2311 49.2746L50.2072 49.3032L50.184 49.3322C47.7328 52.3948 45.2635 55.2751 42.4338 57.619L42.3766 57.6664L42.3212 57.7158C38.3262 61.2749 33.4796 63.7558 28.9065 65.0725L28.8659 65.0842L28.8249 65.0974Z" fill="#0B6388"/>
<path d="M18.6581 66.5519L19.0386 66.6603L19.0386 66.6603L18.6581 66.5519ZM15.9426 76.544C15.8802 76.4492 15.8227 76.3534 15.7715 76.2569L14.7917 76.9801C14.85 77.09 14.9144 77.1972 14.9829 77.3012L15.9426 76.544ZM37.0319 74.2311L37.1764 74.2216L37.6321 73.2611L37.4876 73.2706L37.0319 74.2311ZM42.8373 77.3132L42.8513 77.3074L42.9065 76.4474L42.8925 76.4532L42.8373 77.3132ZM18.2942 66.4214C18.2887 66.4287 18.2832 66.4361 18.2776 66.4435L19.0386 66.6603C19.0438 66.6533 19.0491 66.6463 19.0544 66.6392L18.2942 66.4214ZM18.2777 66.4434C18.2538 66.4752 18.2287 66.505 18.2026 66.5327L18.8233 66.916C18.8996 66.8348 18.9717 66.7494 19.0386 66.6603L18.2777 66.4434ZM35.2951 75.594L35.5788 74.6595L35.5774 74.6598L35.2951 75.594ZM35.2917 75.5948L35.5739 74.6606L35.0079 76.5293L35.2917 75.5948ZM37.2786 73.7497L36.8134 74.7108L36.8176 74.7106L37.2786 73.7497ZM37.2751 73.7499L37.7404 72.7888L37.7363 72.7891L37.2751 73.7499ZM37.2632 73.7506L37.7243 72.7898L37.7235 72.7899L37.2632 73.7506ZM33.2928 71.1341L32.6223 72.0801L32.6225 72.0802L33.2928 71.1341ZM34.1787 71.3417L34.8603 70.3983L34.8582 70.3978L34.1787 71.3417ZM30.8007 70.4244L30.5666 69.7181L28.7535 70.8923L30.066 71.3522L30.8007 70.4244ZM34.7256 67.7269L35.0302 68.3855L35.0303 68.3854L34.7256 67.7269ZM34.788 67.6827L34.4834 67.0242L34.4833 67.0242L34.788 67.6827ZM39.2048 64.6815L39.0029 63.9547L39.0028 63.9548L39.2048 64.6815ZM39.2401 64.6596L39.442 65.3863L39.4601 65.3751L39.4779 65.3635L39.2401 64.6596ZM39.2751 64.6368L39.5129 65.3407L39.5132 65.3406L39.2751 64.6368ZM49.3969 58.7256L49.3498 57.9124L49.3275 57.9235L49.3053 57.9354L49.3969 58.7256ZM50.5844 58.1392L50.5439 57.3227L50.5439 57.3228L50.5844 58.1392ZM50.7672 58.0493L50.7268 57.2327L50.7267 57.2328L50.7672 58.0493ZM60.9561 51.8401L60.538 51.268L60.5196 51.283L60.5015 51.2984L60.9561 51.8401ZM69.8261 41.8328L69.056 41.6284L69.0558 41.6285L69.8261 41.8328ZM69.8788 41.7613L69.1571 41.494L69.132 41.5252L69.1087 41.5569L69.8788 41.7613ZM74.1906 36.0558L74.9649 36.2544L74.965 36.2543L74.1906 36.0558ZM74.2139 36.0238L73.4395 35.8251L73.4394 35.8253L74.2139 36.0238ZM80.7501 27.7432L80.1412 27.3474L80.1256 27.3637L80.1105 27.3802L80.7501 27.7432ZM81.0808 27.3971L80.4721 27.0012L80.4719 27.0013L81.0808 27.3971ZM83.9876 24.2819L85.0093 23.6719L84.7111 22.388L83.33 23.9389L83.9876 24.2819ZM84.5479 27.2266L85.5771 26.6554L85.5771 26.6554L84.5479 27.2266ZM84.5509 27.2461L83.5217 27.8173L83.5233 27.8273L83.5252 27.8372L84.5509 27.2461ZM84.5546 27.2652L83.5289 27.8563L83.5289 27.8563L84.5546 27.2652ZM84.5276 32.0205L85.5142 31.8218L85.5145 31.8209L84.5276 32.0205ZM84.5184 32.0478L83.5319 32.2465L83.5269 32.2614L83.5224 32.2763L84.5184 32.0478ZM84.5101 32.075L85.506 31.8473L85.5062 31.8465L84.5101 32.075ZM75.3938 46.1131L75.981 46.5313L76.0002 46.5118L76.0188 46.4919L75.3938 46.1131ZM70.0623 50.8321L70.4409 51.4357L70.4585 51.4221L70.4758 51.4081L70.0623 50.8321ZM61.9687 57.7358L61.478 57.2256L61.4777 57.2259L61.9687 57.7358ZM61.9184 57.7808L62.4091 58.2909L62.4094 58.2906L61.9184 57.7808ZM50.2817 67.1656L50.4764 67.8968L50.4945 67.8857L50.5124 67.8741L50.2817 67.1656ZM38.2992 71.8733L38.7591 70.9125L38.7478 70.9133L38.2992 71.8733ZM38.277 71.8749L38.7256 70.9149L38.7255 70.9149L38.277 71.8749ZM34.1863 71.3435L34.8658 70.3996L34.8637 70.3991L34.1863 71.3435ZM34.1813 71.3424L33.4997 72.2858L33.5039 72.2868L34.1813 71.3424ZM38.4858 62.3206L38.2641 61.6063L38.7065 63.0356L38.4858 62.3206ZM38.5346 62.2895L38.7577 63.0029L38.3129 61.5752L38.5346 62.2895ZM34.7089 41.6248L35.4461 41.8726L35.4592 41.8559L35.4718 41.8391L34.7089 41.6248ZM32.8079 44.0775L33.5507 44.3181L33.5537 44.3142L32.8079 44.0775ZM36.4587 39.1599L37.2598 39.321L37.26 39.3207L36.4587 39.1599ZM36.5835 38.9796L37.3848 39.1404L37.3848 39.1404L36.5835 38.9796ZM43.2419 31.1906L43.6632 31.7601L43.682 31.7447L43.7005 31.7288L43.2419 31.1906ZM54.6483 23.9516L54.7026 24.7612L54.7106 24.7572L54.7186 24.753L54.6483 23.9516ZM65.1728 18.2197L65.0378 17.4532L65.0371 17.4536L65.1728 18.2197ZM65.1912 18.2093L65.0742 17.4327L65.0651 17.4377L65.0561 17.4428L65.1912 18.2093ZM65.2095 18.1991L65.0927 17.4225L65.0926 17.4226L65.2095 18.1991ZM70.3633 15.0497L70.1395 14.3367L70.1393 14.3369L70.3633 15.0497ZM70.4218 15.0123L70.6456 15.7253L70.6458 15.7251L70.4218 15.0123ZM74.7055 12.3504L74.8663 13.102L76.7814 11.9773L75.4673 11.433L74.7055 12.3504ZM57.1953 14.2592L57.2818 15.0522L57.2819 15.0522L57.1953 14.2592ZM57.1281 14.2947L57.1456 15.1223L57.1802 15.1059L57.2146 15.0877L57.1281 14.2947ZM57.0606 14.3267L57.0782 15.1543L57.0782 15.1542L57.0606 14.3267ZM44.3628 23.8601L43.8639 23.3574L43.8637 23.3575L44.3628 23.8601ZM44.3407 23.8801L44.8396 24.3828L44.8398 24.3826L44.3407 23.8801ZM40.1571 27.588L39.704 27.045L39.6785 27.0668L39.6538 27.0893L40.1571 27.588ZM35.4361 31.6495L34.9985 31.0934L34.9982 31.0936L35.4361 31.6495ZM35.4045 31.6759L35.8421 32.232L35.8423 32.2317L35.4045 31.6759ZM29.1747 37.1755L29.7368 37.6187L29.7406 37.615L29.1747 37.1755ZM29.1624 37.1876L29.7219 37.6333L29.7244 37.6308L29.1624 37.1876ZM24.683 42.5056L25.4563 42.7057L25.4605 42.7L24.683 42.5056ZM24.6667 42.5278L25.4358 42.7336L25.44 42.7279L24.6667 42.5278ZM19.3156 56.1982L20.3493 55.664L20.3493 55.6638L19.3156 56.1982ZM19.3169 56.2133L20.3518 55.6944L20.3513 55.6867L20.3506 55.679L19.3169 56.2133ZM19.3179 56.2285L20.3528 55.7098L20.3528 55.7097L19.3179 56.2285ZM19.8143 59.5383L18.7945 60.1563L19.1389 61.5371L20.534 59.808L19.8143 59.5383ZM24.499 54.1108L25.1541 54.4567L25.1542 54.4566L24.499 54.1108ZM24.5481 54.0559L23.893 53.7101L23.893 53.7102L24.5481 54.0559ZM27.2727 50.9537L26.5789 50.6525L26.5785 50.6529L27.2727 50.9537ZM27.2968 50.9251L26.6268 50.5961L26.6147 50.6099L26.603 50.6239L27.2968 50.9251ZM27.3215 50.8968L26.6524 50.5668L26.6515 50.5678L27.3215 50.8968ZM32.8039 44.0826L32.0611 43.842L32.0581 43.8459L32.8039 44.0826ZM23.7317 65.9185L22.8109 66.726L22.8777 66.7996L22.9776 66.8391L23.7317 65.9185ZM28.8249 65.0974L29 64.193L28.9999 64.193L28.8249 65.0974ZM23.6753 65.8564L22.6844 66.5571L22.7117 66.6166L22.7546 66.6639L23.6753 65.8564ZM23.764 64.0949L22.7634 64.3385L23.764 64.0949ZM25.0111 61.1412L24.1124 61.139L24.1031 61.1564L24.0943 61.1739L25.0111 61.1412ZM34.7773 48.9955L35.1999 49.564L35.2121 49.5539L34.7773 48.9955ZM34.8009 48.9758L34.3662 48.4174L34.3661 48.4174L34.8009 48.9758ZM39.3616 45.4333L39.0592 44.7732L39.048 44.7812L39.0368 44.7893L39.3616 45.4333ZM43.0144 43.1791L42.865 42.4209L42.8647 42.4211L43.0144 43.1791ZM43.1688 43.0899L43.0194 42.3317L43.0193 42.3317L43.1688 43.0899ZM49.6747 38.6296L49.2172 38.0904L49.1935 38.1107L49.1705 38.1317L49.6747 38.6296ZM56.6032 31.5244L57.2644 31.8634L57.2644 31.8633L56.6032 31.5244ZM56.6852 31.4318L56.0241 31.0927L56.024 31.0928L56.6852 31.4318ZM58.1602 29.7753L57.5175 29.4157L57.5095 29.4246L58.1602 29.7753ZM66.5313 22.2148L66.192 21.5813L66.1917 21.5815L66.5313 22.2148ZM66.5643 22.1903L66.9036 22.8238L66.9206 22.8112L66.9374 22.7983L66.5643 22.1903ZM66.5969 22.1652L66.97 22.7731L66.9702 22.7729L66.5969 22.1652ZM74.5778 17.9191L74.4794 18.7964L74.5778 17.9191ZM78.6552 16.7713L78.2641 17.7254L78.6552 16.7713ZM80.5971 16.9602L81.6099 16.3171L81.5666 16.1754L81.4502 16.0928L80.5971 16.9602ZM79.3141 21.535L80.2577 21.4458L80.2577 21.4458L79.3141 21.535ZM79.0544 22.1182L79.9956 22.0344L80 22.0245L79.0544 22.1182ZM76.8229 26.3632L76.0045 26.2274L75.9974 26.2383L76.8229 26.3632ZM76.8101 26.3826L77.6351 26.5084L77.6357 26.5075L76.8101 26.3826ZM69.304 33.8846L68.9221 33.2836L68.9218 33.2838L69.304 33.8846ZM69.2399 33.9347L68.8576 33.3339L68.8249 33.3594L68.7932 33.3863L69.2399 33.9347ZM69.1775 33.9874L68.7308 33.439L68.7305 33.4393L69.1775 33.9874ZM59.8029 40.68L59.5713 39.9721L59.5706 39.9725L59.8029 40.68ZM59.7635 40.7054L59.5312 39.9979L59.5114 40.0107L59.4918 40.0241L59.7635 40.7054ZM59.7244 40.732L59.4527 40.0506L59.4523 40.0509L59.7244 40.732ZM50.2311 49.2746L49.5308 48.9811L49.5308 48.9811L50.2311 49.2746ZM50.2072 49.3032L49.5069 49.0098L49.4947 49.0244L49.4829 49.0391L50.2072 49.3032ZM50.184 49.3322L49.4597 49.0681L49.4595 49.0684L50.184 49.3322ZM42.4338 57.619L42.0039 57.0565L42.0039 57.0566L42.4338 57.619ZM42.3766 57.6664L41.9467 57.104L41.9174 57.1282L41.889 57.1535L42.3766 57.6664ZM42.3212 57.7158L41.8335 57.2029L41.8334 57.203L42.3212 57.7158ZM28.9065 65.0725L29.1234 64.1553L29.1231 64.1554L28.9065 65.0725ZM28.8659 65.0842L29.0825 64.1671L29.0618 64.1731L29.041 64.1798L28.8659 65.0842ZM81.2268 49.8967L80.3629 49.8332L80.3536 49.8488L80.3448 49.8644L81.2268 49.8967ZM64.9022 67.0193L65.1197 67.7362L64.9022 67.0193ZM81.4266 49.5615L82.2905 49.625L82.2905 49.625L81.4266 49.5615ZM85.2075 42.751L84.2859 42.7934L84.2811 42.8032L84.2764 42.813L85.2075 42.751ZM88.59 34.1626L87.6039 34.3601L87.6037 34.3607L88.59 34.1626ZM88.6012 34.1294L89.5873 33.9319L89.5932 33.9146L89.5984 33.8974L88.6012 34.1294ZM88.6111 34.0966L89.6083 33.8646L89.6083 33.8645L88.6111 34.0966ZM91.8966 24.4133L90.9225 24.5768L90.9225 24.5768L91.8966 24.4133ZM91.9348 24.3107L92.9089 24.1472L92.9285 24.0944L92.9421 24.043L91.9348 24.3107ZM91.9611 24.2107L92.9684 23.943L92.9684 23.9428L91.9611 24.2107ZM89.2247 9.68458L88.2996 10.4872L88.2997 10.4873L89.2247 9.68458ZM89.2137 9.67214L90.1389 8.86957L90.1333 8.86329L90.1276 8.85723L89.2137 9.67214ZM89.2023 9.66016L90.1161 8.84525L90.1158 8.84486L89.2023 9.66016ZM68.2579 6.04333L67.8979 6.99285L67.9145 6.99017L67.9313 6.98693L68.2579 6.04333ZM50.1414 10.8611L50.0199 11.7471L50.0312 11.7429L50.1414 10.8611ZM37.7161 17.0898L37.994 17.767L37.9992 17.7634L37.7161 17.0898ZM21.8216 35.0028L22.7136 35.0173L22.719 35.0074L21.8216 35.0028ZM21.7728 35.092L20.8808 35.0774L20.8807 35.0777L21.7728 35.092ZM17.3955 43.9354L18.3574 43.8034L18.3622 43.7912L17.3955 43.9354ZM14.6149 52.3089L15.6169 52.0604L15.617 52.0602L14.6149 52.3089ZM14.609 52.3297L13.607 52.5783L13.604 52.5891L13.6012 52.5998L14.609 52.3297ZM14.6037 52.3503L15.6115 52.0802L15.6115 52.0802L14.6037 52.3503ZM14.1919 53.9046L13.1856 54.1687L13.1856 54.1688L14.1919 53.9046ZM14.1737 53.9729L15.18 53.7088L15.18 53.7087L14.1737 53.9729ZM12.4915 62.1056L11.4578 62.5226L11.4578 62.5231L12.4915 62.1056ZM12.4901 62.1219L11.4564 62.5394L11.4558 62.5474L11.4553 62.5554L12.4901 62.1219ZM12.4891 62.1381L11.4543 62.5715L11.4542 62.5717L12.4891 62.1381ZM14.7317 73.1595L15.7087 72.4311L15.6969 72.4095L15.6827 72.3897L14.7317 73.1595ZM14.9245 73.4789L13.9649 74.2361L13.9649 74.2363L14.9245 73.4789ZM14.9439 73.5083L13.9843 74.2657L13.9942 74.2807L14.0053 74.2948L14.9439 73.5083ZM14.9656 73.5358L14.0271 74.3222L14.0271 74.3223L14.9656 73.5358ZM15.4686 74.0556L16.3868 73.2454L16.3697 73.2268L16.3503 73.2104L15.4686 74.0556ZM28.9425 78.5005L28.4807 79.4614L28.4808 79.4614L28.9425 78.5005ZM28.9848 78.498L28.5232 79.4589L28.5448 79.4576L28.5669 79.4553L28.9848 78.498ZM29.0281 78.4935L28.6101 79.4507L28.6103 79.4507L29.0281 78.4935ZM34.6769 77.4262L34.9606 76.4917L34.9606 76.4917L34.6769 77.4262ZM34.7359 77.4125L35.0196 76.478L35.0196 76.478L34.7359 77.4125ZM36.2352 77.071L35.9408 78.008L35.9531 78.0051L36.2352 77.071ZM36.2594 77.0654L35.9773 77.9995L35.9773 77.9995L36.2594 77.0654ZM40.5463 76.1387L40.2367 77.0789L40.2379 77.0787L40.5463 76.1387ZM40.559 76.1361L40.8685 75.1959L40.8674 75.1962L40.559 76.1361ZM44.8065 75.2195L45.0905 74.285L45.0903 74.285L44.8065 75.2195ZM44.8268 75.2149L44.5428 76.1494L44.5536 76.1469L44.5644 76.1442L44.8268 75.2149ZM44.8473 75.2097L45.1101 74.2803L45.1097 74.2804L44.8473 75.2097ZM35.5774 74.6598L35.5739 74.6606L35.0094 76.529L35.0129 76.5281L35.5774 74.6598ZM35.8372 74.5998C35.7512 74.6197 35.665 74.6396 35.5788 74.6595L35.0114 76.5285C35.0974 76.5086 35.1834 76.4888 35.2693 76.469L35.8372 74.5998ZM35.8372 74.5998C35.75 74.62 35.6627 74.6401 35.5754 74.6603L35.0079 76.5293C35.0951 76.5092 35.1823 76.489 35.2693 76.469L35.8372 74.5998ZM33.9775 65.6818L33.8885 65.7449L34.497 67.0625L34.586 66.9994L33.9775 65.6818ZM36.8176 74.7106C36.8634 74.7078 36.9094 74.7048 36.9558 74.7014L37.8527 72.7814C37.815 72.7841 37.7774 72.7866 37.7397 72.7889L36.8176 74.7106ZM36.8098 74.711L36.8134 74.7108L37.7439 72.7887L37.7403 72.7889L36.8098 74.711ZM36.802 74.7115L36.8139 74.7108L37.7363 72.7891L37.7243 72.7898L36.802 74.7115ZM36.7995 74.7116L36.8028 74.7114L37.7235 72.7899L37.7201 72.7901L36.7995 74.7116ZM32.6225 72.0802C32.916 72.1458 33.2091 72.2161 33.4993 72.2857L34.8582 70.3978C34.5696 70.3285 34.2673 70.256 33.963 70.188L32.6225 72.0802ZM30.066 71.3522C30.8823 71.6382 31.7351 71.8814 32.6223 72.0801L33.9633 70.188C33.1208 69.9993 32.3108 69.7684 31.5354 69.4966L30.066 71.3522ZM34.421 67.0684C33.1805 67.9475 31.9019 68.8532 30.5666 69.7181L31.0348 71.1307C32.4523 70.2127 33.7989 69.2581 35.0302 68.3855L34.421 67.0684ZM34.4833 67.0242L34.4209 67.0684L35.0303 68.3854L35.0927 68.3412L34.4833 67.0242ZM39.0028 63.9548C37.4915 64.8932 36.0169 65.9375 34.4834 67.0242L35.0926 68.3413C36.6434 67.2423 38.0169 66.2712 39.4069 65.4081L39.0028 63.9548ZM39.0381 63.9329L39.0029 63.9547L39.4068 65.4082L39.442 65.3863L39.0381 63.9329ZM39.0372 63.9329L39.0023 63.9557L39.4779 65.3635L39.5129 65.3407L39.0372 63.9329ZM49.3053 57.9354C45.7889 59.8067 42.4003 61.7436 39.037 63.9331L39.5132 65.3406C42.7504 63.2331 46.035 61.3539 49.4886 59.5159L49.3053 57.9354ZM50.5439 57.3228C50.1401 57.5215 49.7426 57.7171 49.3498 57.9124L49.4441 59.5389C49.8292 59.3473 50.22 59.155 50.6249 58.9557L50.5439 57.3228ZM50.7267 57.2328L50.5439 57.3227L50.6249 58.9557L50.8076 58.8658L50.7267 57.2328ZM60.5015 51.2984C57.4276 53.9246 53.8767 55.683 50.7268 57.2327L50.8075 58.8658C53.8865 57.351 57.8818 55.3966 61.4107 52.3817L60.5015 51.2984ZM69.0558 41.6285C66.7047 44.819 64.0554 48.3967 60.538 51.268L61.3742 52.4122C65.3628 49.1564 68.292 45.164 70.5964 42.037L69.0558 41.6285ZM69.1087 41.5569L69.056 41.6284L70.5963 42.0372L70.649 41.9657L69.1087 41.5569ZM73.4162 35.8571C72.0583 37.7143 70.6691 39.6137 69.1571 41.494L70.6006 42.0286C72.176 40.0694 73.6145 38.1014 74.9649 36.2544L73.4162 35.8571ZM73.4394 35.8253L73.4161 35.8572L74.965 36.2543L74.9884 36.2224L73.4394 35.8253ZM80.1105 27.3802C77.6473 30.0733 75.5804 32.8971 73.4395 35.8251L74.9883 36.2225C77.1498 33.2662 79.0968 30.613 81.3897 28.1062L80.1105 27.3802ZM83.33 23.9389C82.3896 24.9949 81.4177 26.0119 80.4721 27.0012L81.6896 27.7931C82.6282 26.8112 83.6496 25.7429 84.6452 24.6249L83.33 23.9389ZM85.5771 26.6554C85.4186 25.6376 85.234 24.6395 85.0093 23.6719L82.9659 24.8919C83.1836 25.8289 83.3635 26.8003 83.5187 27.7979L85.5771 26.6554ZM85.5801 26.6749L85.5771 26.6554L83.5187 27.7978L83.5217 27.8173L85.5801 26.6749ZM85.5803 26.6741L85.5766 26.655L83.5252 27.8372L83.5289 27.8563L85.5803 26.6741ZM85.5145 31.8209C86.1384 29.9623 85.9005 28.3262 85.5803 26.6741L83.5289 27.8563C83.8561 29.5449 83.9992 30.8546 83.5408 32.22L85.5145 31.8209ZM85.5049 31.8492L85.5142 31.8218L83.5411 32.2191L83.5319 32.2465L85.5049 31.8492ZM85.5062 31.8465L85.5145 31.8194L83.5224 32.2763L83.5141 32.3034L85.5062 31.8465ZM76.0188 46.4919C80.3186 41.889 84.033 36.6567 85.506 31.8473L83.5143 32.3026C82.2062 36.5737 78.8508 41.3646 74.7688 45.7343L76.0188 46.4919ZM70.4758 51.4081C72.3969 49.8489 74.3093 48.2285 75.981 46.5313L74.8067 45.6949C73.3038 47.2207 71.5398 48.7216 69.6488 50.2562L70.4758 51.4081ZM62.4593 58.246C65.0272 55.9499 67.6577 53.5988 70.4409 51.4357L69.6837 50.2285C66.7668 52.4955 64.0292 54.9444 61.478 57.2256L62.4593 58.246ZM62.4094 58.2906L62.4597 58.2457L61.4777 57.2259L61.4274 57.2709L62.4094 58.2906ZM50.5124 67.8741C54.7187 65.162 58.4942 61.7915 62.4091 58.2909L61.4278 57.2706C57.4706 60.809 53.9389 63.9503 50.051 66.4571L50.5124 67.8741ZM37.8393 72.8341C41.6515 72.6011 46.1941 70.53 50.4764 67.8968L50.087 66.4344C46.0271 68.9308 42.002 70.7144 38.7591 70.9125L37.8393 72.8341ZM37.8283 72.8349L37.8505 72.8333L38.7478 70.9133L38.7256 70.9149L37.8283 72.8349ZM33.5068 72.2875C34.9301 72.629 36.2855 72.948 37.8284 72.8349L38.7255 70.9149C37.4784 71.0063 36.332 70.7514 34.8658 70.3996L33.5068 72.2875ZM33.5039 72.2868L33.5089 72.288L34.8637 70.3991L34.8587 70.3979L33.5039 72.2868ZM33.4971 72.2852L33.4997 72.2858L34.8629 70.3989L34.8603 70.3983L33.4971 72.2852ZM38.7076 63.0348L38.7563 63.0038L38.3129 61.5752L38.2641 61.6063L38.7076 63.0348ZM38.3115 61.5761C38.2963 61.5858 38.2809 61.5956 38.2652 61.6056L38.7065 63.0356C38.7233 63.0248 38.7404 63.0139 38.7577 63.0029L38.3115 61.5761ZM33.9717 41.3771C33.3228 42.2059 32.6847 43.0333 32.0621 43.8408L33.5537 44.3142C34.1777 43.5049 34.8073 42.6885 35.4461 41.8726L33.9717 41.3771ZM35.6576 38.9988C35.0392 39.8915 34.4944 40.6768 33.946 41.4106L35.4718 41.8391C36.0667 41.0431 36.6488 40.203 37.2598 39.321L35.6576 38.9988ZM35.7822 38.8187L35.6574 38.999L37.26 39.3207L37.3848 39.1404L35.7822 38.8187ZM42.8206 30.621C39.6354 33.2313 37.417 36.4574 35.7822 38.8188L37.3848 39.1404C39.0682 36.7089 40.9967 33.9453 43.6632 31.7601L42.8206 30.621ZM54.594 23.142C50.8867 25.0064 46.6388 27.3417 42.7833 30.6523L43.7005 31.7288C47.159 28.759 51.0508 26.5977 54.7026 24.7612L54.594 23.142ZM65.0371 17.4536C61.5422 19.4356 58.0985 21.3355 54.578 23.1501L54.7186 24.753C58.2987 22.9077 61.7894 20.9814 65.3085 18.9858L65.0371 17.4536ZM65.0561 17.4428L65.0378 17.4532L65.3078 18.9861L65.3262 18.9757L65.0561 17.4428ZM65.0926 17.4226L65.0742 17.4327L65.3081 18.9858L65.3265 18.9757L65.0926 17.4226ZM70.1393 14.3369C68.3082 15.5074 66.6746 16.5491 65.0927 17.4225L65.3264 18.9758C67.0355 18.0321 68.7773 16.9195 70.5874 15.7624L70.1393 14.3369ZM70.1979 14.2994L70.1395 14.3367L70.5872 15.7626L70.6456 15.7253L70.1979 14.2994ZM74.5447 11.5989C73.0369 12.4843 71.5614 13.4278 70.1977 14.2996L70.6458 15.7251C72.0189 14.8474 73.4324 13.9441 74.8663 13.102L74.5447 11.5989ZM57.2819 15.0522C63.7131 11.6548 69.473 11.4162 73.9437 13.2679L75.4673 11.433C70.6948 9.45642 64.3484 9.64176 57.1086 13.4663L57.2819 15.0522ZM57.2146 15.0877L57.2818 15.0522L57.1087 13.4662L57.0415 13.5017L57.2146 15.0877ZM57.0782 15.1542L57.1456 15.1223L57.1105 13.4672L57.043 13.4992L57.0782 15.1542ZM44.8617 24.3628C49.2684 20.3807 52.9385 17.1175 57.0782 15.1543L57.0431 13.4991C52.3051 15.7462 48.1863 19.4514 43.8639 23.3574L44.8617 24.3628ZM44.8398 24.3826L44.8619 24.3627L43.8637 23.3575L43.8416 23.3775L44.8398 24.3826ZM40.6102 28.1309C42.0645 26.8908 43.4886 25.6036 44.8396 24.3828L43.8418 23.3773C42.4834 24.6049 41.1042 25.851 39.704 27.045L40.6102 28.1309ZM35.8737 32.2055C37.4121 30.9189 39.0617 29.5396 40.6604 28.0867L39.6538 27.0893C38.1301 28.474 36.5473 29.7981 34.9985 31.0934L35.8737 32.2055ZM35.8423 32.2317L35.874 32.2053L34.9982 31.0936L34.9666 31.1201L35.8423 32.2317ZM29.7406 37.615C31.5769 35.8037 33.5953 34.111 35.8421 32.232L34.9669 31.1199C32.7434 32.9795 30.5891 34.7827 28.6088 36.736L29.7406 37.615ZM29.7244 37.6308L29.7368 37.6187L28.6127 36.7322L28.6003 36.7443L29.7244 37.6308ZM25.4605 42.7C26.8101 40.8428 28.2239 39.0985 29.7219 37.6333L28.6028 36.7418C26.8753 38.4315 25.3153 40.3711 23.9054 42.3112L25.4605 42.7ZM25.44 42.7279L25.4563 42.7057L23.9096 42.3055L23.8934 42.3277L25.44 42.7279ZM20.3493 55.6638C20.0229 52.0466 22.0698 47.2912 25.4358 42.7336L23.8976 42.322C20.2561 47.2524 17.9068 52.5754 18.2819 56.7325L20.3493 55.6638ZM20.3506 55.679L20.3493 55.664L18.2819 56.7324L18.2833 56.7475L20.3506 55.679ZM20.3528 55.7097L20.3518 55.6944L18.2821 56.7321L18.2831 56.7474L20.3528 55.7097ZM20.834 58.9202C20.583 57.9136 20.4256 56.841 20.3528 55.7098L18.283 56.7473C18.3599 57.9425 18.5267 59.0821 18.7945 60.1563L20.834 58.9202ZM23.844 53.765C22.3802 55.4024 20.678 57.306 19.0945 59.2685L20.534 59.808C22.0455 57.9348 23.6811 56.1045 25.1541 54.4567L23.844 53.765ZM23.893 53.7102L23.8439 53.7651L25.1542 54.4566L25.2032 54.4017L23.893 53.7102ZM26.5785 50.6529C25.8298 51.5427 24.9312 52.5487 23.893 53.7101L25.2032 54.4018C26.2303 53.2528 27.1722 52.1988 27.9669 51.2544L26.5785 50.6529ZM26.603 50.6239L26.5789 50.6525L27.9665 51.2548L27.9906 51.2263L26.603 50.6239ZM26.6515 50.5678L26.6268 50.5961L27.9668 51.254L27.9915 51.2258L26.6515 50.5678ZM32.0581 43.8459C30.2176 46.2327 28.5089 48.4455 26.6524 50.5668L27.9906 51.2268C29.941 48.9982 31.7218 46.6898 33.5497 44.3193L32.0581 43.8459ZM32.0651 43.8369L32.0611 43.8421L33.5467 44.3232L33.5507 44.3181L32.0651 43.8369ZM22.9776 66.8391C23.6208 67.0932 24.4547 67.0641 25.3902 66.8928C26.3208 66.7225 27.4207 66.398 28.6498 66.0018L28.9999 64.193C27.7874 64.5839 26.827 64.8621 26.0645 65.0017C25.3071 65.1403 24.8153 65.1282 24.4858 64.998L22.9776 66.8391ZM22.7634 64.3385C22.4927 65.2741 22.4423 66.0298 22.6844 66.5571L24.6663 65.1557C24.578 64.9634 24.5522 64.5852 24.7646 63.8514L22.7634 64.3385ZM24.0943 61.1739C23.553 62.2519 23.0481 63.3547 22.7634 64.3385L24.7646 63.8514C24.9883 63.0783 25.4064 62.147 25.9278 61.1085L24.0943 61.1739ZM34.3547 48.427C29.9713 52.025 26.4909 56.7022 24.1124 61.139L25.9097 61.1435C28.1485 56.9671 31.3405 52.7318 35.1999 49.564L34.3547 48.427ZM34.3661 48.4174L34.3425 48.4371L35.2121 49.5539L35.2357 49.5342L34.3661 48.4174ZM39.0368 44.7893C37.4422 45.9482 35.8787 47.157 34.3662 48.4174L35.2356 49.5343C36.6686 48.3401 38.1579 47.1883 39.6864 46.0774L39.0368 44.7893ZM42.8647 42.4211C41.4978 43.2116 40.2256 43.949 39.0592 44.7732L39.6639 46.0935C40.6531 45.3945 41.7643 44.7468 43.1641 43.9372L42.8647 42.4211ZM43.0193 42.3317L42.865 42.4209L43.1639 43.9373L43.3182 43.8481L43.0193 42.3317ZM49.1705 38.1317C47.2551 39.8744 45.0284 41.1702 43.0194 42.3317L43.3182 43.8481C45.2727 42.7182 47.8793 41.2199 50.179 39.1275L49.1705 38.1317ZM55.9421 31.1854C53.8869 33.5055 51.7303 35.9355 49.2172 38.0904L50.1322 39.1688C52.8989 36.7964 55.2362 34.1531 57.2644 31.8634L55.9421 31.1854ZM56.024 31.0928L55.942 31.1854L57.2644 31.8633L57.3465 31.7707L56.024 31.0928ZM57.5095 29.4246C57.0137 29.9756 56.5217 30.531 56.0241 31.0927L57.3464 31.7708C57.8456 31.2072 58.3274 30.6635 58.8109 30.126L57.5095 29.4246ZM66.1917 21.5815C63.0663 23.8954 60.1323 26.5435 57.5175 29.4158L58.803 30.1348C61.2363 27.462 63.9653 24.999 66.8708 22.848L66.1917 21.5815ZM66.2251 21.5569L66.192 21.5813L66.8705 22.8482L66.9036 22.8238L66.2251 21.5569ZM66.2239 21.5572L66.1913 21.5824L66.9374 22.7983L66.97 22.7731L66.2239 21.5572ZM74.6762 17.0418C71.4217 18.2903 68.0306 20.1625 66.2237 21.5574L66.9702 22.7729C68.3815 21.6834 71.4247 19.9682 74.4794 18.7964L74.6762 17.0418ZM79.0464 15.8173C77.8123 15.9799 76.2902 16.4226 74.6762 17.0418L74.4794 18.7964C75.9656 18.2263 77.2748 17.8558 78.2641 17.7254L79.0464 15.8173ZM81.4502 16.0928C80.9909 15.7671 80.1884 15.6668 79.0464 15.8173L78.2641 17.7254C79.1937 17.6029 79.5959 17.7225 79.744 17.8275L81.4502 16.0928ZM80.2577 21.4458C80.7584 20.3254 81.1802 19.3467 81.434 18.5231C81.692 17.6861 81.7998 16.9385 81.6099 16.3171L79.5843 17.6032C79.6763 17.9043 79.6459 18.3181 79.4435 18.9749C79.2369 19.6451 78.8763 20.4925 78.3706 21.6242L80.2577 21.4458ZM80 22.0245C80.0856 21.8309 80.1722 21.6372 80.2577 21.4458L78.3706 21.6241C78.2855 21.8146 78.1968 22.0129 78.1088 22.212L80 22.0245ZM77.6413 26.4989C78.6031 25.0571 79.3136 23.5425 79.9955 22.0344L78.1132 22.202C77.4263 23.7212 76.8025 25.0313 76.0046 26.2274L77.6413 26.4989ZM77.6357 26.5075L77.6485 26.4881L75.9974 26.2383L75.9846 26.2578L77.6357 26.5075ZM69.686 34.4855C72.8029 32.0531 75.7063 29.4437 77.6351 26.5084L75.9852 26.2569C74.4051 28.6615 71.9355 30.9319 68.9221 33.2836L69.686 34.4855ZM69.6221 34.5354L69.6863 34.4853L68.9218 33.2838L68.8576 33.3339L69.6221 34.5354ZM69.6242 34.5358L69.6865 34.4831L68.7932 33.3863L68.7308 33.439L69.6242 34.5358ZM60.0346 41.3879C63.351 39.2468 66.6409 37.0604 69.6245 34.5355L68.7305 33.4393C65.9747 35.7713 62.8866 37.8317 59.5713 39.9721L60.0346 41.3879ZM59.9958 41.413L60.0352 41.3875L59.5706 39.9725L59.5312 39.9979L59.9958 41.413ZM59.9961 41.4134L60.0352 41.3868L59.4918 40.0241L59.4527 40.0506L59.9961 41.4134ZM50.9314 49.568C53.5892 46.3782 56.5649 43.7467 59.9964 41.4132L59.4523 40.0509C55.727 42.5842 52.4509 45.4765 49.5308 48.9811L50.9314 49.568ZM50.9075 49.5967L50.9314 49.568L49.5308 48.9811L49.5069 49.0098L50.9075 49.5967ZM50.9083 49.5963L50.9315 49.5674L49.4829 49.0391L49.4597 49.0681L50.9083 49.5963ZM42.8637 58.1815C45.869 55.6921 48.447 52.6715 50.9086 49.596L49.4595 49.0684C47.0186 52.1182 44.658 54.8581 42.0039 57.0565L42.8637 58.1815ZM42.8066 58.2288L42.8637 58.1814L42.0039 57.0566L41.9467 57.104L42.8066 58.2288ZM42.8088 58.2286L42.8643 58.1792L41.889 57.1535L41.8335 57.2029L42.8088 58.2286ZM28.6896 65.9896C33.4364 64.623 38.5456 62.0267 42.8089 58.2285L41.8334 57.203C38.1068 60.5231 33.5229 62.8887 29.1234 64.1553L28.6896 65.9896ZM28.6493 66.0013L28.6899 65.9896L29.1231 64.1554L29.0825 64.1671L28.6493 66.0013ZM28.6498 66.0018L28.6908 65.9886L29.041 64.1798L29 64.193L28.6498 66.0018ZM80.3448 49.8644C76.2417 57.1218 70.8198 62.4143 64.6847 66.3023L65.1197 67.7362C71.8086 63.4973 77.71 57.7098 82.1088 49.9291L80.3448 49.8644ZM80.5626 49.4979L80.3629 49.8332L82.0908 49.9603L82.2905 49.625L80.5626 49.4979ZM84.2764 42.813C83.2408 45 81.8293 47.3715 80.5626 49.4979L82.2905 49.625C83.543 47.5225 85.0331 45.0233 86.1386 42.689L84.2764 42.813ZM87.6037 34.3607C86.7093 37.0129 85.6978 39.9274 84.2859 42.7934L86.1291 42.7085C87.628 39.666 88.6844 36.6095 89.5763 33.9644L87.6037 34.3607ZM87.615 34.327L87.6039 34.3601L89.5762 33.965L89.5873 33.9319L87.615 34.327ZM87.6139 34.3286L87.604 34.3614L89.5984 33.8974L89.6083 33.8646L87.6139 34.3286ZM90.9225 24.5768C89.6848 27.898 88.5901 31.0917 87.6139 34.3287L89.6083 33.8645C90.5687 30.6796 91.6473 27.5323 92.8706 24.2497L90.9225 24.5768ZM90.9608 24.4742L90.9225 24.5768L92.8706 24.2498L92.9089 24.1472L90.9608 24.4742ZM90.9539 24.4784L90.9276 24.5784L92.9421 24.043L92.9684 23.943L90.9539 24.4784ZM88.2997 10.4873C91.1818 13.7636 92.49 18.6358 90.9538 24.4786L92.9684 23.9428C94.6447 17.567 93.2005 12.3499 90.1496 8.88184L88.2997 10.4873ZM88.2886 10.4747L88.2996 10.4872L90.1498 8.88201L90.1389 8.86957L88.2886 10.4747ZM88.2885 10.4751L88.2999 10.487L90.1276 8.85723L90.1161 8.84525L88.2885 10.4751ZM67.9313 6.98693C76.1713 5.39928 84.0432 6.03663 88.2889 10.4754L90.1158 8.84486C85.5478 4.06912 77.1618 3.4471 68.5846 5.09973L67.9313 6.98693ZM50.0312 11.7429C56.2489 9.41557 62.1316 7.92545 67.8979 6.99285L68.618 5.09381C62.7173 6.04814 56.6662 7.5783 50.2516 9.97929L50.0312 11.7429ZM37.9992 17.7634C41.9536 15.0364 46.1017 13.1787 50.02 11.747L50.2629 9.97513C46.2198 11.4524 41.7623 13.4307 37.4331 16.4162L37.9992 17.7634ZM22.719 35.0074C26.0681 28.7864 31.2725 22.3717 37.994 17.767L37.4383 16.4126C30.055 21.4707 24.4628 28.4254 20.9243 34.9982L22.719 35.0074ZM18.3622 43.7912C19.5034 40.8814 21.0699 38.0181 22.6649 35.1062L20.8807 35.0777C19.2981 37.9668 17.6416 40.9874 16.4289 44.0796L18.3622 43.7912ZM15.617 52.0602C16.3714 49.4012 17.231 46.5886 18.3573 43.8034L16.4337 44.0675C15.2583 46.9742 14.3726 49.8798 13.6129 52.5577L15.617 52.0602ZM15.611 52.0811L15.6169 52.0604L13.6129 52.5575L13.607 52.5783L15.611 52.0811ZM15.6115 52.0802L15.6169 52.0596L13.6012 52.5998L13.5958 52.6204L15.6115 52.0802ZM15.1982 53.6405C15.3379 53.1177 15.4766 52.5982 15.6115 52.0802L13.5958 52.6204C13.4627 53.1314 13.3255 53.6449 13.1856 54.1687L15.1982 53.6405ZM15.18 53.7087L15.1983 53.6403L13.1856 54.1688L13.1674 54.2372L15.18 53.7087ZM13.5251 61.6886C13.7445 59.091 14.4724 56.358 15.18 53.7088L13.1674 54.237C12.4657 56.864 11.6917 59.7538 11.4578 62.5226L13.5251 61.6886ZM13.5237 61.7044L13.5251 61.6881L11.4578 62.5231L11.4564 62.5394L13.5237 61.7044ZM13.5239 61.7046L13.5249 61.6884L11.4553 62.5554L11.4543 62.5715L13.5239 61.7046ZM15.6827 72.3897C13.7062 69.6137 13.2773 65.6839 13.5239 61.7044L11.4542 62.5717C11.1988 66.6937 11.6298 70.9086 13.7806 73.9293L15.6827 72.3897ZM15.8842 72.7217C15.8225 72.6278 15.7634 72.5309 15.7087 72.4311L13.7546 73.8879C13.8216 74.0098 13.8924 74.126 13.9649 74.2361L15.8842 72.7217ZM15.9035 72.751L15.8841 72.7216L13.9649 74.2363L13.9843 74.2657L15.9035 72.751ZM15.9042 72.7494L15.8825 72.7219L14.0053 74.2948L14.0271 74.3222L15.9042 72.7494ZM16.3503 73.2104C16.1884 73.0736 16.0394 72.9201 15.9042 72.7493L14.0271 74.3223C14.1959 74.5356 14.3829 74.7283 14.587 74.9008L16.3503 73.2104ZM29.4042 77.5397C23.8683 77.8666 19.2528 76.345 16.3868 73.2454L14.5504 74.8658C17.6189 78.1846 22.5541 79.8114 28.4807 79.4614L29.4042 77.5397ZM29.4465 77.5372L29.4041 77.5397L28.4808 79.4614L28.5232 79.4589L29.4465 77.5372ZM29.4461 77.5362L29.4028 77.5407L28.5669 79.4553L28.6101 79.4507L29.4461 77.5362ZM34.9606 76.4917C33.1564 76.9084 31.2577 77.3457 29.446 77.5362L28.6103 79.4507C30.5734 79.2443 32.6083 78.773 34.3932 78.3607L34.9606 76.4917ZM35.0196 76.478L34.9606 76.4917L34.3932 78.3607L34.4522 78.347L35.0196 76.478ZM36.5297 76.1341C36.0322 76.2443 35.53 76.3602 35.0196 76.478L34.4522 78.347C34.9639 78.2289 35.4557 78.1154 35.9408 78.0079L36.5297 76.1341ZM36.5416 76.1312L36.5174 76.1369L35.9531 78.0051L35.9773 77.9995L36.5416 76.1312ZM40.8558 75.1986C39.4072 75.5 37.9741 75.7983 36.5415 76.1313L35.9773 77.9995C37.3777 77.6741 38.7833 77.3814 40.2367 77.0789L40.8558 75.1986ZM40.8674 75.1962L40.8546 75.1988L40.2379 77.0787L40.2506 77.076L40.8674 75.1962ZM45.0903 74.285C43.6751 74.6118 42.2645 74.9054 40.8685 75.1959L40.2494 77.0763C41.6412 76.7866 43.0774 76.4878 44.5227 76.1541L45.0903 74.285ZM45.1108 74.2803L45.0905 74.285L44.5225 76.1541L44.5428 76.1494L45.1108 74.2803ZM45.1097 74.2804L45.0892 74.2855L44.5644 76.1442L44.5849 76.1391L45.1097 74.2804ZM64.6847 66.3023C58.5867 70.1668 51.8541 72.6005 45.1101 74.2803L44.5845 76.1392C51.465 74.4255 58.5635 71.8911 65.1197 67.7362L64.6847 66.3023ZM80.4719 27.0013L80.1412 27.3474L81.359 28.139L81.6897 27.7929L80.4719 27.0013ZM22.7546 66.6639L22.8109 66.726L24.6525 65.1111L24.5961 65.049L22.7546 66.6639ZM22.6647 35.1065L22.7136 35.0173L20.9296 34.9883L20.8808 35.0774L22.6647 35.1065Z" fill="black" mask="url(#path-1-outside-1_1017_23408)"/>
<mask id="path-3-outside-2_1017_23408" maskUnits="userSpaceOnUse" x="-1.87305" y="-5.59967" width="100.036" height="86.8895" fill="black">
<rect fill="white" x="-1.87305" y="-5.59967" width="100.036" height="86.8895"/>
<path fill-rule="evenodd" clip-rule="evenodd" d="M61.1717 62.6872C67.5837 58.6237 73.2454 53.0838 77.4963 45.5647L77.6961 45.2294C78.9557 43.115 80.4065 40.6796 81.477 38.4189C82.9324 35.4647 83.9664 32.4792 84.8595 29.8305L84.8707 29.7974L84.8806 29.7646C85.8489 26.5537 86.9356 23.3831 88.1661 20.0812L88.2044 19.9786L88.2307 19.8786C89.8369 13.7693 88.4607 8.72468 85.4942 5.35255L85.4833 5.34011L85.4718 5.32813C81.065 0.720843 72.9361 0.0911618 64.5275 1.7113C58.694 2.65476 52.7271 4.1649 46.4109 6.52905C42.4303 7.98352 38.1275 9.90149 33.9857 12.7578C26.9333 17.5892 21.535 24.2739 18.0912 30.6708L18.0423 30.7599C16.4535 33.6604 14.8421 36.6024 13.6651 39.6034C12.5142 42.4494 11.6416 45.3085 10.8845 47.9769L10.8786 47.9977L10.8732 48.0183C10.7392 48.5328 10.6012 49.0493 10.4615 49.5725L10.4432 49.6409C9.7386 52.2789 8.98765 55.0904 8.76099 57.7736L8.75962 57.7899L8.75862 57.806C8.50757 61.8568 8.93752 65.9291 11.0012 68.8275C11.062 68.9383 11.127 69.0449 11.1941 69.1469L11.2134 69.1763L11.2352 69.2038C11.3872 69.3958 11.5552 69.5689 11.7382 69.7236C14.7054 72.9328 19.4808 74.5069 25.212 74.1685L25.2544 74.166L25.2976 74.1614C27.1851 73.963 29.1519 73.5087 30.9464 73.0941L31.0054 73.0805C31.5165 72.9625 32.0135 72.8478 32.5048 72.739L32.5289 72.7334C33.9455 72.4042 35.3648 72.1087 36.8158 71.8067L36.8285 71.8041C38.2224 71.514 39.6457 71.2178 41.076 70.8875L41.0964 70.8828L41.1168 70.8777C47.9291 69.1809 54.8446 66.6969 61.1717 62.6872ZM31.5612 71.2628L31.5646 71.262C31.6507 71.2421 31.7368 71.2222 31.8228 71.2024C31.7357 71.2225 31.6484 71.2426 31.5612 71.2628ZM30.5513 62.0086L30.4622 62.0717L30.5513 62.0086ZM33.6738 69.4093C33.6317 69.4124 33.5899 69.4152 33.5482 69.4177L33.5446 69.4179L33.5327 69.4186L33.5293 69.4188M30.4482 67.0097C30.1589 66.9403 29.8612 66.8688 29.5623 66.802C28.6975 66.6083 27.8661 66.3713 27.0702 66.0924C28.4467 65.2009 29.7593 64.2707 30.9951 63.3949L31.0575 63.3507C32.5997 62.2578 34.0237 61.2502 35.4744 60.3494L35.5096 60.3276L35.5446 60.3048C38.8449 58.1563 42.1815 56.2483 45.6665 54.3936C46.0554 54.2002 46.4496 54.0062 46.8539 53.8072L47.0367 53.7173C50.1511 52.1849 53.9242 50.3286 57.2256 47.508C60.9786 44.4445 63.7679 40.6595 66.0957 37.5008L66.1484 37.4293C67.6921 35.5095 69.1059 33.5758 70.4601 31.7237L70.4834 31.6918C72.6346 28.7496 74.6416 26.0111 77.0196 23.4112L77.3504 23.0651C78.2925 22.0795 79.2891 21.0369 80.2571 19.9499C80.4783 20.9022 80.6606 21.8869 80.8174 22.8946L80.8204 22.9141L80.8241 22.9332C81.1478 24.6035 81.3383 26.0764 80.7972 27.6884L80.788 27.7158L80.7797 27.7429C79.3891 32.2831 75.8542 37.2948 71.6634 41.7811C70.0761 43.3926 68.2379 44.9532 66.3318 46.5001C63.4818 48.7151 60.7977 51.1151 58.2382 53.4038L58.188 53.4487C54.2519 56.9682 50.5984 60.2241 46.5512 62.8336C42.3801 65.3984 38.0963 67.3257 34.5687 67.5413L34.5465 67.5429C33.1515 67.6451 31.9006 67.3582 30.4558 67.0115L30.4509 67.0103L30.4482 67.0097ZM34.7554 57.9885L34.8041 57.9575C34.7879 57.9678 34.7716 57.9782 34.7554 57.9885ZM29.0774 39.7454C29.7008 38.9371 30.3346 38.1152 30.9784 37.2928C31.5501 36.5279 32.1135 35.7152 32.7282 34.8279L32.853 34.6476C34.5121 32.2511 36.5856 29.2563 39.5114 26.8585C43.1685 23.7183 47.2383 21.4701 50.9178 19.6196C54.4681 17.7896 57.9353 15.8765 61.4423 13.8877L61.4607 13.8772L61.4791 13.8671C63.1246 12.9586 64.8123 11.8814 66.6329 10.7176L66.6913 10.6803C68.0597 9.80556 69.5042 8.88219 70.975 8.01841C66.3534 6.10429 60.3003 6.31624 53.4648 9.9272L53.3976 9.96269L53.3302 9.99467C48.8914 12.0998 44.9969 15.584 40.6323 19.5281L40.6103 19.548C39.2555 20.7722 37.8539 22.0389 36.4266 23.256C34.8655 24.6747 33.2492 26.0265 31.7056 27.3174L31.674 27.3439C29.4389 29.2132 27.3525 30.9611 25.4442 32.8434L25.4319 32.8555C23.8191 34.4329 22.3322 36.2749 20.9525 38.1736L20.9362 38.1958C17.4325 42.9398 15.2344 47.979 15.5851 51.8661L15.5865 51.8812L15.5875 51.8965C15.6623 53.0597 15.8244 54.1658 16.0838 55.2062C17.6313 53.2883 19.3002 51.4214 20.7686 49.7788L20.8176 49.7239C21.8503 48.5687 22.7705 47.5387 23.5422 46.6216L23.5663 46.593L23.591 46.5648C25.4945 44.3898 27.2392 42.1292 29.0734 39.7506L29.0774 39.7454ZM25.0944 60.7654C22.6527 61.5524 20.9739 61.9709 20.0012 61.5865L19.9449 61.5244C19.7797 61.1645 19.792 60.5976 20.0335 59.7629C20.2877 58.8845 20.7492 57.8674 21.2806 56.8092C23.5892 52.5026 26.9254 48.0464 31.0468 44.6635L31.0704 44.6438C32.5432 43.4165 34.0696 42.2362 35.6311 41.1013C36.7089 40.3397 37.9006 39.6472 39.284 38.8471L39.4383 38.7579C41.4201 37.6122 43.8368 36.2151 45.9443 34.2976C48.5841 32.0339 50.8311 29.4973 52.8727 27.1924L52.9548 27.0997C53.4532 26.5371 53.9401 25.9875 54.4298 25.4432C56.9538 22.6707 59.7854 20.1152 62.8008 17.8828L62.8339 17.8583L62.8665 17.8331C64.4756 16.5909 67.6927 14.7972 70.8473 13.5871C72.3974 12.9924 73.8131 12.5858 74.9247 12.4393C75.9606 12.3028 76.5629 12.4128 76.8666 12.6281C77.1486 13.5506 76.5901 14.9509 75.5837 17.203C75.4984 17.3939 75.4107 17.5899 75.3239 17.7862C74.6395 19.2998 73.9723 20.7122 73.0925 22.0311L73.0797 22.0506C71.3252 24.7206 68.6387 27.1604 65.5736 29.5525L65.5094 29.6026L65.447 29.6554C62.5773 32.0838 59.3884 34.2072 56.0725 36.3479L56.033 36.3734L55.9939 36.4C52.4155 38.8334 49.2896 41.5954 46.5006 44.9425L46.4767 44.9712L46.4536 45.0002C44.0024 48.0628 41.5331 50.943 38.7033 53.287L38.6461 53.3343L38.5907 53.3837C34.5957 56.9429 29.7492 59.4238 25.1761 60.7404L25.1354 60.7522L25.0944 60.7654Z"/>
</mask>
<path fill-rule="evenodd" clip-rule="evenodd" d="M61.1717 62.6872C67.5837 58.6237 73.2454 53.0838 77.4963 45.5647L77.6961 45.2294C78.9557 43.115 80.4065 40.6796 81.477 38.4189C82.9324 35.4647 83.9664 32.4792 84.8595 29.8305L84.8707 29.7974L84.8806 29.7646C85.8489 26.5537 86.9356 23.3831 88.1661 20.0812L88.2044 19.9786L88.2307 19.8786C89.8369 13.7693 88.4607 8.72468 85.4942 5.35255L85.4833 5.34011L85.4718 5.32813C81.065 0.720843 72.9361 0.0911618 64.5275 1.7113C58.694 2.65476 52.7271 4.1649 46.4109 6.52905C42.4303 7.98352 38.1275 9.90149 33.9857 12.7578C26.9333 17.5892 21.535 24.2739 18.0912 30.6708L18.0423 30.7599C16.4535 33.6604 14.8421 36.6024 13.6651 39.6034C12.5142 42.4494 11.6416 45.3085 10.8845 47.9769L10.8786 47.9977L10.8732 48.0183C10.7392 48.5328 10.6012 49.0493 10.4615 49.5725L10.4432 49.6409C9.7386 52.2789 8.98765 55.0904 8.76099 57.7736L8.75962 57.7899L8.75862 57.806C8.50757 61.8568 8.93752 65.9291 11.0012 68.8275C11.062 68.9383 11.127 69.0449 11.1941 69.1469L11.2134 69.1763L11.2352 69.2038C11.3872 69.3958 11.5552 69.5689 11.7382 69.7236C14.7054 72.9328 19.4808 74.5069 25.212 74.1685L25.2544 74.166L25.2976 74.1614C27.1851 73.963 29.1519 73.5087 30.9464 73.0941L31.0054 73.0805C31.5165 72.9625 32.0135 72.8478 32.5048 72.739L32.5289 72.7334C33.9455 72.4042 35.3648 72.1087 36.8158 71.8067L36.8285 71.8041C38.2224 71.514 39.6457 71.2178 41.076 70.8875L41.0964 70.8828L41.1168 70.8777C47.9291 69.1809 54.8446 66.6969 61.1717 62.6872ZM31.5612 71.2628L31.5646 71.262C31.6507 71.2421 31.7368 71.2222 31.8228 71.2024C31.7357 71.2225 31.6484 71.2426 31.5612 71.2628ZM30.5513 62.0086L30.4622 62.0717L30.5513 62.0086ZM33.6738 69.4093C33.6317 69.4124 33.5899 69.4152 33.5482 69.4177L33.5446 69.4179L33.5327 69.4186L33.5293 69.4188M30.4482 67.0097C30.1589 66.9403 29.8612 66.8688 29.5623 66.802C28.6975 66.6083 27.8661 66.3713 27.0702 66.0924C28.4467 65.2009 29.7593 64.2707 30.9951 63.3949L31.0575 63.3507C32.5997 62.2578 34.0237 61.2502 35.4744 60.3494L35.5096 60.3276L35.5446 60.3048C38.8449 58.1563 42.1815 56.2483 45.6665 54.3936C46.0554 54.2002 46.4496 54.0062 46.8539 53.8072L47.0367 53.7173C50.1511 52.1849 53.9242 50.3286 57.2256 47.508C60.9786 44.4445 63.7679 40.6595 66.0957 37.5008L66.1484 37.4293C67.6921 35.5095 69.1059 33.5758 70.4601 31.7237L70.4834 31.6918C72.6346 28.7496 74.6416 26.0111 77.0196 23.4112L77.3504 23.0651C78.2925 22.0795 79.2891 21.0369 80.2571 19.9499C80.4783 20.9022 80.6606 21.8869 80.8174 22.8946L80.8204 22.9141L80.8241 22.9332C81.1478 24.6035 81.3383 26.0764 80.7972 27.6884L80.788 27.7158L80.7797 27.7429C79.3891 32.2831 75.8542 37.2948 71.6634 41.7811C70.0761 43.3926 68.2379 44.9532 66.3318 46.5001C63.4818 48.7151 60.7977 51.1151 58.2382 53.4038L58.188 53.4487C54.2519 56.9682 50.5984 60.2241 46.5512 62.8336C42.3801 65.3984 38.0963 67.3257 34.5687 67.5413L34.5465 67.5429C33.1515 67.6451 31.9006 67.3582 30.4558 67.0115L30.4509 67.0103L30.4482 67.0097ZM34.7554 57.9885L34.8041 57.9575C34.7879 57.9678 34.7716 57.9782 34.7554 57.9885ZM29.0774 39.7454C29.7008 38.9371 30.3346 38.1152 30.9784 37.2928C31.5501 36.5279 32.1135 35.7152 32.7282 34.8279L32.853 34.6476C34.5121 32.2511 36.5856 29.2563 39.5114 26.8585C43.1685 23.7183 47.2383 21.4701 50.9178 19.6196C54.4681 17.7896 57.9353 15.8765 61.4423 13.8877L61.4607 13.8772L61.4791 13.8671C63.1246 12.9586 64.8123 11.8814 66.6329 10.7176L66.6913 10.6803C68.0597 9.80556 69.5042 8.88219 70.975 8.01841C66.3534 6.10429 60.3003 6.31624 53.4648 9.9272L53.3976 9.96269L53.3302 9.99467C48.8914 12.0998 44.9969 15.584 40.6323 19.5281L40.6103 19.548C39.2555 20.7722 37.8539 22.0389 36.4266 23.256C34.8655 24.6747 33.2492 26.0265 31.7056 27.3174L31.674 27.3439C29.4389 29.2132 27.3525 30.9611 25.4442 32.8434L25.4319 32.8555C23.8191 34.4329 22.3322 36.2749 20.9525 38.1736L20.9362 38.1958C17.4325 42.9398 15.2344 47.979 15.5851 51.8661L15.5865 51.8812L15.5875 51.8965C15.6623 53.0597 15.8244 54.1658 16.0838 55.2062C17.6313 53.2883 19.3002 51.4214 20.7686 49.7788L20.8176 49.7239C21.8503 48.5687 22.7705 47.5387 23.5422 46.6216L23.5663 46.593L23.591 46.5648C25.4945 44.3898 27.2392 42.1292 29.0734 39.7506L29.0774 39.7454ZM25.0944 60.7654C22.6527 61.5524 20.9739 61.9709 20.0012 61.5865L19.9449 61.5244C19.7797 61.1645 19.792 60.5976 20.0335 59.7629C20.2877 58.8845 20.7492 57.8674 21.2806 56.8092C23.5892 52.5026 26.9254 48.0464 31.0468 44.6635L31.0704 44.6438C32.5432 43.4165 34.0696 42.2362 35.6311 41.1013C36.7089 40.3397 37.9006 39.6472 39.284 38.8471L39.4383 38.7579C41.4201 37.6122 43.8368 36.2151 45.9443 34.2976C48.5841 32.0339 50.8311 29.4973 52.8727 27.1924L52.9548 27.0997C53.4532 26.5371 53.9401 25.9875 54.4298 25.4432C56.9538 22.6707 59.7854 20.1152 62.8008 17.8828L62.8339 17.8583L62.8665 17.8331C64.4756 16.5909 67.6927 14.7972 70.8473 13.5871C72.3974 12.9924 73.8131 12.5858 74.9247 12.4393C75.9606 12.3028 76.5629 12.4128 76.8666 12.6281C77.1486 13.5506 76.5901 14.9509 75.5837 17.203C75.4984 17.3939 75.4107 17.5899 75.3239 17.7862C74.6395 19.2998 73.9723 20.7122 73.0925 22.0311L73.0797 22.0506C71.3252 24.7206 68.6387 27.1604 65.5736 29.5525L65.5094 29.6026L65.447 29.6554C62.5773 32.0838 59.3884 34.2072 56.0725 36.3479L56.033 36.3734L55.9939 36.4C52.4155 38.8334 49.2896 41.5954 46.5006 44.9425L46.4767 44.9712L46.4536 45.0002C44.0024 48.0628 41.5331 50.943 38.7033 53.287L38.6461 53.3343L38.5907 53.3837C34.5957 56.9429 29.7492 59.4238 25.1761 60.7404L25.1354 60.7522L25.0944 60.7654Z" fill="#22B4C4"/>
<path d="M14.9277 62.2198L15.3081 62.3283L15.3081 62.3282L14.9277 62.2198ZM12.2121 72.212C12.1497 72.1172 12.0922 72.0214 12.041 71.9249L11.0612 72.6481C11.1195 72.7579 11.1839 72.8651 11.2524 72.9692L12.2121 72.212ZM33.3014 69.8991L33.4459 69.8896L33.9016 68.9291L33.7572 68.9386L33.3014 69.8991ZM39.1069 72.9812L39.1209 72.9754L39.1761 72.1154L39.1621 72.1212L39.1069 72.9812ZM14.5637 62.0894C14.5582 62.0967 14.5527 62.104 14.5472 62.1114L15.3081 62.3282C15.3134 62.3213 15.3186 62.3143 15.3239 62.3072L14.5637 62.0894ZM14.5472 62.1114C14.5234 62.1432 14.4982 62.1729 14.4722 62.2006L15.0928 62.584C15.1691 62.5028 15.2413 62.4174 15.3081 62.3283L14.5472 62.1114ZM31.5646 71.262L31.8483 70.3275L31.8469 70.3278L31.5646 71.262ZM31.5612 71.2628L31.8434 70.3286L31.2775 72.1973L31.5612 71.2628ZM33.5482 69.4177L33.0829 70.3788L33.0871 70.3785L33.5482 69.4177ZM33.5446 69.4179L34.0099 68.4568L34.0058 68.4571L33.5446 69.4179ZM33.5327 69.4186L33.9939 68.4578L33.993 68.4578L33.5327 69.4186ZM29.5623 66.802L28.8918 67.7481L28.8921 67.7481L29.5623 66.802ZM30.4482 67.0097L31.1298 66.0662L31.1277 66.0657L30.4482 67.0097ZM27.0702 66.0924L26.8361 65.386L25.023 66.5602L26.3355 67.0201L27.0702 66.0924ZM30.9951 63.3949L31.2998 64.0534L31.2998 64.0534L30.9951 63.3949ZM31.0575 63.3507L30.7529 62.6922L30.7528 62.6922L31.0575 63.3507ZM35.4744 60.3494L35.2724 59.6227L35.2724 59.6228L35.4744 60.3494ZM35.5096 60.3276L35.7116 61.0543L35.7296 61.0431L35.7475 61.0315L35.5096 60.3276ZM35.5446 60.3048L35.7824 61.0087L35.7827 61.0085L35.5446 60.3048ZM45.6665 54.3936L45.6194 53.5804L45.5971 53.5915L45.5748 53.6033L45.6665 54.3936ZM46.8539 53.8072L46.8135 52.9907L46.8134 52.9907L46.8539 53.8072ZM47.0367 53.7173L46.9964 52.9007L46.9962 52.9008L47.0367 53.7173ZM57.2256 47.508L56.8075 46.9359L56.7891 46.9509L56.7711 46.9664L57.2256 47.508ZM66.0957 37.5008L65.3255 37.2963L65.3254 37.2965L66.0957 37.5008ZM66.1484 37.4293L65.4266 37.162L65.4016 37.1932L65.3782 37.2249L66.1484 37.4293ZM70.4601 31.7237L71.2345 31.9224L71.2346 31.9223L70.4601 31.7237ZM70.4834 31.6918L69.7091 31.4931L69.709 31.4932L70.4834 31.6918ZM77.0196 23.4112L76.4107 23.0154L76.3952 23.0316L76.38 23.0482L77.0196 23.4112ZM77.3504 23.0651L76.7416 22.6691L76.7415 22.6693L77.3504 23.0651ZM80.2571 19.9499L81.2788 19.3399L80.9806 18.056L79.5995 19.6069L80.2571 19.9499ZM80.8174 22.8946L81.8466 22.3233L81.8466 22.3233L80.8174 22.8946ZM80.8204 22.9141L79.7913 23.4853L79.7928 23.4953L79.7947 23.5051L80.8204 22.9141ZM80.8241 22.9332L79.7984 23.5243L79.7984 23.5243L80.8241 22.9332ZM80.7972 27.6884L81.7837 27.4898L81.784 27.4889L80.7972 27.6884ZM80.788 27.7158L79.8014 27.9145L79.7964 27.9294L79.7919 27.9442L80.788 27.7158ZM80.7797 27.7429L81.7755 27.5153L81.7757 27.5145L80.7797 27.7429ZM71.6634 41.7811L72.2505 42.1993L72.2697 42.1797L72.2884 42.1598L71.6634 41.7811ZM66.3318 46.5001L66.7105 47.1037L66.728 47.0901L66.7453 47.076L66.3318 46.5001ZM58.2382 53.4038L57.7476 52.8936L57.7472 52.8939L58.2382 53.4038ZM58.188 53.4487L58.6786 53.9589L58.6789 53.9586L58.188 53.4487ZM46.5512 62.8336L46.746 63.5648L46.764 63.5537L46.7819 63.5421L46.5512 62.8336ZM34.5687 67.5413L35.0286 66.5804L35.0174 66.5813L34.5687 67.5413ZM34.5465 67.5429L34.9952 66.5829L34.9951 66.5829L34.5465 67.5429ZM30.4558 67.0115L31.1353 66.0675L31.1332 66.0671L30.4558 67.0115ZM30.4509 67.0103L29.7693 67.9538L29.7735 67.9548L30.4509 67.0103ZM34.7554 57.9885L34.5336 57.2743L34.976 58.7035L34.7554 57.9885ZM34.8041 57.9575L35.0272 58.6709L34.5824 57.2432L34.8041 57.9575ZM30.9784 37.2928L31.7157 37.5406L31.7287 37.5239L31.7413 37.507L30.9784 37.2928ZM29.0774 39.7454L29.8202 39.986L29.8232 39.9822L29.0774 39.7454ZM32.7282 34.8279L33.5293 34.989L33.5295 34.9887L32.7282 34.8279ZM32.853 34.6476L33.6543 34.8084L33.6544 34.8084L32.853 34.6476ZM39.5114 26.8585L39.9327 27.4281L39.9516 27.4126L39.97 27.3968L39.5114 26.8585ZM50.9178 19.6196L50.9722 20.4292L50.9802 20.4251L50.9882 20.421L50.9178 19.6196ZM61.4423 13.8877L61.3073 13.1212L61.3067 13.1216L61.4423 13.8877ZM61.4607 13.8772L61.3437 13.1007L61.3347 13.1057L61.3257 13.1108L61.4607 13.8772ZM61.4791 13.8671L61.3622 13.0905L61.3621 13.0906L61.4791 13.8671ZM66.6329 10.7176L66.409 10.0047L66.4088 10.0048L66.6329 10.7176ZM66.6913 10.6803L66.9151 11.3932L66.9154 11.3931L66.6913 10.6803ZM70.975 8.01841L71.1358 8.77L73.051 7.64528L71.7368 7.101L70.975 8.01841ZM53.4648 9.9272L53.5513 10.7202L53.5514 10.7201L53.4648 9.9272ZM53.3976 9.96269L53.4152 10.7902L53.4497 10.7739L53.4841 10.7557L53.3976 9.96269ZM53.3302 9.99467L53.3477 10.8222L53.3477 10.8222L53.3302 9.99467ZM40.6323 19.5281L40.1334 19.0254L40.1332 19.0255L40.6323 19.5281ZM40.6103 19.548L41.1092 20.0508L41.1093 20.0506L40.6103 19.548ZM36.4266 23.256L35.9735 22.713L35.9481 22.7347L35.9233 22.7572L36.4266 23.256ZM31.7056 27.3174L31.2681 26.7614L31.2678 26.7616L31.7056 27.3174ZM31.674 27.3439L32.1116 27.8999L32.1119 27.8997L31.674 27.3439ZM25.4442 32.8434L26.0063 33.2867L26.0101 33.2829L25.4442 32.8434ZM25.4319 32.8555L25.9915 33.3013L25.994 33.2988L25.4319 32.8555ZM20.9525 38.1736L21.7258 38.3737L21.73 38.368L20.9525 38.1736ZM20.9362 38.1958L21.7054 38.4016L21.7095 38.3959L20.9362 38.1958ZM15.5851 51.8661L16.6188 51.3319L16.6188 51.3318L15.5851 51.8661ZM15.5865 51.8812L16.6214 51.3624L16.6209 51.3546L16.6202 51.347L15.5865 51.8812ZM15.5875 51.8965L16.6224 51.3778L16.6223 51.3776L15.5875 51.8965ZM16.0838 55.2062L15.0641 55.8243L15.4084 57.2051L16.8036 55.476L16.0838 55.2062ZM20.7686 49.7788L21.4236 50.1247L21.4237 50.1246L20.7686 49.7788ZM20.8176 49.7239L20.1626 49.3781L20.1625 49.3781L20.8176 49.7239ZM23.5422 46.6216L22.8484 46.3204L22.848 46.3209L23.5422 46.6216ZM23.5663 46.593L22.8963 46.2641L22.8842 46.2779L22.8725 46.2918L23.5663 46.593ZM23.591 46.5648L22.9219 46.2348L22.921 46.2358L23.591 46.5648ZM29.0734 39.7506L28.3306 39.51L28.3276 39.5139L29.0734 39.7506ZM20.0012 61.5865L19.0805 62.3939L19.1473 62.4676L19.2472 62.507L20.0012 61.5865ZM25.0944 60.7654L25.2695 59.861L25.2694 59.861L25.0944 60.7654ZM19.9449 61.5244L18.9539 62.2251L18.9812 62.2846L19.0241 62.3318L19.9449 61.5244ZM20.0335 59.7629L19.033 60.0064L20.0335 59.7629ZM21.2806 56.8092L20.382 56.8069L20.3726 56.8244L20.3638 56.8419L21.2806 56.8092ZM31.0468 44.6635L31.4694 45.232L31.4816 45.2219L31.0468 44.6635ZM31.0704 44.6438L30.6357 44.0854L30.6357 44.0854L31.0704 44.6438ZM35.6311 41.1013L35.3288 40.4412L35.3175 40.4491L35.3063 40.4573L35.6311 41.1013ZM39.284 38.8471L39.1345 38.0889L39.1343 38.089L39.284 38.8471ZM39.4383 38.7579L39.2889 37.9996L39.2888 37.9997L39.4383 38.7579ZM45.9443 34.2976L45.4867 33.7584L45.4631 33.7787L45.44 33.7997L45.9443 34.2976ZM52.8727 27.1924L53.5339 27.5314L53.534 27.5313L52.8727 27.1924ZM52.9548 27.0997L52.2937 26.7607L52.2936 26.7608L52.9548 27.0997ZM54.4298 25.4432L53.787 25.0837L53.7791 25.0925L54.4298 25.4432ZM62.8008 17.8828L62.4616 17.2493L62.4613 17.2495L62.8008 17.8828ZM62.8339 17.8583L63.1731 18.4918L63.1901 18.4792L63.2069 18.4662L62.8339 17.8583ZM62.8665 17.8331L63.2395 18.4411L63.2397 18.4409L62.8665 17.8331ZM70.8473 13.5871L70.7489 14.4644L70.8473 13.5871ZM74.9247 12.4393L74.5336 13.3934L74.9247 12.4393ZM76.8666 12.6281L77.8795 11.9851L77.8361 11.8434L77.7197 11.7608L76.8666 12.6281ZM75.5837 17.203L76.5272 17.1138L76.5272 17.1138L75.5837 17.203ZM75.3239 17.7862L76.2651 17.7024L76.2695 17.6925L75.3239 17.7862ZM73.0925 22.0311L72.2741 21.8954L72.2669 21.9063L73.0925 22.0311ZM73.0797 22.0506L73.9047 22.1764L73.9052 22.1755L73.0797 22.0506ZM65.5736 29.5525L65.1916 28.9515L65.1913 28.9518L65.5736 29.5525ZM65.5094 29.6026L65.1271 29.0019L65.0944 29.0274L65.0627 29.0542L65.5094 29.6026ZM65.447 29.6554L65.0004 29.107L65.0001 29.1072L65.447 29.6554ZM56.0725 36.3479L55.8408 35.64L55.8402 35.6404L56.0725 36.3479ZM56.033 36.3734L55.8007 35.6659L55.7809 35.6787L55.7613 35.692L56.033 36.3734ZM55.9939 36.4L55.7222 35.7186L55.7219 35.7188L55.9939 36.4ZM46.5006 44.9425L45.8003 44.6491L45.8003 44.6491L46.5006 44.9425ZM46.4767 44.9712L45.7764 44.6778L45.7643 44.6924L45.7525 44.7071L46.4767 44.9712ZM46.4536 45.0002L45.7293 44.7361L45.729 44.7364L46.4536 45.0002ZM38.7033 53.287L38.2735 52.7245L38.2734 52.7246L38.7033 53.287ZM38.6461 53.3343L38.2162 52.7719L38.1869 52.7962L38.1585 52.8215L38.6461 53.3343ZM38.5907 53.3837L38.103 52.8709L38.1029 52.871L38.5907 53.3837ZM25.1761 60.7404L25.393 59.8233L25.3927 59.8234L25.1761 60.7404ZM25.1354 60.7522L25.352 59.8351L25.3313 59.8411L25.3105 59.8478L25.1354 60.7522ZM77.4963 45.5647L76.6324 45.5012L76.6231 45.5168L76.6143 45.5323L77.4963 45.5647ZM61.1717 62.6872L61.3892 63.4042L61.1717 62.6872ZM77.6961 45.2294L78.56 45.2929L78.5601 45.2929L77.6961 45.2294ZM81.477 38.4189L80.5554 38.4614L80.5506 38.4712L80.546 38.4809L81.477 38.4189ZM84.8595 29.8305L83.8734 30.0281L83.8732 30.0287L84.8595 29.8305ZM84.8707 29.7974L85.8569 29.5998L85.8627 29.5825L85.8679 29.5654L84.8707 29.7974ZM84.8806 29.7646L85.8778 29.5326L85.8778 29.5325L84.8806 29.7646ZM88.1661 20.0812L87.1921 20.2447L87.1921 20.2448L88.1661 20.0812ZM88.2044 19.9786L89.1784 19.8151L89.1981 19.7624L89.2116 19.7109L88.2044 19.9786ZM88.2307 19.8786L89.2379 19.6109L89.238 19.6107L88.2307 19.8786ZM85.4942 5.35255L84.5691 6.15512L84.5692 6.15529L85.4942 5.35255ZM85.4833 5.34011L86.4084 4.53754L86.4029 4.53126L86.3971 4.5252L85.4833 5.34011ZM85.4718 5.32813L86.3857 4.51322L86.3853 4.51283L85.4718 5.32813ZM64.5275 1.7113L64.1675 2.66082L64.184 2.65813L64.2008 2.6549L64.5275 1.7113ZM46.4109 6.52905L46.2895 7.41505L46.3007 7.41084L46.4109 6.52905ZM33.9857 12.7578L34.2635 13.435L34.2687 13.4314L33.9857 12.7578ZM18.0912 30.6708L18.9832 30.6853L18.9885 30.6754L18.0912 30.6708ZM18.0423 30.7599L17.1503 30.7454L17.1502 30.7457L18.0423 30.7599ZM13.6651 39.6034L14.6269 39.4713L14.6317 39.4592L13.6651 39.6034ZM10.8845 47.9769L11.8865 47.7283L11.8865 47.7281L10.8845 47.9769ZM10.8786 47.9977L9.87655 48.2463L9.87349 48.2571L9.87069 48.2678L10.8786 47.9977ZM10.8732 48.0183L11.8811 47.7482L11.8811 47.7482L10.8732 48.0183ZM10.4615 49.5725L9.45518 49.8366L9.45514 49.8368L10.4615 49.5725ZM10.4432 49.6409L11.4495 49.3768L11.4495 49.3767L10.4432 49.6409ZM8.76099 57.7736L7.72738 58.1905L7.72734 58.191L8.76099 57.7736ZM8.75962 57.7899L7.72597 58.2073L7.7253 58.2154L7.7248 58.2233L8.75962 57.7899ZM8.75862 57.806L7.72379 58.2395L7.72378 58.2397L8.75862 57.806ZM11.0012 68.8275L11.9782 68.0991L11.9664 68.0775L11.9523 68.0577L11.0012 68.8275ZM11.1941 69.1469L10.2344 69.9041L10.2345 69.9042L11.1941 69.1469ZM11.2134 69.1763L10.2538 69.9337L10.2637 69.9487L10.2749 69.9627L11.2134 69.1763ZM11.2352 69.2038L10.2966 69.9902L10.2966 69.9902L11.2352 69.2038ZM11.7382 69.7236L12.6564 68.9133L12.6392 68.8948L12.6198 68.8783L11.7382 69.7236ZM25.212 74.1685L24.7502 75.1294L24.7503 75.1294L25.212 74.1685ZM25.2544 74.166L24.7927 75.1269L24.8143 75.1256L24.8364 75.1233L25.2544 74.166ZM25.2976 74.1614L24.8797 75.1187L24.8798 75.1187L25.2976 74.1614ZM30.9464 73.0941L31.2301 72.1596L31.2301 72.1596L30.9464 73.0941ZM31.0054 73.0805L31.2892 72.146L31.2891 72.146L31.0054 73.0805ZM32.5048 72.739L32.2103 73.676L32.2226 73.6731L32.5048 72.739ZM32.5289 72.7334L32.2468 73.6675L32.2469 73.6675L32.5289 72.7334ZM36.8158 71.8067L36.5063 72.7469L36.5074 72.7466L36.8158 71.8067ZM36.8285 71.8041L37.1381 70.8639L37.1369 70.8641L36.8285 71.8041ZM41.076 70.8875L41.36 69.9529L41.3598 69.953L41.076 70.8875ZM41.0964 70.8828L40.8124 71.8174L40.8231 71.8149L40.834 71.8122L41.0964 70.8828ZM41.1168 70.8777L41.3797 69.9482L41.3792 69.9483L41.1168 70.8777ZM31.8469 70.3278L31.8434 70.3286L31.279 72.1969L31.2824 72.1961L31.8469 70.3278ZM32.1068 70.2678C32.0207 70.2877 31.9346 70.3075 31.8483 70.3275L31.2809 72.1965C31.3669 72.1766 31.4529 72.1568 31.5388 72.1369L32.1068 70.2678ZM32.1068 70.2678C32.0195 70.2879 31.9322 70.3081 31.8449 70.3283L31.2775 72.1973C31.3647 72.1771 31.4518 72.157 31.5388 72.1369L32.1068 70.2678ZM30.2471 61.3498L30.158 61.4129L30.7665 62.7305L30.8556 62.6674L30.2471 61.3498ZM33.0871 70.3785C33.1329 70.3758 33.179 70.3727 33.2253 70.3693L34.1222 68.4493C34.0845 68.4521 34.0469 68.4546 34.0092 68.4569L33.0871 70.3785ZM33.0794 70.379L33.0829 70.3788L34.0134 68.4566L34.0099 68.4568L33.0794 70.379ZM33.0715 70.3795L33.0834 70.3787L34.0058 68.4571L33.9939 68.4578L33.0715 70.3795ZM33.069 70.3796L33.0724 70.3794L33.993 68.4578L33.9896 68.458L33.069 70.3796ZM28.8921 67.7481C29.1855 67.8137 29.4787 67.884 29.7688 67.9536L31.1277 66.0657C30.8391 65.9965 30.5368 65.924 30.2326 65.856L28.8921 67.7481ZM26.3355 67.0201C27.1519 67.3062 28.0046 67.5494 28.8918 67.7481L30.2328 65.856C29.3903 65.6673 28.5804 65.4363 27.8049 65.1646L26.3355 67.0201ZM30.6905 62.7364C29.4501 63.6154 28.1715 64.5212 26.8361 65.386L27.3043 66.7987C28.7218 65.8806 30.0684 64.926 31.2998 64.0534L30.6905 62.7364ZM30.7528 62.6922L30.6905 62.7364L31.2998 64.0534L31.3622 64.0092L30.7528 62.6922ZM35.2724 59.6228C33.761 60.5611 32.2864 61.6054 30.7529 62.6922L31.3621 64.0092C32.9129 62.9103 34.2864 61.9392 35.6764 61.0761L35.2724 59.6228ZM35.3077 59.6008L35.2724 59.6227L35.6763 61.0762L35.7116 61.0543L35.3077 59.6008ZM35.3068 59.6009L35.2718 59.6236L35.7475 61.0315L35.7824 61.0087L35.3068 59.6009ZM45.5748 53.6033C42.0585 55.4747 38.6698 57.4116 35.3065 59.601L35.7827 61.0085C39.0199 58.9011 42.3045 57.0219 45.7581 55.1839L45.5748 53.6033ZM46.8134 52.9907C46.4096 53.1895 46.0122 53.3851 45.6194 53.5804L45.7136 55.2068C46.0987 55.0153 46.4895 54.823 46.8945 54.6237L46.8134 52.9907ZM46.9962 52.9008L46.8135 52.9907L46.8944 54.6237L47.0772 54.5338L46.9962 52.9008ZM56.7711 46.9664C53.6971 49.5926 50.1462 51.351 46.9964 52.9007L47.077 54.5338C50.156 53.0189 54.1513 51.0646 57.6802 48.0497L56.7711 46.9664ZM65.3254 37.2965C62.9742 40.487 60.325 44.0646 56.8075 46.9359L57.6438 48.0802C61.6323 44.8243 64.5616 40.832 66.8659 37.705L65.3254 37.2965ZM65.3782 37.2249L65.3255 37.2963L66.8658 37.7052L66.9185 37.6337L65.3782 37.2249ZM69.6857 31.5251C68.3278 33.3823 66.9387 35.2817 65.4266 37.162L66.8701 37.6965C68.4456 35.7374 69.8841 33.7694 71.2345 31.9224L69.6857 31.5251ZM69.709 31.4932L69.6856 31.5252L71.2346 31.9223L71.2579 31.8904L69.709 31.4932ZM76.38 23.0482C73.9168 25.7413 71.8499 28.5651 69.7091 31.4931L71.2578 31.8905C73.4193 28.9342 75.3664 26.281 77.6592 23.7742L76.38 23.0482ZM79.5995 19.6069C78.6592 20.6628 77.6872 21.6799 76.7416 22.6691L77.9591 23.461C78.8977 22.4791 79.9191 21.4109 80.9147 20.2929L79.5995 19.6069ZM81.8466 22.3233C81.6882 21.3055 81.5036 20.3075 81.2788 19.3399L79.2355 20.5599C79.4531 21.4969 79.633 22.4683 79.7882 23.4658L81.8466 22.3233ZM81.8496 22.3428L81.8466 22.3233L79.7882 23.4658L79.7913 23.4853L81.8496 22.3428ZM81.8499 22.3421L81.8462 22.323L79.7947 23.5051L79.7984 23.5243L81.8499 22.3421ZM81.784 27.4889C82.4079 25.6303 82.17 23.9942 81.8498 22.3421L79.7984 23.5243C80.1257 25.2129 80.2687 26.5226 79.8104 27.888L81.784 27.4889ZM81.7745 27.5171L81.7837 27.4898L79.8107 27.8871L79.8014 27.9145L81.7745 27.5171ZM81.7757 27.5145L81.784 27.4873L79.7919 27.9442L79.7836 27.9714L81.7757 27.5145ZM72.2884 42.1598C76.5881 37.5569 80.3025 32.3246 81.7755 27.5153L79.7838 27.9706C78.4757 32.2417 75.1203 37.0326 71.0384 41.4023L72.2884 42.1598ZM66.7453 47.076C68.6665 45.5169 70.5789 43.8964 72.2505 42.1993L71.0762 41.3629C69.5733 42.8887 67.8093 44.3896 65.9184 45.9242L66.7453 47.076ZM58.7289 53.9139C61.2967 51.6178 63.9272 49.2668 66.7105 47.1037L65.9532 45.8965C63.0363 48.1635 60.2987 50.6124 57.7476 52.8936L58.7289 53.9139ZM58.6789 53.9586L58.7292 53.9136L57.7472 52.8939L57.697 52.9389L58.6789 53.9586ZM46.7819 63.5421C50.9883 60.83 54.7637 57.4595 58.6786 53.9589L57.6973 52.9386C53.7401 56.477 50.2084 59.6182 46.3205 62.125L46.7819 63.5421ZM34.1088 68.502C37.9211 68.2691 42.4636 66.198 46.746 63.5648L46.3565 62.1024C42.2966 64.5988 38.2715 66.3823 35.0286 66.5805L34.1088 68.502ZM34.0979 68.5029L34.1201 68.5013L35.0174 66.5813L34.9952 66.5829L34.0979 68.5029ZM29.7763 67.9554C31.1997 68.297 32.5551 68.616 34.098 68.5029L34.9951 66.5829C33.7479 66.6743 32.6015 66.4194 31.1353 66.0676L29.7763 67.9554ZM29.7735 67.9548L29.7784 67.9559L31.1332 66.0671L31.1283 66.0659L29.7735 67.9548ZM29.7667 67.9531L29.7693 67.9538L31.1324 66.0669L31.1298 66.0662L29.7667 67.9531ZM34.9771 58.7028L35.0259 58.6717L34.5824 57.2432L34.5336 57.2743L34.9771 58.7028ZM34.581 57.244C34.5658 57.2538 34.5504 57.2636 34.5347 57.2735L34.976 58.7035C34.9928 58.6928 35.0099 58.6819 35.0272 58.6709L34.581 57.244ZM30.2412 37.045C29.5923 37.8738 28.9543 38.7013 28.3316 39.5087L29.8232 39.9822C30.4473 39.1729 31.0768 38.3565 31.7157 37.5406L30.2412 37.045ZM31.9271 34.6667C31.3087 35.5595 30.764 36.3448 30.2156 37.0786L31.7413 37.507C32.3362 36.711 32.9184 35.871 33.5293 34.989L31.9271 34.6667ZM32.0517 34.4867L31.9269 34.667L33.5295 34.9887L33.6543 34.8084L32.0517 34.4867ZM39.0902 26.289C35.9049 28.8993 33.6865 32.1254 32.0517 34.4868L33.6544 34.8084C35.3377 32.3769 37.2662 29.6133 39.9327 27.4281L39.0902 26.289ZM50.8635 18.81C47.1562 20.6744 42.9084 23.0097 39.0528 26.3203L39.97 27.3968C43.4286 24.427 47.3204 22.2657 50.9722 20.4292L50.8635 18.81ZM61.3067 13.1216C57.8117 15.1035 54.368 17.0035 50.8475 18.8181L50.9882 20.421C54.5682 18.5757 58.0589 16.6494 61.578 14.6537L61.3067 13.1216ZM61.3257 13.1108L61.3073 13.1212L61.5773 14.6541L61.5957 14.6437L61.3257 13.1108ZM61.3621 13.0906L61.3437 13.1007L61.5777 14.6538L61.596 14.6436L61.3621 13.0906ZM66.4088 10.0048C64.5777 11.1753 62.9442 12.2171 61.3622 13.0905L61.5959 14.6437C63.3051 13.7001 65.0468 12.5875 66.8569 11.4304L66.4088 10.0048ZM66.4675 9.96736L66.409 10.0047L66.8567 11.4306L66.9151 11.3932L66.4675 9.96736ZM70.8142 7.26683C69.3065 8.1523 67.8309 9.09578 66.4672 9.96752L66.9154 11.3931C68.2885 10.5153 69.7019 9.61208 71.1358 8.77L70.8142 7.26683ZM53.5514 10.7201C59.9827 7.32275 65.7425 7.08419 70.2132 8.93583L71.7368 7.101C66.9643 5.12439 60.618 5.30973 53.3781 9.13426L53.5514 10.7201ZM53.4841 10.7557L53.5513 10.7202L53.3782 9.13421L53.311 9.16971L53.4841 10.7557ZM53.3477 10.8222L53.4152 10.7902L53.38 9.13515L53.3126 9.16712L53.3477 10.8222ZM41.1312 20.0308C45.5379 16.0486 49.2081 12.7855 53.3477 10.8222L53.3126 9.16712C48.5747 11.4141 44.4558 15.1194 40.1334 19.0254L41.1312 20.0308ZM41.1093 20.0506L41.1314 20.0307L40.1332 19.0255L40.1112 19.0455L41.1093 20.0506ZM36.8797 23.7989C38.334 22.5587 39.7582 21.2716 41.1092 20.0508L40.1113 19.0453C38.7529 20.2729 37.3737 21.519 35.9735 22.713L36.8797 23.7989ZM32.1432 27.8735C33.6816 26.5869 35.3313 25.2076 36.93 23.7547L35.9233 22.7572C34.3996 24.1419 32.8168 25.4661 31.2681 26.7614L32.1432 27.8735ZM32.1119 27.8997L32.1435 27.8732L31.2678 26.7616L31.2361 26.7881L32.1119 27.8997ZM26.0101 33.2829C27.8464 31.4717 29.8648 29.779 32.1116 27.8999L31.2364 26.7879C29.0129 28.6475 26.8586 30.4506 24.8784 32.4039L26.0101 33.2829ZM25.994 33.2988L26.0063 33.2867L24.8822 32.4002L24.8699 32.4123L25.994 33.2988ZM21.73 38.368C23.0796 36.5108 24.4934 34.7664 25.9915 33.3013L24.8724 32.4098C23.1448 34.0995 21.5848 36.0391 20.175 37.9792L21.73 38.368ZM21.7095 38.3959L21.7258 38.3737L20.1792 37.9735L20.1629 37.9957L21.7095 38.3959ZM16.6188 51.3318C16.2924 47.7146 18.3393 42.9591 21.7054 38.4016L20.1671 37.99C16.5256 42.9204 14.1763 48.2433 14.5514 52.4005L16.6188 51.3318ZM16.6202 51.347L16.6188 51.3319L14.5514 52.4003L14.5528 52.4154L16.6202 51.347ZM16.6223 51.3776L16.6214 51.3624L14.5516 52.4001L14.5526 52.4154L16.6223 51.3776ZM17.1036 54.5882C16.8526 53.5816 16.6951 52.509 16.6224 51.3778L14.5526 52.4152C14.6295 53.6105 14.7962 54.7501 15.0641 55.8243L17.1036 54.5882ZM20.1135 49.4329C18.6498 51.0704 16.9475 52.974 15.3641 54.9365L16.8036 55.476C18.315 53.6027 19.9506 51.7724 21.4236 50.1247L20.1135 49.4329ZM20.1625 49.3781L20.1134 49.433L21.4237 50.1246L21.4728 50.0697L20.1625 49.3781ZM22.848 46.3209C22.0993 47.2107 21.2007 48.2167 20.1626 49.3781L21.4727 50.0698C22.4998 48.9208 23.4418 47.8668 24.2364 46.9224L22.848 46.3209ZM22.8725 46.2918L22.8484 46.3204L24.2361 46.9228L24.2601 46.8942L22.8725 46.2918ZM22.921 46.2358L22.8963 46.2641L24.2363 46.922L24.261 46.8937L22.921 46.2358ZM28.3276 39.5139C26.4871 41.9007 24.7784 44.1134 22.9219 46.2348L24.2601 46.8948C26.2105 44.6661 27.9913 42.3577 29.8192 39.9873L28.3276 39.5139ZM28.3346 39.5049L28.3306 39.51L29.8162 39.9912L29.8202 39.986L28.3346 39.5049ZM19.2472 62.507C19.8903 62.7612 20.7242 62.732 21.6598 62.5608C22.5903 62.3905 23.6902 62.066 24.9194 61.6698L25.2694 59.861C24.0569 60.2519 23.0965 60.5301 22.3341 60.6697C21.5766 60.8083 21.0848 60.7962 20.7553 60.666L19.2472 62.507ZM19.033 60.0064C18.7622 60.9421 18.7118 61.6977 18.9539 62.2251L20.9358 60.8237C20.8475 60.6314 20.8218 60.2532 21.0341 59.5194L19.033 60.0064ZM20.3638 56.8419C19.8226 57.9198 19.3176 59.0227 19.033 60.0064L21.0341 59.5194C21.2578 58.7463 21.6759 57.8149 22.1973 56.7765L20.3638 56.8419ZM30.6243 44.095C26.2409 47.693 22.7604 52.3702 20.382 56.8069L22.1792 56.8114C24.4181 52.6351 27.61 48.3998 31.4694 45.232L30.6243 44.095ZM30.6357 44.0854L30.6121 44.1051L31.4816 45.2219L31.5052 45.2022L30.6357 44.0854ZM35.3063 40.4573C33.7118 41.6162 32.1482 42.8249 30.6357 44.0854L31.5052 45.2022C32.9381 44.0081 34.4274 42.8563 35.9559 41.7454L35.3063 40.4573ZM39.1343 38.089C37.7673 38.8796 36.4951 39.617 35.3288 40.4412L35.9335 41.7615C36.9226 41.0625 38.0338 40.4147 39.4337 39.6051L39.1343 38.089ZM39.2888 37.9997L39.1345 38.0889L39.4335 39.6052L39.5878 39.516L39.2888 37.9997ZM45.44 33.7997C43.5247 35.5424 41.2979 36.8382 39.2889 37.9996L39.5877 39.5161C41.5422 38.3862 44.1489 36.8878 46.4485 34.7954L45.44 33.7997ZM52.2116 26.8533C50.1564 29.1735 47.9998 31.6035 45.4867 33.7584L46.4018 34.8367C49.1684 32.4644 51.5057 29.821 53.5339 27.5314L52.2116 26.8533ZM52.2936 26.7608L52.2115 26.8534L53.534 27.5313L53.616 27.4387L52.2936 26.7608ZM53.7791 25.0925C53.2833 25.6436 52.7912 26.199 52.2937 26.7607L53.6159 27.4388C54.1152 26.8752 54.5969 26.3314 55.0805 25.794L53.7791 25.0925ZM62.4613 17.2495C59.3358 19.5634 56.4019 22.2115 53.787 25.0837L55.0725 25.8028C57.5058 23.13 60.2349 20.667 63.1404 18.516L62.4613 17.2495ZM62.4946 17.2248L62.4616 17.2493L63.1401 18.5162L63.1731 18.4918L62.4946 17.2248ZM62.4934 17.2252L62.4608 17.2504L63.2069 18.4662L63.2395 18.4411L62.4934 17.2252ZM70.9458 12.7097C67.6912 13.9582 64.3001 15.8304 62.4932 17.2254L63.2397 18.4409C64.651 17.3513 67.6942 15.6362 70.7489 14.4644L70.9458 12.7097ZM75.3159 11.4852C74.0818 11.6478 72.5598 12.0906 70.9458 12.7097L70.7489 14.4644C72.2351 13.8942 73.5443 13.5238 74.5336 13.3934L75.3159 11.4852ZM77.7197 11.7608C77.2604 11.4351 76.458 11.3347 75.3159 11.4852L74.5336 13.3934C75.4633 13.2709 75.8655 13.3904 76.0136 13.4955L77.7197 11.7608ZM76.5272 17.1138C77.0279 15.9934 77.4498 15.0147 77.7036 14.1911C77.9615 13.3541 78.0693 12.6064 77.8795 11.9851L75.8538 13.2712C75.9458 13.5723 75.9154 13.9861 75.713 14.6428C75.5065 15.313 75.1458 16.1605 74.6401 17.2921L76.5272 17.1138ZM76.2695 17.6925C76.3551 17.4988 76.4417 17.3052 76.5272 17.1138L74.6401 17.2921C74.555 17.4826 74.4663 17.6809 74.3783 17.8799L76.2695 17.6925ZM73.9108 22.1669C74.8727 20.7251 75.5831 19.2105 76.265 17.7024L74.3827 17.87C73.6958 19.3891 73.072 20.6993 72.2741 21.8954L73.9108 22.1669ZM73.9052 22.1755L73.918 22.156L72.2669 21.9063L72.2541 21.9257L73.9052 22.1755ZM65.9555 30.1535C69.0725 27.721 71.9759 25.1117 73.9047 22.1764L72.2547 21.9249C70.6746 24.3295 68.205 26.5998 65.1916 28.9515L65.9555 30.1535ZM65.8916 30.2034L65.9558 30.1533L65.1913 28.9518L65.1271 29.0019L65.8916 30.2034ZM65.8937 30.2038L65.9561 30.151L65.0627 29.0542L65.0004 29.107L65.8937 30.2038ZM56.3041 37.0558C59.6205 34.9148 62.9104 32.7284 65.894 30.2035L65.0001 29.1072C62.2443 31.4393 59.1562 33.4996 55.8408 35.64L56.3041 37.0558ZM56.2653 37.0809L56.3047 37.0554L55.8402 35.6404L55.8007 35.6659L56.2653 37.0809ZM56.2656 37.0814L56.3047 37.0548L55.7613 35.692L55.7222 35.7186L56.2656 37.0814ZM47.2009 45.236C49.8587 42.0462 52.8344 39.4146 56.2659 37.0812L55.7219 35.7188C51.9965 38.2522 48.7204 41.1445 45.8003 44.6491L47.2009 45.236ZM47.177 45.2647L47.2009 45.236L45.8003 44.6491L45.7764 44.6778L47.177 45.2647ZM47.1778 45.2643L47.201 45.2353L45.7525 44.7071L45.7293 44.7361L47.1778 45.2643ZM39.1332 53.8494C42.1386 51.36 44.7166 48.3395 47.1781 45.264L45.729 44.7364C43.2881 47.7861 40.9276 50.5261 38.2735 52.7245L39.1332 53.8494ZM39.0761 53.8968L39.1333 53.8494L38.2734 52.7246L38.2162 52.7719L39.0761 53.8968ZM39.0783 53.8966L39.1338 53.8472L38.1585 52.8215L38.103 52.8709L39.0783 53.8966ZM24.9591 61.6576C29.706 60.291 34.8151 57.6947 39.0784 53.8965L38.1029 52.871C34.3764 56.191 29.7924 58.5567 25.393 59.8233L24.9591 61.6576ZM24.9188 61.6692L24.9594 61.6575L25.3927 59.8234L25.352 59.8351L24.9188 61.6692ZM24.9193 61.6698L24.9603 61.6566L25.3105 59.8478L25.2695 59.861L24.9193 61.6698ZM76.6143 45.5323C72.5113 52.7898 67.0893 58.0823 60.9542 61.9703L61.3892 63.4042C68.0781 59.1652 73.9795 53.3778 78.3784 45.5971L76.6143 45.5323ZM76.8321 45.1659L76.6324 45.5012L78.3603 45.6282L78.56 45.2929L76.8321 45.1659ZM80.546 38.4809C79.5103 40.6679 78.0989 43.0395 76.8321 45.1659L78.5601 45.2929C79.8125 43.1905 81.3027 40.6913 82.4081 38.3569L80.546 38.4809ZM83.8732 30.0287C82.9789 32.6809 81.9673 35.5954 80.5554 38.4614L82.3986 38.3765C83.8975 35.334 84.954 32.2774 85.8459 29.6324L83.8732 30.0287ZM83.8846 29.995L83.8734 30.0281L85.8457 29.6329L85.8569 29.5998L83.8846 29.995ZM83.8835 29.9966L83.8736 30.0294L85.8679 29.5654L85.8778 29.5326L83.8835 29.9966ZM87.1921 20.2448C85.9544 23.5659 84.8596 26.7597 83.8834 29.9967L85.8778 29.5325C86.8382 26.3476 87.9169 23.2002 89.1402 19.9177L87.1921 20.2448ZM87.2303 20.1421L87.1921 20.2447L89.1401 19.9177L89.1784 19.8151L87.2303 20.1421ZM87.2234 20.1463L87.1971 20.2463L89.2116 19.7109L89.2379 19.6109L87.2234 20.1463ZM84.5692 6.15529C87.4513 9.43152 88.7595 14.3038 87.2234 20.1466L89.238 19.6107C90.9143 13.2349 89.47 8.01784 86.4192 4.54981L84.5692 6.15529ZM84.5582 6.14268L84.5691 6.15512L86.4193 4.54998L86.4084 4.53754L84.5582 6.14268ZM84.558 6.14303L84.5694 6.15501L86.3971 4.5252L86.3857 4.51322L84.558 6.14303ZM64.2008 2.6549C72.4408 1.06725 80.3127 1.7046 84.5584 6.14342L86.3853 4.51283C81.8173 -0.262915 73.4313 -0.884928 64.8541 0.767699L64.2008 2.6549ZM46.3007 7.41084C52.5184 5.08354 58.4012 3.59342 64.1675 2.66082L64.8875 0.76178C58.9868 1.71611 52.9357 3.24626 46.5212 5.64726L46.3007 7.41084ZM34.2687 13.4314C38.2231 10.7043 42.3713 8.84666 46.2895 7.415L46.5324 5.6431C42.4893 7.12038 38.0319 9.09863 33.7026 12.0842L34.2687 13.4314ZM18.9885 30.6754C22.3376 24.4544 27.5421 18.0397 34.2635 13.435L33.7078 12.0806C26.3245 17.1387 20.7323 24.0933 17.1938 30.6662L18.9885 30.6754ZM14.6317 39.4592C15.7729 36.5494 17.3394 33.6861 18.9344 30.7742L17.1502 30.7457C15.5677 33.6348 13.9112 36.6553 12.6984 39.7476L14.6317 39.4592ZM11.8865 47.7281C12.6409 45.0692 13.5006 42.2566 14.6269 39.4713L12.7032 39.7354C11.5278 42.6422 10.6422 45.5478 9.88239 48.2257L11.8865 47.7281ZM11.8806 47.7491L11.8865 47.7283L9.88245 48.2255L9.87655 48.2463L11.8806 47.7491ZM11.8811 47.7482L11.8864 47.7276L9.87069 48.2678L9.86532 48.2884L11.8811 47.7482ZM11.4678 49.3084C11.6074 48.7856 11.7461 48.2662 11.8811 47.7482L9.86532 48.2884C9.73219 48.7994 9.59507 49.3129 9.45518 49.8366L11.4678 49.3084ZM11.4495 49.3767L11.4678 49.3083L9.45514 49.8368L9.4369 49.9051L11.4495 49.3767ZM9.7946 57.3566C10.014 54.759 10.7419 52.026 11.4495 49.3768L9.43694 49.905C8.73528 52.5319 7.96127 55.4218 7.72738 58.1905L9.7946 57.3566ZM9.79327 57.3724L9.79464 57.3561L7.72734 58.191L7.72597 58.2073L9.79327 57.3724ZM9.79344 57.3725L9.79444 57.3564L7.7248 58.2233L7.72379 58.2395L9.79344 57.3725ZM11.9523 68.0577C9.97573 65.2817 9.54682 61.3518 9.79345 57.3723L7.72378 58.2397C7.46832 62.3617 7.8993 66.5765 10.0501 69.5973L11.9523 68.0577ZM12.1537 68.3896C12.092 68.2958 12.033 68.1988 11.9782 68.0991L10.0242 69.5559C10.0911 69.6778 10.162 69.794 10.2344 69.9041L12.1537 68.3896ZM12.173 68.419L12.1537 68.3895L10.2345 69.9042L10.2538 69.9337L12.173 68.419ZM12.1738 68.4173L12.152 68.3899L10.2749 69.9627L10.2966 69.9902L12.1738 68.4173ZM12.6198 68.8783C12.4579 68.7415 12.3089 68.5881 12.1737 68.4173L10.2966 69.9902C10.4655 70.2035 10.6524 70.3962 10.8565 70.5688L12.6198 68.8783ZM25.6738 73.2076C20.1379 73.5345 15.5223 72.013 12.6564 68.9133L10.82 70.5338C13.8885 73.8526 18.8237 75.4793 24.7502 75.1294L25.6738 73.2076ZM25.716 73.2051L25.6736 73.2076L24.7503 75.1294L24.7927 75.1269L25.716 73.2051ZM25.7156 73.2042L25.6723 73.2087L24.8364 75.1233L24.8797 75.1187L25.7156 73.2042ZM31.2301 72.1596C29.426 72.5764 27.5272 73.0137 25.7155 73.2042L24.8798 75.1187C26.8429 74.9123 28.8778 74.4409 30.6627 74.0286L31.2301 72.1596ZM31.2891 72.146L31.2301 72.1596L30.6627 74.0287L30.7217 74.015L31.2891 72.146ZM32.7992 71.802C32.3018 71.9123 31.7995 72.0281 31.2892 72.146L30.7217 74.015C31.2334 73.8968 31.7252 73.7834 32.2104 73.6759L32.7992 71.802ZM32.8111 71.7992L32.7869 71.8048L32.2226 73.6731L32.2468 73.6675L32.8111 71.7992ZM37.1254 70.8665C35.6767 71.168 34.2437 71.4663 32.811 71.7992L32.2469 73.6675C33.6473 73.342 35.0528 73.0494 36.5063 72.7469L37.1254 70.8665ZM37.1369 70.8641L37.1242 70.8668L36.5074 72.7466L36.5202 72.744L37.1369 70.8641ZM41.3598 69.953C39.9446 70.2798 38.534 70.5734 37.1381 70.8639L36.519 72.7442C37.9107 72.4546 39.3469 72.1558 40.7923 71.822L41.3598 69.953ZM41.3803 69.9483L41.36 69.9529L40.7921 71.8221L40.8124 71.8174L41.3803 69.9483ZM41.3792 69.9483L41.3588 69.9534L40.834 71.8122L40.8544 71.8071L41.3792 69.9483ZM60.9542 61.9703C54.8562 65.8347 48.1236 68.2685 41.3797 69.9482L40.854 71.8072C47.7345 70.0934 54.833 67.5591 61.3892 63.4042L60.9542 61.9703ZM76.7415 22.6693L76.4107 23.0154L77.6285 23.807L77.9593 23.4609L76.7415 22.6693ZM19.0241 62.3318L19.0805 62.3939L20.922 60.7791L20.8657 60.717L19.0241 62.3318ZM18.9343 30.7745L18.9831 30.6853L17.1992 30.6563L17.1503 30.7454L18.9343 30.7745Z" fill="black" mask="url(#path-3-outside-2_1017_23408)"/>
</g>
<defs>
<clipPath id="clip0_1017_23408">
<rect width="100" height="100" fill="white" transform="translate(0 0.869141)"/>
</clipPath>
</defs>
</svg>