<svg width="183" height="51" viewBox="0 0 183 51" fill="none" xmlns="http://www.w3.org/2000/svg">
<g clip-path="url(#clip0_1017_23429)">
<path fill-rule="evenodd" clip-rule="evenodd" d="M41.4147 25.168H34.0235V33.3656L34.0234 41.5634H41.4147H48.8058V33.3656H41.4147V25.168Z" fill="white"/>
<path d="M19.2148 8.87305V25.2434H26.5947V17.0582H33.9746V8.87305H19.2148Z" fill="white"/>
<path fill-rule="evenodd" clip-rule="evenodd" d="M48.7354 8.87305H41.3555V17.0582H48.7354V25.2434H56.1152V17.0582V8.87305H48.7354Z" fill="white"/>
<path fill-rule="evenodd" clip-rule="evenodd" d="M41.3535 25.2441H33.9736V33.4293H26.5938V41.6145H33.9736H41.3535V33.4293V25.2441Z" fill="white"/>
<path d="M151.852 15.7051C154.358 15.7051 156.496 16.2424 158.267 17.317C160.037 18.3915 161.391 19.9479 162.326 21.9859C163.262 23.9868 163.729 26.3954 163.729 29.2116C163.729 33.4359 162.677 36.7337 160.572 39.1053C158.501 41.4767 155.594 42.6625 151.852 42.6625C149.413 42.6625 147.309 42.1252 145.538 41.0506C143.801 39.976 142.464 38.4383 141.529 36.4373C140.627 34.3992 140.176 31.9907 140.176 29.2116C140.176 26.3954 140.627 23.9868 141.529 21.9859C142.464 19.9479 143.801 18.3915 145.538 17.317C147.309 16.2424 149.413 15.7051 151.852 15.7051ZM151.852 20.8742C149.848 20.8742 148.328 21.5968 147.292 23.0419C146.29 24.45 145.789 26.5066 145.789 29.2116C145.789 31.9166 146.29 33.9916 147.292 35.4368C148.328 36.8818 149.848 37.6044 151.852 37.6044C153.924 37.6044 155.477 36.8818 156.513 35.4368C157.549 33.9916 158.067 31.9166 158.067 29.2116C158.067 26.5066 157.549 24.45 156.513 23.0419C155.477 21.5968 153.924 20.8742 151.852 20.8742Z" fill="white"/>
<path d="M118.855 38.5493C117.352 39.9576 115.815 40.995 114.245 41.662C112.675 42.329 111.054 42.6625 109.384 42.6625C106.878 42.6625 104.673 42.1067 102.769 40.995C100.898 39.8463 99.4447 38.2714 98.4088 36.2705C97.3732 34.2326 96.8555 31.8981 96.8555 29.2672C96.8555 26.5251 97.3399 24.1536 98.3087 22.1526C99.3109 20.1146 100.681 18.5398 102.418 17.4281C104.155 16.2794 106.177 15.7051 108.482 15.7051C110.787 15.7051 112.792 16.2238 114.495 17.2614C116.199 18.2989 117.519 19.7626 118.454 21.6524C119.39 23.5051 119.858 25.6914 119.858 28.2111C119.858 28.6557 119.824 29.156 119.757 29.7118C119.724 30.2676 119.674 30.8049 119.607 31.3237H102.368C102.468 32.7689 102.852 33.9732 103.52 34.9365C104.189 35.8629 105.024 36.5483 106.026 36.9931C107.062 37.4378 108.181 37.6601 109.384 37.6601C110.787 37.6601 112.123 37.4191 113.393 36.9374C114.663 36.4186 115.815 35.6962 116.851 34.7698L118.855 38.5493ZM114.195 26.9883C114.161 25.1355 113.644 23.6533 112.641 22.5417C111.672 21.393 110.336 20.8186 108.632 20.8186C107.029 20.8186 105.625 21.393 104.422 22.5417C103.253 23.6533 102.602 25.1355 102.468 26.9883H114.195Z" fill="white"/>
<path d="M69.7383 8.86914H96.4489V19.9856H91.2872V14.483H86.0253L85.9752 35.9934H90.2349V41.6072H75.8522V35.9934H80.1117L80.1619 14.483H74.9V19.9856H69.7383V8.86914Z" fill="white"/>
<path fill-rule="evenodd" clip-rule="evenodd" d="M122.156 8.87305V9.12892L122.09 9.36934L122.156 9.39144V14.5397H126.901V36.549H122.691V41.6071H136.823V36.549H132.614V8.87305H122.226H122.156Z" fill="white"/>
</g>
<defs>
<clipPath id="clip0_1017_23429">
<rect width="144.57" height="34" fill="white" transform="translate(19.2148 8.86914)"/>
</clipPath>
</defs>
</svg>
