<svg width="210" height="51" viewBox="0 0 210 51" fill="none" xmlns="http://www.w3.org/2000/svg">
<g clip-path="url(#clip0_1168_10192)">
<path d="M117.326 19.8851C116.983 21.009 115.673 21.5657 114.531 21.118C113.501 20.7145 112.985 19.6338 113.238 18.6069C113.398 17.9544 113.514 17.3329 113.585 16.7425C113.724 15.6177 113.723 14.618 113.581 13.7432C113.438 12.8684 113.156 12.1436 112.735 11.5689C112.326 10.983 111.793 10.5609 111.134 10.3028C109.964 9.84421 108.67 10.025 107.252 10.8452C105.841 11.6514 104.386 13.0797 102.889 15.1303C101.399 17.1668 99.9466 19.7999 98.5328 23.0296C97.0945 26.3152 96.1385 29.1837 95.6645 31.6351C95.2037 34.0753 95.1708 36.0444 95.5658 37.5423C95.9738 39.029 96.7594 40.0002 97.9224 40.4561C98.567 40.7087 99.2429 40.7771 99.9503 40.6613C100.671 40.5343 101.402 40.2231 102.144 39.7278C102.893 39.2352 103.636 38.5599 104.373 37.702C104.759 37.2582 105.135 36.7665 105.501 36.2268C106.106 35.3349 107.288 34.9232 108.318 35.3398C109.451 35.7983 109.95 37.0677 109.34 38.0813C108.59 39.3263 107.788 40.4844 106.934 41.5557C105.667 43.1558 104.341 44.4873 102.957 45.5499C101.579 46.5985 100.196 47.3014 98.8081 47.6582C97.4267 48.0015 96.0949 47.9216 94.8128 47.4193C92.9211 46.6777 91.6152 45.1421 90.8949 42.8122C90.1746 40.4827 90.1093 37.5003 90.6989 33.8657C91.2885 30.2312 92.5932 26.107 94.6128 21.4931C96.6386 16.8654 98.8015 13.0775 101.102 10.1297C103.408 7.16793 105.686 5.10427 107.936 3.93878C110.187 2.77329 112.251 2.55851 114.128 3.29445C115.326 3.76402 116.293 4.53619 117.03 5.61096C117.766 6.68573 118.252 8.03113 118.489 9.64719C118.731 11.2493 118.702 13.0886 118.4 15.1653C118.194 16.6396 117.836 18.2129 117.326 19.8851Z" fill="white"/>
<path d="M109.994 26.8768C110.496 25.7296 111.886 25.1848 113.099 25.66L113.215 25.7056C114.427 26.1808 115.003 27.4961 114.501 28.6433C113.999 29.7905 112.609 30.3353 111.396 29.8601L111.28 29.8145C110.068 29.3393 109.492 28.0241 109.994 26.8768Z" fill="white"/>
</g>
<defs>
<clipPath id="clip0_1168_10192">
<rect width="28.35" height="45" fill="white" transform="translate(90.3008 2.86719)"/>
</clipPath>
</defs>
</svg>
