<svg width="210" height="51" viewBox="0 0 210 51" fill="none" xmlns="http://www.w3.org/2000/svg">
<path d="M43.1691 38.6938L43.0508 37.7523C44.634 37.151 44.9118 36.3218 45.0298 34.6638C45.1477 33.4216 45.1477 31.7633 45.1477 30.4451V20.432C45.1477 19.1141 45.1477 17.4558 45.0298 16.2136C44.9118 14.5553 44.634 13.7293 43.0508 13.1248L43.1691 12.1836C44.7138 12.296 45.7797 12.296 46.7692 12.296H54.0499C55.6713 12.296 56.9 12.296 58.4418 12.1836C58.7195 14.1028 58.8758 15.4968 58.9973 17.5682L57.848 17.7565C57.3343 16.3624 56.8971 15.5728 56.3033 14.9683C55.7096 14.3642 54.7998 14.0635 54.0466 13.9512C53.0571 13.7993 52.1859 13.7629 50.6442 13.7629C48.7835 13.7629 48.5472 14.0635 48.4289 15.5697C48.3109 16.7359 48.3109 18.0936 48.3109 19.4481V24.2678C49.6579 24.2678 52.4284 24.1919 53.6924 24.0795C55.4733 23.8912 56.0288 23.2899 56.6226 21.5559L57.5735 21.7442C57.4556 23.2139 57.4556 24.04 57.4556 24.9815C57.4556 25.923 57.4556 26.7886 57.5735 28.2586L56.6226 28.4469C56.0288 26.7158 55.4733 26.1509 53.6924 25.923C52.4251 25.7711 49.6164 25.7347 48.3109 25.7347V30.8186C48.3109 32.1368 48.3907 34.1717 48.4289 34.9249C48.509 36.7713 49.1822 37.1086 50.9634 37.1086C52.7444 37.1086 54.0914 37.0719 55.1573 36.9203C56.5425 36.732 57.1745 36.2035 57.7683 35.4139C58.2438 34.6971 58.6398 33.9075 59.1535 32.5134L60.2227 32.7017C60.025 34.9613 59.709 36.808 59.2718 38.7638C56.3831 38.612 52.7826 38.5755 47.7139 38.5755C45.7735 38.5755 44.7072 38.5755 43.1625 38.6879L43.1691 38.6938Z" fill="white"/>
<path d="M65.5106 26.9103C66.0661 25.4798 66.1841 24.763 66.1841 24.3864C66.1841 24.1617 66.0661 24.0465 65.8681 24.0465C65.4724 24.0465 64.6806 24.6478 62.8614 26.6825L62.1082 26.0416C64.3646 22.9166 65.9861 21.4862 67.2916 21.4862C68.1216 21.4862 68.8748 22.203 68.8748 23.3328C68.8748 24.5383 68.2428 26.1935 67.6491 27.7394L65.0766 34.6669C64.6424 35.7967 64.5626 36.0974 64.5626 36.2493C64.5626 36.4376 64.7221 36.6259 64.9583 36.6259C65.3926 36.6259 66.1841 36.2128 68.1248 33.5766L68.9163 34.1051C66.8194 37.9832 64.9966 39.0371 63.6114 39.0371C62.7019 39.0371 61.9102 38.2839 61.9102 37.3062C61.9102 36.4407 62.1879 35.6115 63.1359 33.1636L65.5106 26.9134V26.9103ZM68.5588 11.1328C69.746 11.1328 70.6558 11.9984 70.6558 13.1282C70.6558 14.258 69.746 15.1236 68.5588 15.1236C67.3713 15.1236 66.4618 14.258 66.4618 13.1282C66.4618 11.9984 67.3713 11.1328 68.5588 11.1328Z" fill="white"/>
<path d="M83.4589 24.2378C84.4102 25.255 84.7644 26.5336 84.7644 27.9277C84.7644 31.6178 81.914 34.2538 78.4318 34.2538C76.6508 34.2538 75.3453 33.7648 74.1964 32.86C72.9706 33.7648 72.6929 34.6304 72.6929 35.496C72.6929 36.5894 73.6026 37.3031 75.3836 37.379L80.1712 37.5309C84.0112 37.6433 85.8686 39.827 85.8686 42.6513C85.8686 46.0407 82.345 49.0141 76.8456 49.0141C72.3736 49.0141 70.1172 47.131 70.1172 44.5707C70.1172 42.8 71.0266 41.4062 73.2834 39.9393C71.5821 39.3744 70.4332 38.1322 70.4332 36.3616C70.4332 34.8915 71.1449 33.3854 73.1654 31.9185C72.2556 30.7522 71.8184 29.5465 71.8184 27.9277C71.8184 24.3866 74.7869 21.6016 78.269 21.6016C80.564 21.6016 81.1578 22.3548 83.4142 22.3548C84.4037 22.3548 85.7889 22.3184 87.1741 22.2029L87.4901 22.8437L87.1741 24.2378H83.4524H83.4589ZM79.4628 40.3919C77.6818 40.3919 76.2581 40.3919 74.6336 40.2795C73.2484 41.5214 72.6929 42.7636 72.6929 43.933C72.6929 45.5518 74.1578 46.9094 77.4805 46.9094C82.0322 46.9094 83.6952 45.0628 83.6952 43.2952C83.6952 41.5277 82.428 40.3947 79.4595 40.3947L79.4628 40.3919ZM74.8728 27.6999C74.8728 31.0134 76.2198 32.7476 78.435 32.7476C80.4938 32.7476 81.761 31.4295 81.761 28.116C81.761 24.991 80.3755 23.108 78.1988 23.108C76.2581 23.108 74.8728 24.5385 74.8728 27.703V27.6999Z" fill="white"/>
<path d="M96.3299 31.4297C100.128 31.4297 103.02 34.1021 103.02 37.7194C103.02 38.0201 103.02 38.2843 102.94 38.585H90.7505C90.6708 39.0375 90.6707 39.4505 90.6707 40.0155C90.6707 43.8936 93.1252 46.5299 96.2917 46.5299C98.8259 46.5299 100.368 45.7007 101.989 43.4806L102.94 44.0455C101.753 46.8701 99.4164 49.2054 95.8956 49.2054C90.9485 49.2054 87.6641 45.2149 87.6641 40.6196C87.6641 35.3838 91.424 31.4325 96.3299 31.4325V31.4297ZM99.5343 37.0785C99.4961 34.5182 97.6736 33.1241 95.4584 33.1241C93.0455 33.1241 91.5008 34.8553 91.025 37.0785H99.5343Z" fill="white"/>
<path d="M119.516 41.4071C119.516 42.5733 119.516 43.8914 119.596 45.0608C119.714 46.6036 119.954 47.2081 121.416 47.7727L121.297 48.6383C119.912 48.5259 119.041 48.5259 118.131 48.5259C117.221 48.5259 116.35 48.5259 114.965 48.6383L114.847 47.7727C116.312 47.2081 116.51 46.6067 116.628 45.0608C116.746 43.8945 116.746 42.5764 116.746 41.4071V37.4165C116.746 35.3088 115.399 33.8752 113.302 33.8752C110.57 33.8752 108.869 35.6459 108.869 38.0543V41.4071C108.869 42.5733 108.869 43.8914 108.948 45.0608C109.066 46.6036 109.306 47.2081 110.767 47.7727L110.649 48.6383C109.264 48.5259 108.393 48.5259 107.483 48.5259C106.574 48.5259 105.702 48.5259 104.317 48.6383L104.199 47.7727C105.664 47.2081 105.862 46.6067 105.98 45.0608C106.098 43.8945 106.098 42.5764 106.098 41.4071V40.4658C106.098 39.2996 106.098 38.0938 105.98 36.9245C105.862 35.3816 105.466 35.0414 104.039 34.7775V33.9878C105.859 33.1587 106.848 32.5573 108.233 31.3516L109.063 31.6522C108.945 32.858 108.865 33.8752 108.827 34.8167L108.865 34.8531C109.934 32.9339 111.795 31.4275 114.17 31.4275C116.111 31.4275 117.732 32.2931 118.683 33.7628C119.197 34.6284 119.513 35.5699 119.513 37.0763V41.4071H119.516Z" fill="white"/>
<path d="M95.7484 20.5085C95.7484 21.8266 95.7867 23.8615 95.8667 24.6147C96.0645 26.4611 96.62 26.7982 98.4009 26.7982C100.182 26.7982 101.29 26.7982 102.439 26.6098C103.862 26.3456 104.615 25.7443 105.209 24.8787C105.723 24.1622 106.16 23.2966 106.674 21.8297L107.823 22.018C107.625 24.4292 107.268 26.3487 106.834 28.4565C103.706 28.3046 100.223 28.2682 95.158 28.2682C93.2175 28.2682 92.1513 28.2682 90.6066 28.3805L90.4883 27.439C92.0715 26.8377 92.3493 26.0085 92.4673 24.3505C92.5855 23.1083 92.5855 21.45 92.5855 20.1318V10.1156C92.5855 8.79774 92.5855 7.13943 92.4673 5.89724C92.3493 4.23892 92.0715 3.41286 90.4883 2.80871L90.6066 1.86719C92.1513 1.97955 93.2175 1.97955 94.1302 1.97955C95.1197 1.97955 96.1889 1.97955 97.7307 1.86719L97.8487 2.80871C96.2657 3.41004 95.988 4.23892 95.8697 5.89724C95.7517 7.13943 95.7517 8.79774 95.7517 10.1156V20.5085H95.7484Z" fill="white"/>
<path d="M110.824 13.9541C111.578 12.636 113.557 11.2422 115.89 11.2422C117.83 11.2422 119.334 11.883 120.282 13.2009C120.914 14.0665 121.469 15.5729 121.469 17.2676V20.8816C121.469 22.0478 121.469 23.1412 121.549 24.3074C121.629 25.5496 122.261 26.4912 123.528 27.0561L123.014 28.5625C120.282 28.4501 119.254 27.3203 118.896 25.6256H118.817C117.748 27.9216 116.008 28.8632 114.227 28.8632C111.693 28.8632 110.109 27.2808 110.109 25.2854C110.109 23.5147 111.061 22.4608 112.602 21.5196C114.067 20.6145 116.678 19.7125 118.695 19.2235V17.3769C118.695 16.2107 118.379 15.3055 117.866 14.665C117.272 13.9118 116.244 13.6111 115.373 13.6111C114.026 13.6111 112.918 14.1396 111.574 15.1539L110.821 13.9482L110.824 13.9541ZM118.698 20.5445C117.869 20.8087 117.154 21.1094 116.404 21.41C113.713 22.5035 112.921 23.6333 112.921 24.6476C112.921 25.662 113.515 26.5671 114.9 26.5671C116.522 26.5671 118.698 25.2126 118.698 22.6127V20.5416V20.5445Z" fill="white"/>
<path d="M131.089 24.6877L133.7 18.8502C134.769 16.4785 134.926 15.6129 134.926 14.8961C134.926 14.1065 134.727 13.5021 133.54 12.9007L133.7 12.0352C134.849 12.1475 135.519 12.1475 136.39 12.1475C137.262 12.1475 137.814 12.1475 138.963 12.0352L139.081 12.9007C138.369 13.5021 137.932 14.1824 137.182 15.6129C136.589 16.7428 136.113 17.8723 135.637 18.8898L128.631 33.9535C127.878 35.5723 127.128 36.7417 126.336 37.5313C125.663 38.1722 124.593 38.7371 123.329 38.7371C122.26 38.7371 121.469 38.0598 121.469 37.1547C121.469 36.3256 122.062 35.6119 122.972 35.6119C123.725 35.6119 124 35.8002 124.715 35.8002C125.545 35.8002 126.138 35.1988 126.732 33.9931L129.582 28.1195L125.663 18.8929C125.229 17.839 124.712 16.4449 124.08 15.0904C123.486 13.8485 123.208 13.5083 122.26 12.9069L122.42 12.0414C123.569 12.1173 124.756 12.1537 125.624 12.1537C126.493 12.1537 127.208 12.1173 128.357 12.0414L128.475 12.9069C127.603 13.2836 127.287 13.8121 127.287 14.4134C127.287 15.2787 127.447 15.9955 128.634 18.82L131.089 24.6936V24.6877Z" fill="white"/>
<path d="M147.482 11.168C151.28 11.168 154.168 13.8406 154.168 17.4577C154.168 17.7583 154.168 18.0226 154.088 18.3232H141.899C141.819 18.7758 141.819 19.1888 141.819 19.7537C141.819 23.6319 144.274 26.2682 147.44 26.2682C149.974 26.2682 151.516 25.439 153.138 23.2189L154.088 23.7838C152.901 26.6083 150.565 28.9437 147.044 28.9437C142.097 28.9437 138.812 24.9531 138.812 20.3582C138.812 15.1221 142.572 11.1711 147.478 11.1711L147.482 11.168ZM150.686 16.8168C150.648 14.2565 148.825 12.8627 146.61 12.8627C144.197 12.8627 142.652 14.5939 142.177 16.8168H150.686Z" fill="white"/>
<path d="M163.54 13.6936C161.679 13.6936 160.138 15.7649 160.138 19.3789V21.1495C160.138 22.3158 160.138 23.6339 160.218 24.803C160.336 26.3458 160.693 27.0262 162.433 27.5152L162.315 28.3808C160.93 28.2684 159.662 28.2684 158.753 28.2684C157.843 28.2684 156.972 28.2684 155.586 28.3808L155.468 27.5152C156.933 26.9503 157.131 26.3489 157.249 24.803C157.367 23.6367 157.367 22.3189 157.367 21.1495V20.208C157.367 19.0418 157.367 17.836 157.249 16.6669C157.131 15.1241 156.735 14.7839 155.309 14.5196V13.73C157.128 12.9009 158.118 12.2995 159.503 11.0938L160.333 11.3944C160.215 12.6002 160.135 14.1066 160.097 15.0481L160.135 15.0846C161.204 12.6002 163.023 11.1669 164.884 11.1669C166.506 11.1669 167.418 12.0322 167.418 13.0496C167.418 14.0671 166.825 14.3678 165.995 14.3678C164.967 14.3678 164.491 13.6905 163.54 13.6905V13.6936Z" fill="white"/>
</svg>
