<svg width="210" height="51" viewBox="0 0 210 51" fill="none" xmlns="http://www.w3.org/2000/svg">
<mask id="mask0_1168_10186" style="mask-type:luminance" maskUnits="userSpaceOnUse" x="26" y="7" width="159" height="38">
<path d="M184.458 7.86719H26.25V44.6572H184.458V7.86719Z" fill="white"/>
</mask>
<g mask="url(#mask0_1168_10186)">
<path fill-rule="evenodd" clip-rule="evenodd" d="M117.905 21.6909H119.253H119.257V14.75H124.509V20.427L123.161 25.0657H123.871C124.567 23.0732 125.643 21.6546 127.13 20.7927V22.3809L126.643 24.0526C127.11 23.4347 127.646 22.9047 128.263 22.4718C129.645 21.5027 131.357 21.0448 133.376 21.0448C134.777 21.0448 136.028 21.2289 137.109 21.6056C138.401 22.816 139.054 24.6152 139.054 26.9601V37.1848H133.839V29.8142C133.839 28.8137 133.566 28.1394 133.115 27.7097C132.938 27.5408 132.719 27.3958 132.45 27.2818C132.223 25.4982 131.027 24.5231 128.835 24.5231C126.103 24.5231 124.506 26.1478 124.506 28.8232V37.1848H119.257V35.5695C119.017 36.1541 118.696 36.6946 118.299 37.1848H117.905V29.8455H119.261V27.0667L119.257 27.0698H117.905V21.6909ZM108.321 20.4238V21.6909H117.162V24.589H105.704V30.9872C105.704 32.5429 106.555 33.3898 108.152 33.3898C108.226 33.3898 108.297 33.3881 108.367 33.385C108.437 33.769 108.584 34.0378 108.771 34.2209C109.028 34.4749 109.455 34.6537 110.135 34.6537C110.895 34.6537 111.322 34.4623 111.572 34.1958C111.835 33.9135 112.019 33.4305 112.019 32.6212V29.8455H117.162V30.8838C117.162 35.1838 113.97 37.8246 108.044 37.8246C104.768 37.8246 102.382 37.0907 100.903 35.7081C100.599 34.8926 100.448 33.9848 100.448 32.9977V27.073H99.1028V24.589H96.1345L96.1378 24.5953C96.7262 25.7902 97.029 27.1984 97.029 28.7918V30.1122H81.4183C81.4508 30.3223 81.494 30.5262 81.5396 30.7207C81.6877 31.3385 81.9083 31.8686 82.2338 32.2795C82.7441 32.9963 83.5686 33.4767 84.6641 33.7086C84.6829 33.7336 84.7008 33.758 84.7195 33.7818L84.7293 33.7943L84.739 33.8069C85.3144 34.6192 86.4783 35.1304 88.3259 35.1304C90.285 35.1304 91.4252 34.5063 91.9478 33.5591L92.1285 33.236H96.6456C95.24 36.0413 91.4879 37.8309 86.4572 37.8309C82.2989 37.8309 79.0954 36.7308 77.1778 34.7049C76.6675 33.5302 76.4062 32.1872 76.4062 30.73C76.4062 28.5972 77.0834 26.6339 78.1089 25.1472V25.1409L78.1195 25.1347C80.0916 22.4437 83.7371 21.048 88.1843 21.048C90.473 21.048 92.4793 21.3972 94.1502 22.0891C94.6158 22.4694 95.0268 22.8944 95.3816 23.3627V22.6967C95.822 22.9529 96.2314 23.2387 96.609 23.554C96.6489 23.5853 96.6847 23.6166 96.7205 23.6512V21.6909H100.445V19.3355L105.704 17.5012V20.4238H108.321ZM108.321 19.8185V16.588L106.341 17.2787V19.8185H108.321ZM78.1032 36.3007C80.0916 38.9482 83.755 40.3086 88.4341 40.3086C93.8425 40.3086 98.0749 38.2728 99.4202 34.8717C99.1167 34.371 98.8863 33.8244 98.7276 33.236H97.3415C95.8993 36.4947 91.7386 38.4362 86.4539 38.4362C83.0469 38.4362 80.1787 37.7149 78.1032 36.3007ZM97.5857 32.5899H98.586C98.5054 32.1241 98.4655 31.6353 98.4655 31.1252V25.2006H97.0778C97.4661 26.2764 97.663 27.4776 97.663 28.7886V30.7175H82.1907C82.3258 31.2162 82.5065 31.6114 82.7401 31.9093L82.7498 31.9219L82.7596 31.9344C83.0811 32.3888 83.5857 32.749 84.2922 32.9782C84.2482 32.8564 84.2075 32.7269 84.1709 32.5899H89.1235C89.4963 32.3432 89.7746 32.037 89.9684 31.6867L90.149 31.3636H97.8901L97.7192 32.1038C97.6809 32.2686 97.6362 32.4306 97.5857 32.5899ZM90.0921 32.5899H96.9215C96.9224 32.5879 96.9224 32.5858 96.9232 32.5837C96.9924 32.3861 97.0518 32.1822 97.1006 31.9752H90.5365C90.4136 32.1987 90.2646 32.4039 90.0921 32.5899ZM99.3893 33.236C99.4707 33.5116 99.57 33.7757 99.6864 34.0279C99.6913 34.0107 99.6953 33.9935 99.6986 33.9762L99.8695 33.236H99.3893ZM99.233 32.5899C99.1468 32.1287 99.1028 31.6391 99.1028 31.1221V27.2008C99.4609 28.2465 99.6432 29.4046 99.6432 30.661V32.5899H99.233ZM101.546 36.9685C101.915 37.5193 102.378 38.0105 102.937 38.4362C104.587 39.6939 107.075 40.3086 110.027 40.3086C112.979 40.3086 115.414 39.628 117.127 38.317C117.344 38.1517 117.548 37.977 117.739 37.7932H117.274V33.6971C116.83 34.7761 116.113 35.7044 115.144 36.4446C113.432 37.7556 111.084 38.4362 108.044 38.4362C105.35 38.4362 103.159 37.9535 101.546 36.9685ZM119.257 37.7932V39.6657H127.13V30.6955C127.13 29.4723 127.494 28.5628 128.092 27.9637C128.691 27.3678 129.592 27.004 130.822 27.004C131.178 27.004 131.495 27.0321 131.776 27.0844C131.664 26.5376 131.439 26.1305 131.132 25.8373C130.682 25.4076 129.956 25.1316 128.838 25.1316C127.605 25.1316 126.705 25.4954 126.11 26.0913C125.512 26.6904 125.146 27.5999 125.146 28.8232V37.7932H119.257ZM133.839 37.7932V39.6657H141.678V35.4908C141.187 35.0608 140.755 34.5866 140.386 34.0704C140.129 33.7065 139.896 33.3207 139.695 32.913V37.7932H133.839ZM142.514 36.1423C144.559 38.8137 148.385 40.3055 153.147 40.3055C157.892 40.3055 161.673 38.8246 163.721 36.1718C162.946 35.5263 162.384 34.746 162.064 33.8476C162.031 33.8979 161.995 33.9481 161.959 33.9984C161.941 34.0234 161.923 34.0484 161.906 34.0735C159.901 36.868 156.075 38.4331 151.163 38.4331C147.642 38.4331 144.66 37.6297 142.514 36.1423ZM164.57 36.7747C165.049 37.5171 165.728 38.1497 166.581 38.662C168.373 39.7378 170.914 40.2709 173.99 40.2709C177.899 40.2709 180.959 39.4932 182.636 37.8591C183.69 36.8868 184.206 35.6698 184.206 34.1111C184.206 32.5523 183.714 31.2695 182.553 30.2972C182.269 30.0592 181.949 29.8435 181.595 29.6482C182.026 30.4069 182.22 31.2801 182.22 32.2387C182.22 33.7661 181.704 35.0144 180.649 35.9867C178.972 37.6207 175.912 38.3986 172.004 38.3986C168.924 38.3986 166.386 37.8654 164.595 36.7896C164.586 36.7847 164.578 36.7797 164.57 36.7747ZM180.395 28.2868H184.453V27.578C184.453 25.5048 183.48 23.8425 181.679 22.7259C181.656 22.7118 181.634 22.6978 181.61 22.6839C182.173 23.5523 182.467 24.5669 182.467 25.7055V26.4144H176.234C176.282 26.4386 176.328 26.4637 176.37 26.4896C176.502 26.5681 176.612 26.6551 176.702 26.7518C178.262 27.0968 179.492 27.5905 180.395 28.2868ZM177 27.4517C177.892 27.6764 178.64 27.9527 179.256 28.2868H177.005V27.578C177.005 27.5348 177.003 27.4927 177 27.4517ZM171.54 26.6097C171.495 26.6939 171.47 26.7983 171.47 26.9318C171.47 27.051 171.492 27.1263 171.522 27.1796C171.552 27.2329 171.607 27.302 171.729 27.3803C171.995 27.5497 172.508 27.7222 173.442 27.854L177.491 28.3966H177.501C178.601 28.575 179.566 28.8087 180.398 29.112C181.217 29.9153 181.586 30.9445 181.586 32.2418C181.586 33.6312 181.126 34.7133 180.202 35.5601C178.713 37.0155 175.876 37.7932 172.008 37.7932C166.623 37.7932 163.188 36.1184 162.514 33.1106H162.521C162.442 32.7499 162.399 32.3673 162.399 31.9689V31.8686H163.059H165.458C165.407 32.3012 165.328 32.7222 165.22 33.1294H169.023C169.463 33.5904 170.209 33.8791 171.194 33.9859C171.236 34.3543 171.437 34.635 171.824 34.8544C172.297 35.121 173.053 35.2935 174.099 35.2935C174.783 35.2935 175.332 35.2433 175.752 35.1523C176.16 35.0646 176.39 34.9454 176.505 34.845C176.62 34.7101 176.689 34.5502 176.689 34.3463C176.689 34.108 176.62 33.9731 176.436 33.8445C176.209 33.6869 175.772 33.5265 174.965 33.4114C174.973 33.4043 174.981 33.3971 174.989 33.3898C175.202 33.1545 175.344 32.8503 175.344 32.477C175.344 31.6616 174.775 31.1566 172.931 30.9182L168.319 30.2753C165.959 29.9052 164.391 29.1556 163.52 28.0108C162.951 27.2612 162.679 26.3485 162.679 25.2633C162.679 25.119 162.682 24.981 162.695 24.8399C162.714 24.6093 162.749 24.3856 162.801 24.1689C163.208 24.5489 163.571 24.9612 163.889 25.4044C163.991 25.5424 164.087 25.6835 164.179 25.8247C164.406 24.9308 164.875 24.1373 165.588 23.4567C167.265 21.8572 170.359 21.0793 174.27 21.0793C176.612 21.0793 178.62 21.3911 180.224 22.0108C181.161 22.8549 181.704 23.9262 181.816 25.1975C181.832 25.3637 181.839 25.533 181.839 25.7055V25.8059H175.666V25.7055C175.666 24.3161 174.387 23.5383 172.047 23.5383C170.663 23.5383 169.667 23.7421 169.207 24.1812C168.957 24.4196 168.851 24.7238 168.851 25.0626C168.851 25.8435 169.454 26.3172 171.369 26.5869L171.54 26.6097ZM172.548 26.1311C172.941 26.0586 173.434 26.0192 174.024 26.0192C174.392 26.0192 174.724 26.0399 175.018 26.0779V25.7055C175.018 25.2257 174.815 24.8744 174.383 24.6172C173.917 24.3349 173.151 24.1467 172.037 24.1467C171.373 24.1467 170.831 24.1969 170.416 24.2879C169.992 24.382 169.759 24.5075 169.65 24.6109C169.545 24.7144 169.483 24.8524 169.483 25.0626C169.483 25.1818 169.506 25.257 169.535 25.3104C169.565 25.3637 169.62 25.4327 169.742 25.511C170.009 25.6804 170.518 25.853 171.455 25.9847L172.548 26.1311ZM162.262 23.7041C162.096 23.5717 161.923 23.4439 161.746 23.3208C161.8 23.3904 161.852 23.4608 161.903 23.532C162.005 23.67 162.1 23.808 162.192 23.9523C162.213 23.8687 162.237 23.786 162.262 23.7041ZM140.601 24.3606C141.045 25.1023 141.348 25.9529 141.517 26.9005C141.754 26.3735 142.04 25.8749 142.368 25.4075C144.374 22.6067 148.236 21.0448 153.147 21.0448C155.699 21.0448 157.958 21.4675 159.821 22.2657C160.434 22.7443 160.958 23.2855 161.387 23.8833C161.637 24.222 161.857 24.5827 162.047 24.9653C162.097 25.0657 162.146 25.1661 162.192 25.2696C162.593 26.1635 162.83 27.1514 162.892 28.2241C162.902 28.4091 162.909 28.5973 162.909 28.7886C162.909 29.6606 162.793 30.4886 162.577 31.2601L162.587 31.2664C162.53 31.464 162.468 31.6553 162.399 31.8435L162.386 31.8749C162.373 31.9062 162.36 31.9407 162.346 31.9752C162.205 32.339 162.04 32.6872 161.85 33.0227C161.708 33.2706 161.555 33.5058 161.387 33.7347C159.539 36.3066 155.957 37.8309 151.167 37.8309C146.378 37.8309 142.759 36.3066 140.915 33.7347C139.958 32.3798 139.389 30.6861 139.389 28.7918C139.389 27.1143 139.836 25.6213 140.601 24.3606ZM140.211 23.7839C140.014 23.5258 139.796 23.2838 139.558 23.0584C139.224 22.7423 138.854 22.4645 138.449 22.2242C138.986 23.0255 139.343 23.9666 139.531 25.0281C139.726 24.5921 139.954 24.1774 140.211 23.7839ZM127.13 20.0856V14.75H125.143V20.5085L124.657 22.1802C125.12 21.5624 125.659 21.0323 126.277 20.5995C126.549 20.4084 126.833 20.2372 127.13 20.0856ZM173.867 33.259C174.212 33.1722 174.413 33.0674 174.518 32.9758C174.633 32.8409 174.702 32.6809 174.702 32.477C174.702 32.2387 174.636 32.1038 174.453 31.9752C174.212 31.809 173.74 31.6364 172.845 31.5236H172.842L168.22 30.8775H168.214C166.199 30.5607 164.647 29.9647 163.596 29.0113H163.593C163.593 29.0113 163.559 28.9799 163.543 28.9674C163.53 29.7641 163.425 30.5324 163.234 31.2601H165.513C165.521 31.12 165.526 30.9788 165.53 30.8366V30.8398C165.53 30.8398 165.562 30.8712 165.579 30.8837C165.725 31.0159 165.881 31.1413 166.047 31.2601H169.2V31.9689C169.2 32.2124 169.261 32.4207 169.388 32.6002C169.649 32.6546 169.919 32.7034 170.197 32.7467H170.204L173.867 33.259ZM170.143 33.1294C170.425 33.2397 170.772 33.3236 171.186 33.3731V33.1294H170.143ZM168.623 32.4172C168.588 32.2766 168.569 32.1272 168.569 31.9689V31.8686H167.097C167.558 32.0835 168.067 32.2656 168.623 32.4172ZM117.274 27.0698H108.324V32.7808C108.268 32.7832 108.21 32.7844 108.149 32.7844C107.465 32.7844 107.041 32.6056 106.784 32.3516C106.525 32.0944 106.338 31.6678 106.338 30.9904V25.2006L106.341 25.1975H117.274V27.0698ZM146.089 28.7855C146.089 29.8675 146.374 30.7834 146.871 31.5267C147.428 32.29 148.302 32.8481 149.433 33.1249C150.114 33.9971 151.36 34.5871 153.147 34.5878C153.146 34.5878 153.144 34.5878 153.144 34.5878H153.15C153.149 34.5878 153.148 34.5878 153.147 34.5878C154.979 34.587 156.211 33.9694 156.878 33.0572C157.328 32.4268 157.581 31.6114 157.581 30.661C157.581 29.7107 157.325 28.8921 156.884 28.3055V28.2993C156.675 28.0124 156.412 27.7547 156.09 27.5362C155.957 26.9883 155.731 26.4936 155.42 26.0787C154.605 24.9622 153.149 24.2847 151.163 24.2847C149.178 24.2847 147.686 24.9622 146.871 26.0787C146.371 26.7876 146.089 27.7035 146.089 28.7855ZM155.296 27.1237C155.191 26.8682 155.059 26.6368 154.904 26.4301V26.4238C154.238 25.5079 153.005 24.8901 151.17 24.8901C149.336 24.8901 148.071 25.511 147.403 26.4175C146.989 27.0134 146.733 27.8352 146.733 28.7824C146.733 29.7295 146.986 30.5513 147.406 31.188H147.4C147.764 31.6825 148.305 32.0912 149.02 32.3605C148.823 31.8667 148.713 31.3006 148.713 30.6579C148.713 29.6856 148.969 28.8858 149.383 28.293C150.051 27.3835 151.313 26.7656 153.15 26.7656C153.992 26.7656 154.706 26.8953 155.296 27.1237ZM81.5135 26.9224C81.5632 26.7092 81.6152 26.5053 81.6812 26.314H81.6844C81.813 25.9313 81.9774 25.5926 82.1907 25.2978C82.9696 24.2126 84.4224 23.6732 86.2342 23.6387C88.7849 23.6387 90.2475 24.5953 90.6187 26.314C90.639 26.4066 90.6569 26.5006 90.6708 26.5967C90.8189 26.6727 90.9532 26.7565 91.0736 26.8472C91.5042 27.1702 91.8037 27.6093 91.9543 28.1895H84.3451H84.3418C84.4436 27.9323 84.5616 27.7097 84.6999 27.5183C84.8611 27.2951 85.0621 27.0958 85.3014 26.9224H81.5135ZM89.9138 26.314C89.4466 26.191 88.8875 26.1226 88.2274 26.1226C87.652 26.1343 87.1335 26.1996 86.6753 26.314H82.3551C82.4536 26.0568 82.5757 25.8341 82.7132 25.6428C83.3277 24.7866 84.538 24.2784 86.2407 24.2471C87.5714 24.2471 88.4952 24.5294 89.0869 24.9716C89.5174 25.2947 89.817 25.7338 89.9684 26.314H89.9651H89.9138Z" fill="white"/>
<path fill-rule="evenodd" clip-rule="evenodd" d="M117.914 13.4844V37.1799H124.514V28.8183C124.514 26.1429 126.112 24.5182 128.843 24.5182C131.292 24.5182 132.499 25.7384 132.499 27.937V37.1799H139.063V26.9584C139.063 22.2851 136.472 19.7823 131.401 19.7823C127.568 19.7823 125.122 21.5073 123.879 25.064H123.17L124.518 20.4253V13.4844H117.917H117.914ZM151.169 37.8229C146.38 37.8229 142.76 36.2986 140.917 33.7267C139.957 32.3718 139.392 30.6813 139.392 28.7838C139.392 26.8862 139.96 25.2302 140.917 23.8753C142.76 21.3034 146.38 19.7791 151.169 19.7791C155.959 19.7791 159.542 21.3034 161.385 23.8753C162.378 25.2302 162.91 26.8893 162.91 28.7838C162.91 30.6782 162.378 32.3718 161.385 33.7267C159.542 36.2986 155.922 37.8229 151.169 37.8229ZM146.097 28.7838C146.097 29.8658 146.38 30.7816 146.88 31.525C147.694 32.6416 149.184 33.319 151.172 33.319C153.161 33.319 154.614 32.6416 155.429 31.525C155.962 30.7816 156.244 29.8658 156.244 28.7838C156.244 27.7017 155.962 26.7859 155.429 26.077C154.614 24.9605 153.158 24.283 151.172 24.283C149.187 24.283 147.694 24.9605 146.88 26.077C146.383 26.789 146.097 27.7362 146.097 28.7838ZM172.009 37.7884C165.977 37.7884 162.394 35.6901 162.394 31.9672V31.8669H168.568V31.9672C168.568 33.3221 169.916 34.031 172.115 34.031C173.534 34.031 174.527 33.8271 174.987 33.3881C175.201 33.1496 175.343 32.8454 175.343 32.4753C175.343 31.663 174.774 31.1549 172.929 30.9196L168.318 30.2767C164.416 29.6682 162.678 28.009 162.678 25.2679C162.678 23.9819 163.137 22.8967 164.061 22.0185C165.55 20.5978 168.426 19.8168 172.292 19.8168C178.396 19.8168 181.838 21.9841 181.838 25.707V25.8073H175.664V25.707C175.664 24.3175 174.386 23.5397 172.046 23.5397C170.662 23.5397 169.669 23.7436 169.205 24.1827C168.959 24.421 168.85 24.7253 168.85 25.064C168.85 25.8418 169.452 26.3154 171.368 26.5883L175.411 27.1309C179.809 27.8428 181.585 29.3985 181.585 32.2432C181.585 33.6327 181.125 34.7147 180.201 35.5615C178.711 37.0168 175.872 37.7947 172.006 37.7947L172.009 37.7884ZM108.049 37.8229C102.122 37.8229 99.1083 35.4204 99.1083 31.1204V24.5873H96.1367C96.7252 25.7853 97.0271 27.1905 97.0271 28.7838V30.1042H81.4172C81.5588 30.9855 81.8079 31.7288 82.2319 32.2715C82.9783 33.3221 84.3953 33.8616 86.3479 33.8616C88.4412 33.8616 89.8615 33.1841 90.5354 31.9672H97.0996C96.2848 35.4894 92.2023 37.8229 86.4561 37.8229C81.8445 37.8229 78.4025 36.4679 76.5916 33.9965C75.5989 32.6416 75.0664 30.8821 75.0664 28.8496C75.0664 26.8173 75.7041 24.9919 76.664 23.6024C78.4717 21.131 81.8803 19.776 86.2063 19.776C90.5322 19.776 93.6217 21.0368 95.3806 23.3547V20.419H99.105V17.8785L105.702 15.5764V20.4158H117.161V24.581H105.702V30.9793C105.702 32.5381 106.553 33.3818 108.151 33.3818C109.89 33.3818 110.669 32.5004 110.669 30.7409V28.5736H117.161V30.8758C117.161 35.1758 113.755 37.8166 108.043 37.8166L108.049 37.8229ZM90.7128 26.9207H81.5222C81.6638 26.2778 81.8771 25.7352 82.1961 25.2961C82.975 24.214 84.4311 23.6714 86.2396 23.637C89.0761 23.637 90.568 24.8225 90.7096 26.9207H90.7128Z" fill="white"/>
<mask id="mask1_1168_10186" style="mask-type:luminance" maskUnits="userSpaceOnUse" x="26" y="8" width="39" height="37">
<path d="M64.3972 8.18359H26.2539V44.3871H64.3972V8.18359Z" fill="white"/>
</mask>
<g mask="url(#mask1_1168_10186)">
<path d="M26.2773 24.649L27.3917 24.1001C27.4673 21.3181 28.3023 18.8749 29.8768 17.1875C29.2884 17.5796 28.769 18.0563 28.3187 18.6083C27.0761 20.1452 26.3826 22.2528 26.2773 24.649Z" fill="white"/>
<path d="M31.579 38.6337C34.6754 42.1998 38.5706 44.2918 42.0056 44.2918C42.3836 44.2918 42.7584 44.2667 43.1265 44.2134C43.6689 44.1381 44.1915 44.0001 44.6977 43.8088C42.4986 44.113 40.0826 43.5202 37.7686 42.2155C35.3065 40.8261 32.9497 38.6212 31.0761 35.811C30.7078 35.2621 30.3594 34.6913 30.034 34.0953C29.6198 33.3364 29.2517 32.5742 28.9394 31.8089C28.4234 30.5794 28.0421 29.3468 27.7889 28.1424C27.5161 26.8659 27.3879 25.6176 27.3945 24.4258L26.2638 24.9841C26.2638 25.0939 26.2539 25.1973 26.2539 25.3071C26.2539 26.6025 26.4215 27.973 26.7601 29.375C26.9277 30.0776 27.1414 30.7896 27.401 31.5015C27.7823 32.5742 28.2656 33.6468 28.8507 34.7101C29.6494 36.1559 30.5698 37.4733 31.579 38.6306V38.6337Z" fill="white"/>
<path d="M63.1194 32.8157C62.1333 34.1988 60.6409 35.4346 58.7772 36.4539C56.2461 37.8371 53.0281 38.8282 49.4287 39.2547C48.9454 40.6097 48.2092 41.7826 47.2231 42.6891C46.914 42.9745 46.5591 43.2097 46.1778 43.3916C45.9575 43.5359 45.7307 43.6708 45.4907 43.7931C45.0207 44.0252 44.5342 44.2008 44.0312 44.3294C44.4915 44.3608 44.955 44.3859 45.425 44.3859C53.4883 44.3859 60.3747 39.584 63.1194 32.8125V32.8157Z" fill="white"/>
<path d="M64.2383 28.6328C63.5513 30.3202 62.151 31.8477 60.2346 33.1179C57.6345 34.8398 54.0811 36.0943 50.0282 36.6463C49.9362 37.4525 49.7685 38.224 49.5352 38.9454C53.0392 38.5125 56.1717 37.5402 58.624 36.1979C61.1287 34.8304 62.9234 33.0771 63.7057 31.1388C63.9424 30.3265 64.1199 29.4891 64.2383 28.6328Z" fill="white"/>
<path d="M64.3975 26.2835C64.3975 26.0044 64.3876 25.7252 64.3745 25.4492C63.8978 27.4189 62.4712 29.2066 60.3774 30.6714C57.8068 32.4686 54.2239 33.7858 50.1151 34.3629C50.1446 35.0404 50.1249 35.7021 50.0625 36.342C54.0431 35.7931 57.5275 34.5543 60.0585 32.8763C62.6323 31.17 64.2166 29.0247 64.3909 26.6944C64.3941 26.5564 64.3975 26.4184 64.3975 26.2835Z" fill="white"/>
<path d="M28.6797 17.7767C29.2056 17.2655 29.8039 16.8295 30.4778 16.4908C30.6388 16.4092 30.9314 16.2681 31.1943 16.1521C31.5691 15.9545 31.9701 15.8102 32.3908 15.7255C32.0851 15.1014 31.9076 14.3172 31.8649 13.6367C30.6092 14.8599 29.5344 16.2524 28.6797 17.7767Z" fill="white"/>
<path d="M54.9887 18.9044C52.5266 20.3283 49.1442 21.2034 45.4101 21.2034C45.1176 21.2034 44.8283 21.1971 44.5391 21.1846C45.6303 22.414 46.6297 23.8129 47.4843 25.3622C49.0916 28.2822 49.9463 31.3026 50.0975 34.0689C54.1538 33.4949 57.6808 32.1933 60.1954 30.4338C62.7429 28.6492 64.2418 26.4129 64.2418 23.9979C63.7159 19.9864 61.8028 16.3796 58.9825 13.6289C58.9102 14.6075 58.5355 15.539 57.9142 16.389C57.2206 17.3393 56.218 18.1893 54.9887 18.9012V18.9044Z" fill="white"/>
<path d="M45.0357 36.7612C44.6412 37.9938 43.8622 38.7904 42.83 39.1072C42.498 39.2107 42.1365 39.264 41.7486 39.264C40.9958 39.264 40.1478 39.0601 39.2438 38.621C39.1058 38.5552 38.971 38.4862 38.8362 38.4109C37.4228 37.633 36.108 36.4161 35.0265 34.9828C34.3231 34.0513 33.7182 33.0257 33.258 31.9687C32.6598 30.617 32.2917 29.215 32.2227 27.8945C35.8812 32.251 40.3089 34.3555 45.3052 34.6786C45.2954 35.378 45.1968 36.253 45.0357 36.758V36.7612Z" fill="white"/>
<path d="M41.2063 24.2124C41.328 23.9301 41.4627 23.7482 41.5909 23.6604C41.6534 23.6196 41.7126 23.6008 41.7684 23.5977C41.8243 23.5977 41.8901 23.6102 41.9624 23.651C42.1169 23.7357 42.2813 23.9207 42.4423 24.2061C42.6001 24.4884 42.748 24.8522 42.8696 25.2756C43.1162 26.1256 43.2707 27.1983 43.2707 28.296C43.2707 29.3937 43.1162 30.2876 42.8762 30.849C42.7546 31.1313 42.6198 31.3132 42.4883 31.401C42.4259 31.4418 42.3667 31.4638 42.3108 31.4638C42.255 31.4638 42.1892 31.4512 42.1169 31.4104C41.9624 31.3258 41.7981 31.1407 41.637 30.8553C41.4792 30.573 41.3345 30.2092 41.2097 29.7826C40.9632 28.9327 40.8086 27.86 40.8086 26.7654C40.8086 25.6709 40.9632 24.7707 41.2031 24.2092L41.2063 24.2124Z" fill="white"/>
<path d="M34.6099 20.5834C34.7316 20.3012 34.8663 20.1193 34.9978 20.0314C35.0602 19.9906 35.1194 19.9688 35.1753 19.9688C35.2312 19.9688 35.2969 19.9813 35.3693 20.022C35.5238 20.1067 35.6881 20.2917 35.8492 20.5772C36.007 20.8594 36.1516 21.2233 36.2765 21.6498C36.523 22.4998 36.6775 23.5756 36.6775 24.6671C36.6775 25.7585 36.523 26.6586 36.2831 27.2232C36.1615 27.5055 36.0267 27.6874 35.8985 27.7752C35.836 27.816 35.7769 27.8348 35.721 27.838C35.6651 27.838 35.5994 27.8254 35.527 27.7846C35.3725 27.7 35.2082 27.5149 35.0471 27.2295C34.8893 26.9472 34.7414 26.5834 34.6198 26.16C34.3732 25.31 34.2188 24.2374 34.2188 23.1397C34.2188 22.0419 34.3732 21.148 34.6133 20.5866L34.6099 20.5834Z" fill="white"/>
<path d="M45.4236 8.18359C40.2563 8.18359 35.5755 10.1564 32.1602 13.3524C32.1602 14.0675 32.3574 15.0053 32.7025 15.6671C36.4334 15.0962 40.7986 17.1255 44.2633 20.8735C44.638 20.8954 45.0225 20.9048 45.4105 20.9048C48.1749 20.9048 50.7388 20.4187 52.8622 19.5876C54.9857 18.7564 56.6655 17.5834 57.6614 16.2191C58.3122 15.3283 58.6705 14.3623 58.687 13.3462C55.2651 10.1533 50.5909 8.18359 45.4236 8.18359ZM55.6694 13.7068C55.3604 14.0016 54.5518 13.7068 53.8648 13.0545C53.1778 12.399 52.8721 11.6274 53.1811 11.3325C53.4901 11.0377 54.2987 11.3325 54.9857 11.985C55.6727 12.6405 55.9784 13.412 55.6694 13.7068Z" fill="white"/>
</g>
</g>
</svg>
