<svg width="210" height="51" viewBox="0 0 210 51" fill="none" xmlns="http://www.w3.org/2000/svg">
<path d="M55.4533 7.86719H46.582V16.617V25.3668V34.1166H55.4533V25.3668V16.617H64.3246V7.86719H55.4533Z" fill="white"/>
<path d="M73.1955 16.6172V25.367V34.1168H64.3242V42.8674H73.1955H82.0676V34.1168V25.367V16.6172H73.1955Z" fill="white"/>
<path d="M73.1956 25.367C73.1956 25.367 64.3244 25.2398 64.3244 16.6172C64.3244 25.2406 55.4531 25.367 55.4531 25.367C55.4531 25.367 64.3244 25.4941 64.3244 34.1168C64.3244 25.4941 73.1956 25.367 73.1956 25.367Z" fill="white"/>
<path d="M94.2996 34.0371L94.2189 34.1429H90.0807L90 34.0371C90.376 33.9312 90.6671 33.768 90.8734 33.5465C91.0789 33.3258 91.2228 32.9722 91.3034 32.4865C91.3841 32.0008 91.4241 31.3157 91.4241 30.4321V20.3615C91.4241 19.4779 91.3833 18.7936 91.3034 18.308C91.2228 17.8223 91.0789 17.4646 90.8734 17.2348C90.6671 17.0051 90.376 16.8468 90 16.7582L90.0807 16.6523H99.0559L99.8886 20.4952L99.7538 20.5748C99.4136 19.7445 99.0326 19.0685 98.6117 18.5475C98.1908 18.0266 97.6801 17.6377 97.0804 17.3817C96.4798 17.1257 95.732 16.9977 94.837 16.9977H92.8756V25.293H94.7837C95.5898 25.293 96.2211 25.1207 96.6778 24.7762C97.1344 24.4316 97.4796 23.8704 97.7126 23.0935L97.8199 23.1731V27.7313L97.7126 27.8372C97.4796 27.0602 97.1486 26.499 96.7185 26.1545C96.2885 25.8099 95.6438 25.6376 94.7837 25.6376H92.8756V30.4346C92.8756 31.3182 92.9155 32.0033 92.9962 32.4889C93.0769 32.9746 93.2199 33.3282 93.4262 33.5489C93.6317 33.768 93.9237 33.9312 94.2996 34.0371Z" fill="white"/>
<path d="M105.22 24.867C105.22 24.0015 105.009 23.3033 104.588 22.7733C104.167 22.2433 103.589 21.9783 102.855 21.9783C102.389 21.9783 101.896 22.1112 101.377 22.3762C100.857 22.6412 100.427 23.1006 100.086 23.7545L99.9791 23.7012C100.122 23.1712 100.359 22.7167 100.691 22.336C101.022 21.9562 101.421 21.6649 101.887 21.4614C102.353 21.2588 102.855 21.1562 103.392 21.1562C103.983 21.1562 104.512 21.2851 104.977 21.5402C105.443 21.797 105.814 22.1859 106.093 22.706C106.371 23.227 106.51 23.8768 106.51 24.6537V32.3394C106.51 32.8161 106.617 33.1697 106.832 33.3994C107.047 33.6291 107.316 33.744 107.638 33.744C107.817 33.744 108.001 33.7136 108.189 33.6513C108.377 33.5897 108.569 33.497 108.767 33.3731L108.848 33.4527C108.597 33.7883 108.306 34.0533 107.975 34.2477C107.643 34.4422 107.298 34.539 106.94 34.539C106.51 34.539 106.12 34.3798 105.771 34.0615C105.422 33.7432 105.247 33.2312 105.247 32.5248H105.193C104.78 33.232 104.324 33.744 103.823 34.0615C103.321 34.3798 102.775 34.539 102.183 34.539C101.449 34.539 100.782 34.269 100.181 33.7308C99.5807 33.1918 99.2812 32.419 99.2812 31.4115C99.2812 30.7051 99.4293 30.1128 99.7246 29.6361C100.02 29.1595 100.383 28.7706 100.813 28.4703C101.243 28.17 101.659 27.9452 102.062 27.7943C102.465 27.6441 102.774 27.5342 102.989 27.4628C103.633 27.2512 104.166 27.0214 104.587 26.7737C105.008 26.5267 105.219 26.2617 105.219 25.9787V24.867H105.22ZM105.22 26.9082C104.968 27.0321 104.7 27.1511 104.414 27.2659C104.127 27.3808 103.884 27.4735 103.688 27.5441C102.542 27.9854 101.758 28.5376 101.337 29.2005C100.916 29.8634 100.705 30.5304 100.705 31.2015C100.705 31.9087 100.889 32.4781 101.256 32.9104C101.623 33.3436 102.111 33.5602 102.721 33.5602C103.079 33.5602 103.491 33.4503 103.957 33.2288C104.423 33.0081 104.844 32.606 105.22 32.0227V26.9082Z" fill="white"/>
<path d="M111.816 21.2637V30.9635C111.816 31.9882 111.91 32.7258 112.098 33.1762C112.286 33.6266 112.613 33.9137 113.079 34.0376L112.998 34.1435H109.344L109.264 34.0376C109.729 33.9146 110.056 33.6266 110.244 33.1762C110.432 32.7258 110.526 31.9882 110.526 30.9635V25.0532C110.526 24.0638 110.423 23.3393 110.218 22.8799C110.011 22.4204 109.658 22.1202 109.156 21.9791L109.237 21.8732L111.736 21.1841L111.816 21.2637ZM111.064 19.302C110.849 19.302 110.651 19.2487 110.472 19.1429C110.293 19.037 110.149 18.8959 110.042 18.7187C109.935 18.5423 109.881 18.3479 109.881 18.1354C109.881 17.9237 109.935 17.7293 110.042 17.5521C110.149 17.3757 110.293 17.2337 110.472 17.1279C110.651 17.0221 110.848 16.9688 111.064 16.9688C111.278 16.9688 111.475 17.0213 111.655 17.1279C111.834 17.2337 111.978 17.3757 112.085 17.5521C112.192 17.7293 112.246 17.9229 112.246 18.1354C112.246 18.3471 112.192 18.5423 112.085 18.7187C111.978 18.8959 111.834 19.037 111.655 19.1429C111.475 19.2495 111.278 19.302 111.064 19.302Z" fill="white"/>
<path d="M116.398 30.9623C116.398 31.987 116.492 32.7245 116.68 33.1749C116.868 33.6253 117.195 33.9125 117.661 34.0364L117.58 34.1422H113.926L113.846 34.0364C114.311 33.9133 114.638 33.6253 114.826 33.1749C115.014 32.7245 115.108 31.987 115.108 30.9623V25.0519C115.108 24.0625 115.005 23.3381 114.8 22.8786C114.593 22.4192 114.24 22.1189 113.738 21.9778L113.819 21.872L116.318 21.1828L116.398 21.2624V23.5678V23.7532V30.9623ZM120.51 21.2624L120.161 22.7466L120.107 22.7991C119.874 22.6579 119.637 22.5521 119.395 22.4807C119.153 22.4102 118.906 22.3749 118.656 22.3749C118.173 22.3749 117.724 22.5168 117.313 22.7991C116.9 23.0821 116.578 23.5063 116.345 24.0715L115.727 23.5678H116.426C116.605 22.9139 116.9 22.3798 117.313 21.9647C117.724 21.5496 118.208 21.2755 118.763 21.1426C119.318 21.0105 119.901 21.0499 120.51 21.2624Z" fill="white"/>
<path d="M122.926 16.36V22.8536C123.284 22.3064 123.709 21.8864 124.202 21.5951C124.694 21.3039 125.218 21.1578 125.774 21.1578C126.597 21.1578 127.328 21.445 127.964 22.0193C128.6 22.5936 129.101 23.3754 129.469 24.3649C129.836 25.3543 130.019 26.4848 130.019 27.7573C130.019 29.0651 129.826 30.2309 129.441 31.2556C129.056 32.2803 128.523 33.0843 127.843 33.6676C127.161 34.2509 126.383 34.5422 125.505 34.5422C125.093 34.5422 124.677 34.4626 124.256 34.3034C123.835 34.1443 123.364 33.8973 122.845 33.5618L121.744 34.5422H121.636V20.1504C121.636 19.1609 121.533 18.4365 121.327 17.9771C121.121 17.5176 120.767 17.2174 120.266 17.0762L120.346 16.9704L122.845 16.2812L122.926 16.36ZM125.371 34.1435C126.106 34.1435 126.705 33.8653 127.171 33.3083C127.637 32.752 127.981 32.0358 128.206 31.1612C128.43 30.2867 128.542 29.3637 128.542 28.3915C128.542 27.3487 128.412 26.3462 128.153 25.383C127.893 24.4198 127.508 23.6298 126.997 23.0112C126.487 22.3926 125.855 22.0833 125.103 22.0833C124.745 22.0833 124.382 22.1801 124.015 22.3745C123.648 22.569 123.285 22.8602 122.927 23.2491V30.9611C122.927 31.8619 123.16 32.6175 123.626 33.2271C124.09 33.8391 124.673 34.1435 125.371 34.1435Z" fill="white"/>
<path d="M133.047 16.36V30.9635C133.047 31.9882 133.141 32.7258 133.329 33.1762C133.517 33.6266 133.844 33.9137 134.31 34.0376L134.229 34.1435H130.575L130.494 34.0376C130.96 33.9146 131.287 33.6266 131.475 33.1762C131.663 32.7258 131.757 31.9882 131.757 30.9635V20.1504C131.757 19.1609 131.654 18.4365 131.448 17.9771C131.242 17.5176 130.888 17.2174 130.387 17.0762L130.467 16.9704L132.966 16.2812L133.047 16.36Z" fill="white"/>
<path d="M139.321 34.5398C138.39 34.5398 137.579 34.2658 136.889 33.7185C136.2 33.1713 135.667 32.3936 135.291 31.3861C134.915 30.3786 134.727 29.2038 134.727 27.8616C134.727 26.5013 134.915 25.3174 135.291 24.3099C135.667 23.3025 136.2 22.5255 136.889 21.9775C137.579 21.4303 138.39 21.1562 139.321 21.1562C140.253 21.1562 141.063 21.4303 141.754 21.9775C142.443 22.5255 142.976 23.3025 143.352 24.3099C143.728 25.3174 143.916 26.5013 143.916 27.8616C143.916 29.2226 143.728 30.4016 143.352 31.4C142.976 32.3985 142.443 33.1713 141.754 33.7194C141.064 34.2658 140.253 34.5398 139.321 34.5398ZM142.358 27.9936C142.358 26.6687 142.229 25.525 141.969 24.5618C141.71 23.5986 141.346 22.857 140.881 22.3352C140.415 21.8142 139.86 21.5533 139.215 21.5533C138.606 21.5533 138.082 21.8011 137.643 22.2958C137.204 22.7905 136.868 23.4977 136.636 24.4158C136.403 25.3347 136.286 26.4299 136.286 27.7024C136.286 29.0101 136.416 30.1497 136.675 31.1211C136.935 32.0933 137.303 32.8399 137.777 33.3608C138.251 33.8818 138.82 34.1427 139.483 34.1427C140.074 34.1427 140.584 33.8958 141.014 33.4002C141.444 32.9055 141.775 32.1991 142.008 31.2802C142.241 30.3614 142.358 29.2653 142.358 27.9936Z" fill="white"/>
<path d="M153.209 31.679C153.048 32.2623 152.806 32.7652 152.484 33.1894C152.161 33.6135 151.772 33.945 151.315 34.1829C150.859 34.4216 150.343 34.5406 149.77 34.5406C148.82 34.5406 147.983 34.2354 147.258 33.6258C146.532 33.0163 145.963 32.186 145.552 31.1342C145.139 30.0833 144.934 28.9035 144.934 27.5966C144.934 26.2888 145.126 25.1542 145.512 24.191C145.897 23.2278 146.438 22.4812 147.137 21.9512C147.836 21.4212 148.651 21.1562 149.583 21.1562C149.833 21.1562 150.129 21.1743 150.469 21.2096C150.81 21.2449 151.176 21.3072 151.571 21.395L152.35 21.5542L152.78 24.4691L152.646 24.5224C152.216 23.533 151.75 22.7913 151.249 22.2966C150.747 21.8019 150.183 21.5542 149.556 21.5542C148.929 21.5542 148.378 21.7929 147.903 22.2696C147.428 22.7462 147.061 23.405 146.802 24.2443C146.542 25.0836 146.413 26.0509 146.413 27.1461C146.413 28.065 146.507 28.9224 146.695 29.7173C146.883 30.5123 147.151 31.1974 147.501 31.7709C147.85 32.3452 148.258 32.7956 148.723 33.1229C149.189 33.4503 149.7 33.6135 150.255 33.6135C150.846 33.6135 151.388 33.4322 151.88 33.0704C152.372 32.7086 152.762 32.227 153.049 31.6256L153.209 31.679Z" fill="white"/>
<path d="M153.396 34.0376C153.862 33.9146 154.189 33.6266 154.377 33.1762C154.565 32.7258 154.659 31.9882 154.659 30.9635V20.1504C154.659 19.1609 154.556 18.4365 154.35 17.9771C154.144 17.5176 153.791 17.2174 153.289 17.0762L153.37 16.9704L155.868 16.2812L155.949 16.3608V30.9643C155.949 31.989 156.043 32.7266 156.231 33.177C156.419 33.6274 156.746 33.9146 157.212 34.0385L157.131 34.1443H153.477L153.396 34.0376ZM159.818 34.0376C160.122 33.8965 160.288 33.689 160.315 33.4149C160.342 33.1409 160.23 32.8365 159.979 32.501L155.976 27.0682L159.254 23.702C159.451 23.5075 159.594 23.318 159.684 23.1318C159.774 22.9464 159.819 22.765 159.819 22.5887C159.819 22.3417 159.733 22.1341 159.563 21.966C159.393 21.7986 159.156 21.6969 158.851 21.6608L158.932 21.5549H163.097L163.178 21.6608C162.586 21.7313 162.094 21.8593 161.699 22.0447C161.305 22.2301 160.911 22.5263 160.517 22.9324L157.132 26.4044L161.244 31.9964C161.566 32.4206 161.843 32.7742 162.076 33.0564C162.309 33.3395 162.546 33.556 162.788 33.7054C163.03 33.8555 163.294 33.9663 163.581 34.0368L163.5 34.1426H159.899L159.818 34.0376Z" fill="white"/>
</svg>
