<svg width="210" height="51" viewBox="0 0 210 51" fill="none" xmlns="http://www.w3.org/2000/svg">
<path d="M50.4415 6.86719H58.3752C59.4576 6.86719 60.426 7.46577 60.8038 8.36838L67.7676 25.0034C67.8213 25.1317 67.822 25.2728 67.7694 25.4016L67.7304 25.4971L67.73 25.4981L60.7955 42.4798C60.4232 43.3915 59.4497 43.9984 58.3597 43.9984H50.4272C49.9811 43.9984 49.6684 43.6066 49.8155 43.2318L56.9658 25.0034L49.833 7.64174C49.6784 7.26555 49.9914 6.86719 50.4415 6.86719Z" fill="white"/>
<path d="M29.7314 6.86719H37.6651C38.7475 6.86719 39.7159 7.46577 40.0937 8.36838L47.0575 25.0034C47.1112 25.1317 47.1118 25.2728 47.0593 25.4016L47.0202 25.4971L47.0199 25.4981L40.0854 42.4798C39.7131 43.3915 38.7396 43.9984 37.6496 43.9984H29.7171C29.271 43.9984 28.9584 43.6066 29.1054 43.2318L36.2557 25.0034L29.1229 7.64174C28.9683 7.26555 29.2813 6.86719 29.7314 6.86719Z" fill="white"/>
<path d="M55.8251 21.4575H44.6253V29.5047H55.8251L57.6551 25.3661L55.8251 21.4575Z" fill="white"/>
<path d="M46.5721 6.86719H54.5057C55.5881 6.86719 56.5565 7.46577 56.9344 8.36838L63.8982 25.0034C63.9519 25.1317 63.9525 25.2728 63.9 25.4016L63.8609 25.4971L63.8605 25.4981L56.9261 42.4798C56.5538 43.3915 55.5803 43.9984 54.4902 43.9984H46.5577C46.1117 43.9984 45.799 43.6066 45.946 43.2318L53.0963 25.0034L45.9635 7.64174C45.809 7.26555 46.1219 6.86719 46.5721 6.86719Z" fill="white"/>
<path d="M25.862 6.86719H33.7957C34.8781 6.86719 35.8464 7.46577 36.2243 8.36838L43.188 25.0034C43.2418 25.1317 43.2424 25.2728 43.1898 25.4016L43.1508 25.4971L43.1504 25.4981L36.216 42.4798C35.8437 43.3915 34.8702 43.9984 33.7802 43.9984H25.8477C25.4016 43.9984 25.0889 43.6066 25.2359 43.2318L32.3863 25.0034L25.2535 7.64174C25.0989 7.26555 25.4119 6.86719 25.862 6.86719Z" fill="white"/>
<path d="M51.9556 21.4575H40.7559V29.5047H51.9556L53.7856 25.3661L51.9556 21.4575Z" fill="white"/>
<path d="M80.043 33.3391V17.207H83.4781V23.5245H90.1351V17.207H93.5702V33.3391H90.1351V26.2319H83.4781V33.3391H80.043Z" fill="white"/>
<path d="M96.1682 37.1295V34.7154H97.3053C98.5056 34.7154 99.1058 34.1889 99.1058 33.136C99.1058 32.6246 98.7978 31.5792 98.1819 29.9998L94.9126 21.7646H98.3003L100.101 26.9765L100.883 29.5035H100.93C101.151 28.5258 101.388 27.6835 101.641 26.9765L103.346 21.7646H106.592L102.351 33.6324C101.878 34.956 101.341 35.866 100.74 36.3624C100.156 36.8738 99.2637 37.1295 98.0634 37.1295H96.1682Z" fill="white"/>
<path d="M107.683 37.1295V21.7646H110.787V23.2086H110.858C111.758 22.0354 112.951 21.4487 114.435 21.4487C116.03 21.4487 117.31 22.0128 118.273 23.1409C119.236 24.269 119.718 25.7431 119.718 27.5631C119.718 29.4283 119.236 30.9174 118.273 32.0305C117.31 33.1285 116.038 33.6775 114.459 33.6775C112.879 33.6775 111.711 33.1285 110.953 32.0305H110.905V37.1295H107.683ZM113.772 31.128C114.593 31.128 115.241 30.8196 115.714 30.2029C116.204 29.5862 116.449 28.7364 116.449 27.6534C116.449 26.4952 116.22 25.5852 115.762 24.9233C115.304 24.2615 114.601 23.9306 113.653 23.9306C112.69 23.9306 111.979 24.2765 111.521 24.9685C111.063 25.6453 110.834 26.5403 110.834 27.6534C110.834 28.7213 111.087 29.5712 111.592 30.2029C112.098 30.8196 112.824 31.128 113.772 31.128Z" fill="white"/>
<path d="M126.927 33.6775C124.968 33.6775 123.429 33.1059 122.307 31.9628C121.186 30.8046 120.625 29.3305 120.625 27.5406C120.625 25.8108 121.186 24.3668 122.307 23.2086C123.429 22.0354 124.866 21.4487 126.619 21.4487C128.53 21.4487 130.007 22.0805 131.049 23.344C132.091 24.6075 132.613 26.2996 132.613 28.4205H123.8C123.926 29.338 124.25 30.0525 124.771 30.5639C125.292 31.0603 126.003 31.3085 126.903 31.3085C128.088 31.3085 128.869 30.8347 129.248 29.887H132.423C132.186 30.97 131.586 31.8725 130.623 32.5945C129.659 33.3165 128.427 33.6775 126.927 33.6775ZM126.666 23.8178C125.103 23.8178 124.163 24.6451 123.847 26.2996H129.248C129.201 25.5626 128.941 24.9685 128.467 24.5172C127.993 24.0509 127.393 23.8178 126.666 23.8178Z" fill="white"/>
<path d="M137.207 21.7646V23.6147H137.278C137.657 22.9379 138.076 22.4415 138.534 22.1256C138.992 21.7947 139.568 21.6292 140.263 21.6292C140.595 21.6292 140.848 21.6593 141.021 21.7195V24.4044H140.95C139.86 24.2991 138.984 24.5247 138.321 25.0813C137.657 25.6378 137.326 26.5102 137.326 27.6985V33.3391H134.104V21.7646H137.207Z" fill="white"/>
<path d="M142.457 33.3391V17.207H145.679V33.3391H142.457Z" fill="white"/>
<path d="M155.452 33.3391C155.294 33.1435 155.167 32.7148 155.073 32.053H155.025C154.678 32.5494 154.236 32.9329 153.699 33.2037C153.162 33.4744 152.411 33.6098 151.448 33.6098C150.169 33.6098 149.142 33.3015 148.368 32.6848C147.594 32.0681 147.207 31.1956 147.207 30.0675C147.207 28.8943 147.634 28.0369 148.487 27.4954C149.34 26.9389 150.54 26.5553 152.088 26.3448C153.225 26.1943 153.999 26.0439 154.409 25.8935C154.82 25.7281 155.025 25.4423 155.025 25.0361C155.025 24.615 154.852 24.2841 154.504 24.0434C154.157 23.7877 153.651 23.6598 152.988 23.6598C151.519 23.6598 150.737 24.2013 150.643 25.2843H147.776C147.823 24.1863 148.289 23.2763 149.174 22.5543C150.058 21.8323 151.338 21.4713 153.012 21.4713C156.423 21.4713 158.129 22.8927 158.129 25.7356V31.6243C158.129 32.4967 158.271 33.0307 158.555 33.2263V33.3391H155.452ZM152.23 31.4664C153.114 31.4664 153.809 31.2483 154.315 30.8121C154.836 30.3759 155.096 29.857 155.096 29.2553V27.518C154.749 27.7135 153.999 27.9392 152.846 28.1949C151.93 28.3904 151.282 28.616 150.903 28.8717C150.524 29.1124 150.335 29.4884 150.335 29.9998C150.335 30.9775 150.966 31.4664 152.23 31.4664Z" fill="white"/>
<path d="M163.328 21.7646V23.344H163.399C164.236 22.0805 165.436 21.4487 167 21.4487C168.248 21.4487 169.258 21.8549 170.032 22.6671C170.806 23.4643 171.193 24.5022 171.193 25.7807V33.3391H167.971V26.2319C167.971 25.6002 167.782 25.0888 167.403 24.6977C167.039 24.3066 166.526 24.1111 165.863 24.1111C165.152 24.1111 164.56 24.3593 164.086 24.8556C163.628 25.352 163.399 25.9913 163.399 26.7734V33.3391H160.177V21.7646H163.328Z" fill="white"/>
<path d="M178.888 33.6775C176.93 33.6775 175.39 33.1059 174.269 31.9628C173.147 30.8046 172.587 29.3305 172.587 27.5406C172.587 25.8108 173.147 24.3668 174.269 23.2086C175.39 22.0354 176.827 21.4487 178.58 21.4487C180.491 21.4487 181.968 22.0805 183.011 23.344C184.053 24.6075 184.574 26.2996 184.574 28.4205H175.761C175.888 29.338 176.211 30.0525 176.733 30.5639C177.254 31.0603 177.964 31.3085 178.865 31.3085C180.049 31.3085 180.831 30.8347 181.21 29.887H184.385C184.148 30.97 183.548 31.8725 182.584 32.5945C181.621 33.3165 180.389 33.6775 178.888 33.6775ZM178.628 23.8178C177.064 23.8178 176.125 24.6451 175.809 26.2996H181.21C181.163 25.5626 180.902 24.9685 180.428 24.5172C179.954 24.0509 179.354 23.8178 178.628 23.8178Z" fill="white"/>
</svg>
