<svg width="210" height="51" viewBox="0 0 210 51" fill="none" xmlns="http://www.w3.org/2000/svg">
<g clip-path="url(#clip0_1168_10216)">
<path d="M151.16 28.1152H155.895V21.3652H170.098V19.1152C170.098 17.9902 168.914 16.8652 167.73 16.8652H153.527C152.344 16.8652 151.16 17.9902 151.16 19.1152V28.1152Z" fill="white"/>
<path d="M155.895 34.8652H153.527C152.344 34.8652 151.16 33.7402 151.16 32.6152V30.3652H155.895V34.8652Z" fill="#F2F2F2"/>
<path d="M133.406 30.3652V27.3653H145.243V24.3652H133.406V21.3652H147.61V19.1152C147.61 17.9902 146.426 16.8652 145.243 16.8652H131.039C129.856 16.8652 128.672 17.9902 128.672 19.1152V32.6152C128.672 33.7402 129.856 34.8652 131.039 34.8652H145.243C146.426 34.8652 147.61 33.7402 147.61 32.6152V30.3652H133.406Z" fill="white"/>
<path d="M107.367 30.3652H112.102V34.8652H109.734C108.551 34.8652 107.367 33.7402 107.367 32.6152V30.3652Z" fill="white"/>
<path fill-rule="evenodd" clip-rule="evenodd" d="M109.734 16.8652C108.551 16.8652 107.367 17.9902 107.367 19.1152V30.3652H119.204C123.938 30.3652 126.305 26.9902 126.305 23.6152C126.305 20.2402 123.938 16.8652 119.204 16.8652H109.734ZM119.204 21.3652H112.102V25.8652H119.204C120.979 25.8652 121.571 24.4437 121.571 23.6152C121.571 22.7868 120.979 21.3652 119.204 21.3652Z" fill="white"/>
<path d="M103.817 19.1152C103.817 17.9902 102.633 16.8652 101.45 16.8652H87.2462C86.0625 16.8652 84.8789 17.9902 84.8789 19.1152V32.6152C84.8789 33.7402 86.0625 34.8652 87.2462 34.8652H89.6135V21.3652H92.5725V34.8652H96.1235V21.3652H99.0825V34.8652H101.45C102.633 34.8652 103.817 33.7402 103.817 32.6152C103.817 31.4902 103.817 19.1152 103.817 19.1152Z" fill="white"/>
<path d="M62.3867 19.1165C62.3867 17.9915 63.57 16.8665 64.7536 16.8672H67.1213V30.3672H76.5904V16.8672H78.9573C80.1409 16.8672 81.3249 17.9915 81.3249 19.1165V32.6165C81.3249 33.7415 80.1409 34.8672 78.9573 34.8672H64.7536C63.57 34.8672 62.3867 33.7415 62.3867 32.6165V19.1165Z" fill="white"/>
<path d="M54.1055 16.8672H56.468C57.6516 16.8672 58.8353 17.9915 58.8353 19.1165L58.84 21.3672H54.1055V16.8672Z" fill="#F2F2F2"/>
<path d="M58.8414 23.6152H54.1068V30.3659H39.9032L39.8984 32.6152C39.8984 33.7402 41.0821 34.8659 42.2657 34.8659H56.4694C57.653 34.8659 58.8414 33.7402 58.8366 32.6152L58.8414 23.6152Z" fill="white"/>
</g>
<defs>
<clipPath id="clip0_1168_10216">
<rect width="130.2" height="36" fill="white" transform="translate(39.8984 7.86719)"/>
</clipPath>
</defs>
</svg>
