<svg width="210" height="51" viewBox="0 0 210 51" fill="none" xmlns="http://www.w3.org/2000/svg">
<path d="M81.7207 27.6914C81.7207 34.0176 73.6139 36.5884 63.5483 36.5884C53.4827 36.5884 45.2578 34.0176 45.2578 27.6914C45.2578 21.3652 53.4237 16.2461 63.4893 16.2461C73.5549 16.2461 81.7207 21.3764 81.7207 27.6914Z" fill="white" fill-opacity="0.5"/>
<path d="M79.8704 13.9028C79.8704 10.572 77.0147 7.86719 73.4983 7.86719C71.6696 7.86719 70.0216 8.59939 68.8601 9.76569C68.6801 9.94639 68.4172 10.0344 68.161 9.98519C66.6896 9.70219 65.1328 9.54369 63.5271 9.54369C61.9213 9.54369 60.3649 9.69289 58.8935 9.98259C58.637 10.0332 58.3729 9.94659 58.1919 9.76619C57.021 8.59959 55.3738 7.86719 53.5557 7.86719C50.0393 7.86719 47.1836 10.572 47.1836 13.9028C47.1836 14.8742 47.425 15.7842 47.85 16.5935C47.9518 16.7874 47.962 17.0143 47.874 17.2141C47.4616 18.1499 47.2426 19.1379 47.2426 20.1619C47.2426 26.0299 54.5352 30.7802 63.5271 30.7802C72.5188 30.7802 79.8114 26.0299 79.8114 20.1619C79.8114 19.1379 79.5924 18.1499 79.18 17.2141C79.092 17.0143 79.1022 16.7874 79.2041 16.5935C79.629 15.7842 79.8704 14.8742 79.8704 13.9028Z" fill="white"/>
<path d="M50.9685 36.1338C51.8063 36.1338 52.4672 35.4408 52.3728 34.6584C52.0306 31.8865 50.579 25.8844 44.1952 22.2742C37.197 18.3155 40.5265 28.8405 41.9181 32.6751C42.1996 33.4507 41.8732 34.3119 41.1259 34.7205L40.6668 34.9714C40.0768 35.2955 40.3246 36.1338 40.9973 36.1338H50.9685Z" fill="white"/>
<path d="M76.329 36.1338C75.5737 36.1338 74.9837 35.4408 75.0663 34.6584C75.3613 31.8977 76.6829 25.8844 82.4414 22.2742C88.8181 18.2848 85.7144 29.0048 84.4754 32.7632C84.2324 33.5004 84.5314 34.3029 85.2169 34.7165L85.6393 34.9714C86.1704 35.2955 85.9461 36.1338 85.3444 36.1338H76.329Z" fill="white"/>
<path opacity="0.4" d="M53.0348 17.2518C55.1854 17.2518 56.9289 15.6005 56.9289 13.5634C56.9289 11.5263 55.1854 9.875 53.0348 9.875C50.8841 9.875 49.1406 11.5263 49.1406 13.5634C49.1406 15.6005 50.8841 17.2518 53.0348 17.2518Z" fill="black"/>
<path opacity="0.4" d="M73.8082 17.2518C75.9588 17.2518 77.7022 15.6005 77.7022 13.5634C77.7022 11.5263 75.9588 9.875 73.8082 9.875C71.6575 9.875 69.9141 11.5263 69.9141 13.5634C69.9141 15.6005 71.6575 17.2518 73.8082 17.2518Z" fill="black"/>
<path d="M53.0418 15.7686C54.3248 15.7686 55.3648 14.7781 55.3648 13.5562C55.3648 12.3343 54.3248 11.3438 53.0418 11.3438C51.7588 11.3438 50.7188 12.3343 50.7188 13.5562C50.7188 14.7781 51.7588 15.7686 53.0418 15.7686Z" fill="black"/>
<path d="M73.8152 15.7686C75.0982 15.7686 76.1382 14.7781 76.1382 13.5562C76.1382 12.3343 75.0982 11.3438 73.8152 11.3438C72.5322 11.3438 71.4922 12.3343 71.4922 13.5562C71.4922 14.7781 72.5322 15.7686 73.8152 15.7686Z" fill="black"/>
<path d="M68.6799 22.117C69.2558 22.1642 69.6911 22.6509 69.5461 23.1838C69.429 23.6145 69.2611 24.0324 69.0449 24.4292C68.6676 25.1219 68.1508 25.7369 67.5239 26.2393C66.8971 26.7417 66.1724 27.1218 65.3914 27.3575C64.6103 27.5932 63.7881 27.6801 62.9719 27.6132C62.1556 27.5463 61.3611 27.327 60.6338 26.9676C59.9065 26.6084 59.2607 26.1161 58.7331 25.5191C58.2055 24.922 57.8066 24.232 57.5591 23.4882C57.382 22.956 57.2849 22.4036 57.2697 21.8477C57.2597 21.4808 57.6019 21.2094 57.9857 21.2408L68.6799 22.117Z" fill="black"/>
<path d="M99.1707 33.3211C99.1707 34.8258 97.8899 36.0456 96.3099 36.0456C94.73 36.0456 93.4492 34.8258 93.4492 33.3211L93.4493 12.0916C93.4493 10.587 94.73 9.36719 96.3099 9.36719C97.8899 9.36719 99.1707 10.587 99.1707 12.0916V30.652V33.3211Z" fill="white"/>
<path d="M96.3034 36.0886C94.7271 36.0886 93.4492 34.8717 93.4492 33.3705C93.4492 31.8692 94.7271 30.6523 96.3033 30.6523H99.1707H105.495C107.071 30.6523 108.349 31.8692 108.349 33.3705C108.349 34.8717 107.071 36.0886 105.495 36.0886H96.3034Z" fill="white"/>
<path d="M117.935 36.6626C116.077 36.6626 114.418 36.2616 112.956 35.4596C111.52 34.6576 110.381 33.5608 109.538 32.1691C108.721 30.7538 108.312 29.138 108.312 27.3216C108.312 25.4818 108.709 23.866 109.501 22.4742C110.319 21.0589 111.446 19.9503 112.882 19.1483C114.319 18.3463 115.966 17.9453 117.823 17.9453C119.78 17.9453 121.464 18.3345 122.876 19.1129C124.288 19.8677 125.377 20.9528 126.146 22.3681C126.913 23.7598 127.298 25.4228 127.298 27.357C127.298 28.1202 126.65 28.7398 125.849 28.7434L113.128 28.7997C112.138 28.8041 111.339 28.0304 111.36 27.0878C111.38 26.1757 112.162 25.4464 113.12 25.4464H118.979C120.434 25.4464 121.717 24.1156 120.61 23.2173C119.941 22.6512 119.025 22.3681 117.86 22.3681C116.895 22.3681 116.102 22.545 115.483 22.8988C114.888 23.2527 114.443 23.807 114.145 24.5618C113.848 25.293 113.7 26.2366 113.7 27.3924C113.7 29.0436 114.046 30.2702 114.74 31.0722C115.458 31.8506 116.56 32.2398 118.046 32.2398C119.136 32.2398 120.04 32.0629 120.758 31.7091C120.788 31.6946 120.817 31.6799 120.845 31.665C121.906 31.1088 122.964 30.223 124.175 30.223C125.854 30.223 127.175 31.714 126.248 33.0476C125.754 33.7576 125.114 34.3847 124.325 34.9289C122.616 36.0847 120.486 36.6626 117.935 36.6626Z" fill="white"/>
<path d="M135.078 36.5493C133.122 36.5493 131.56 36.0422 130.397 35.0279C129.258 33.99 128.688 32.6101 128.688 30.8881C128.688 29.2605 129.27 27.9632 130.434 26.996C131.622 26.0289 133.332 25.4628 135.561 25.2977L140.465 24.9306C140.633 24.9181 140.762 24.7852 140.762 24.6254C140.762 24.0357 140.639 23.5521 140.391 23.1747C140.143 22.7737 139.784 22.4789 139.314 22.2902C138.867 22.0779 138.298 21.9717 137.604 21.9717C136.39 21.9717 135.462 22.184 134.817 22.6086C133.817 23.295 132.889 24.4485 131.656 24.4485H131.511C130.198 24.4485 129.073 23.4017 129.519 22.2255C129.691 21.7703 129.922 21.3437 130.211 20.9456C130.929 19.9549 131.945 19.1883 133.257 18.6458C134.595 18.1032 136.143 17.832 137.901 17.832C139.709 17.832 141.233 18.1386 142.471 18.7519C143.734 19.3652 144.687 20.2616 145.332 21.441C146.001 22.6204 146.335 24.0593 146.335 25.7577V33.5021C146.335 34.931 145.119 36.0893 143.618 36.0893H141.721C141.468 36.0893 141.254 35.9138 141.216 35.6764C141.137 35.1763 140.095 34.9585 139.668 35.26C139.411 35.4415 139.12 35.6118 138.793 35.7709C137.703 36.2899 136.465 36.5493 135.078 36.5493ZM137.084 32.5157C138.174 32.5157 139.066 32.268 139.759 31.7727C140.453 31.2537 140.799 30.4871 140.799 29.4728C140.799 28.9596 140.337 28.557 139.8 28.6029L137.901 28.7652C136.663 28.8595 135.783 29.06 135.264 29.3667C134.768 29.6497 134.52 30.0743 134.52 30.6404C134.52 31.2773 134.731 31.7491 135.152 32.0557C135.573 32.3624 136.217 32.5157 137.084 32.5157Z" fill="white"/>
<path d="M151.533 44.5813C149.953 44.5813 148.672 43.3613 148.672 41.8567V21.1308C148.672 19.6216 149.957 18.3981 151.542 18.3981H153.524C153.831 18.3981 154.089 18.6144 154.129 18.9036C154.204 19.4494 155.059 19.6583 155.511 19.3153C155.877 19.0373 156.297 18.7905 156.772 18.575C157.861 18.0796 159.063 17.832 160.375 17.832C162.109 17.832 163.632 18.1976 164.945 18.9288C166.257 19.6601 167.285 20.7098 168.029 22.0779C168.771 23.4224 169.143 25.05 169.143 26.9607C169.143 28.8241 168.796 30.4871 168.103 31.9496C167.434 33.3885 166.443 34.5207 165.131 35.3463C163.842 36.1719 162.269 36.5847 160.412 36.5847C159.125 36.5847 157.936 36.3724 156.846 35.9478C155.927 35.5899 154.393 36.2531 154.393 37.1985V41.9443C154.393 43.4003 153.154 44.5813 151.624 44.5813H151.533ZM154.431 27.2437C154.431 28.1165 154.617 28.8949 154.988 29.579C155.385 30.2394 155.917 30.7584 156.586 31.1358C157.279 31.4896 158.071 31.6665 158.963 31.6665C159.88 31.6665 160.66 31.4778 161.304 31.1004C161.972 30.723 162.48 30.2041 162.827 29.5436C163.199 28.8831 163.384 28.1165 163.384 27.2437C163.384 26.371 163.199 25.6043 162.827 24.9439C162.48 24.2834 161.972 23.7644 161.304 23.387C160.66 23.0096 159.88 22.8209 158.963 22.8209C158.071 22.8209 157.279 23.0096 156.586 23.387C155.917 23.7409 155.385 24.248 154.988 24.9085C154.617 25.5689 154.431 26.3474 154.431 27.2437Z" fill="white"/>
</svg>
