<svg width="210" height="51" viewBox="0 0 210 51" fill="none" xmlns="http://www.w3.org/2000/svg">
<path fill-rule="evenodd" clip-rule="evenodd" d="M118.931 32.7638C118.001 32.401 117.257 31.8639 116.701 31.1527C116.144 30.4416 115.851 29.5852 115.82 28.5837H119.983C120.044 29.1497 120.25 29.5816 120.601 29.8791C120.952 30.1766 121.409 30.3254 121.973 30.3254C122.553 30.3254 123.01 30.1984 123.346 29.9444C123.681 29.6904 123.849 29.3384 123.849 28.8885C123.849 28.5111 123.715 28.1991 123.448 27.9523C123.182 27.7055 122.854 27.5024 122.465 27.3427C122.076 27.183 121.524 27.0016 120.806 26.7984C119.769 26.4936 118.923 26.1888 118.267 25.884C117.611 25.5792 117.048 25.1293 116.575 24.5341C116.102 23.939 115.866 23.1625 115.866 22.2046C115.866 20.7821 116.407 19.6682 117.49 18.8626C118.573 18.0571 119.983 17.6543 121.721 17.6543C123.49 17.6543 124.916 18.0571 125.999 18.8626C127.081 19.6682 127.661 20.7894 127.737 22.2263H123.506C123.475 21.7329 123.284 21.3446 122.934 21.0616C122.583 20.7785 122.133 20.637 121.584 20.637C121.111 20.637 120.731 20.7568 120.44 20.9962C120.151 21.2357 120.006 21.5805 120.006 22.0304C120.006 22.5239 120.25 22.9086 120.738 23.1843C121.226 23.46 121.989 23.7576 123.025 24.0769C124.062 24.4108 124.905 24.7301 125.552 25.0349C126.201 25.3397 126.761 25.7824 127.234 26.363C127.707 26.9435 127.943 27.691 127.943 28.6054C127.943 29.4763 127.71 30.2674 127.245 30.9786C126.78 31.6897 126.106 32.2558 125.221 32.6767C124.336 33.0977 123.292 33.3081 122.088 33.3081C120.913 33.3081 119.861 33.1267 118.931 32.7638ZM137.458 29.9988V33.1557H135.469C134.05 33.1557 132.945 32.8255 132.152 32.1651C131.359 31.5047 130.962 30.427 130.962 28.932V24.0987H129.407V21.0071H130.962V18.0462H134.873V21.0071H137.436V24.0987H134.873V28.9756C134.873 29.3384 134.965 29.5997 135.148 29.7593C135.331 29.919 135.636 29.9988 136.063 29.9988H137.458ZM142.067 32.5679C141.068 32.0599 140.283 31.3342 139.711 30.3907C139.139 29.4473 138.853 28.3442 138.853 27.0814C138.853 25.8332 139.144 24.7337 139.723 23.783C140.302 22.8324 141.095 22.103 142.102 21.595C143.108 21.0869 144.236 20.833 145.487 20.833C146.737 20.833 147.866 21.0869 148.872 21.595C149.879 22.103 150.672 22.8324 151.251 23.783C151.831 24.7337 152.12 25.8332 152.12 27.0814C152.12 28.3297 151.826 29.4292 151.24 30.3798C150.653 31.3305 149.852 32.0599 148.838 32.5679C147.824 33.0759 146.692 33.3299 145.441 33.3299C144.191 33.3299 143.067 33.0759 142.067 32.5679ZM147.351 29.3239C147.877 28.8014 148.14 28.0539 148.14 27.0814C148.14 26.109 147.885 25.3615 147.374 24.8389C146.863 24.3164 146.234 24.0552 145.487 24.0552C144.725 24.0552 144.092 24.3128 143.589 24.8281C143.085 25.3433 142.834 26.0944 142.834 27.0814C142.834 28.0539 143.082 28.8014 143.577 29.3239C144.072 29.8464 144.694 30.1077 145.441 30.1077C146.188 30.1077 146.825 29.8464 147.351 29.3239ZM165.558 22.259C166.45 23.1807 166.896 24.4471 166.896 26.0582V33.1557H163.008V26.5589C163.008 25.7461 162.786 25.1147 162.345 24.6648C161.903 24.2149 161.308 23.9899 160.56 23.9899C159.813 23.9899 159.218 24.2149 158.776 24.6648C158.334 25.1147 158.113 25.7461 158.113 26.5589V33.1557H154.201V21.0071H158.113V22.6182C158.509 22.0812 159.043 21.6567 159.714 21.3446C160.385 21.0325 161.14 20.8765 161.978 20.8765C163.473 20.8765 164.666 21.3373 165.558 22.259ZM181.581 27.9741H172.729C172.79 28.7288 173.046 29.3057 173.496 29.7049C173.946 30.1041 174.498 30.3036 175.154 30.3036C176.129 30.3036 176.808 29.9117 177.189 29.128H181.352C181.139 29.9262 180.754 30.6447 180.197 31.2834C179.64 31.922 178.943 32.4228 178.104 32.7856C177.266 33.1484 176.328 33.3299 175.291 33.3299C174.041 33.3299 172.927 33.0759 171.952 32.5679C170.975 32.0599 170.213 31.3342 169.664 30.3907C169.115 29.4473 168.84 28.3442 168.84 27.0814C168.84 25.8187 169.111 24.7156 169.653 23.7721C170.194 22.8287 170.953 22.103 171.928 21.595C172.904 21.0869 174.025 20.833 175.291 20.833C176.526 20.833 177.624 21.0797 178.585 21.5732C179.545 22.0667 180.296 22.7706 180.838 23.685C181.379 24.5995 181.649 25.6663 181.649 26.8855C181.649 27.2338 181.627 27.5967 181.581 27.9741ZM177.646 25.9058C177.646 25.2671 177.418 24.7591 176.96 24.3817C176.503 24.0043 175.931 23.8157 175.245 23.8157C174.59 23.8157 174.036 23.9971 173.586 24.36C173.137 24.7228 172.859 25.2381 172.752 25.9058H177.646Z" fill="#FAFAFA"/>
<path fill-rule="evenodd" clip-rule="evenodd" d="M76.5952 27.3873L79.9347 33.1568H84.3493L80.6438 27.1042C81.818 26.7704 82.7062 26.2043 83.3086 25.406C83.9109 24.6078 84.2121 23.7006 84.2121 22.6846C84.2121 21.7847 83.991 20.9682 83.5487 20.2353C83.1065 19.5023 82.4394 18.9254 81.5473 18.5044C80.6553 18.0835 79.5764 17.873 78.3107 17.873H71.7461V33.1568H75.6574V27.3873H76.5952ZM78.082 24.7529H75.6574V20.9646H78.082C78.7987 20.9646 79.3363 21.1315 79.6946 21.4654C80.0529 21.7992 80.2321 22.2564 80.2321 22.837C80.2321 23.4466 80.0529 23.9183 79.6946 24.2521C79.3363 24.586 78.7987 24.7529 78.082 24.7529Z" fill="white"/>
<path fill-rule="evenodd" clip-rule="evenodd" d="M89.7713 27.977H98.6233C98.669 27.5996 98.6919 27.2368 98.6919 26.8885C98.6919 25.6692 98.4212 24.6024 97.8799 23.688C97.3386 22.7736 96.5875 22.0696 95.6269 21.5762C94.6662 21.0827 93.5683 20.8359 92.3331 20.8359C91.0674 20.8359 89.9466 21.0899 88.9707 21.5979C87.9948 22.106 87.2361 22.8316 86.6948 23.7751C86.1535 24.7186 85.8828 25.8217 85.8828 27.0844C85.8828 28.3472 86.1573 29.4502 86.7063 30.3937C87.2552 31.3372 88.0177 32.0628 88.9936 32.5709C89.9695 33.0789 91.0827 33.3329 92.3331 33.3329C93.37 33.3329 94.3079 33.1514 95.1465 32.7886C95.9852 32.4258 96.6828 31.925 97.2394 31.2863C97.796 30.6477 98.181 29.9292 98.3945 29.1309H94.2316C93.8504 29.9147 93.1718 30.3066 92.1959 30.3066C91.5402 30.3066 90.9874 30.1071 90.5375 29.7079C90.0877 29.3087 89.8322 28.7318 89.7713 27.977ZM94.0029 24.3847C94.4603 24.7621 94.689 25.2701 94.689 25.9087H89.7942C89.9009 25.2411 90.1792 24.7258 90.629 24.3629C91.0788 24.0001 91.6317 23.8187 92.2873 23.8187C92.9735 23.8187 93.5454 24.0073 94.0029 24.3847Z" fill="white"/>
<path fill-rule="evenodd" clip-rule="evenodd" d="M102.74 21.5972C101.886 22.1052 101.212 22.8309 100.716 23.7743C100.22 24.7178 99.9727 25.8136 99.9727 27.0618C99.9727 28.3101 100.22 29.4096 100.716 30.3603C101.212 31.3109 101.886 32.044 102.74 32.5592C103.594 33.0744 104.547 33.3321 105.599 33.3321C106.499 33.3321 107.289 33.1579 107.967 32.8096C108.646 32.4612 109.168 31.9967 109.534 31.4162V33.1579H113.445V17.0469H109.534V22.6857C109.137 22.1197 108.592 21.6698 107.898 21.3359C107.205 21.002 106.438 20.8351 105.599 20.8351C104.547 20.8351 103.594 21.0891 102.74 21.5972ZM106.743 24.0791C107.521 24.0791 108.18 24.3477 108.722 24.8847C109.263 25.4217 109.534 26.1547 109.534 27.0836C109.534 28.0125 109.263 28.7455 108.722 29.2826C108.18 29.8196 107.521 30.0881 106.743 30.0881C105.966 30.0881 105.306 29.816 104.765 29.2717C104.223 28.7274 103.953 27.9907 103.953 27.0618C103.953 26.1329 104.223 25.4036 104.765 24.8738C105.306 24.344 105.966 24.0791 106.743 24.0791Z" fill="white"/>
<path fill-rule="evenodd" clip-rule="evenodd" d="M55.9397 25.008L51.7624 18.4633L53.9261 15.1089L60.2442 25.008H55.9397ZM41.7205 34.2058H50.1658L52.274 37.4796H39.6502L41.7205 34.2058ZM50.1628 17.5776H41.7103L39.6443 14.2961H52.2793L50.1628 17.5776ZM50.1564 32.4449H41.708L37.5252 25.8918L41.708 19.3386H50.1564L54.339 25.8918L50.1564 32.4449ZM38.0037 15.116L40.1066 18.456L35.9259 25.0059H31.6914L38.0037 15.116ZM31.6895 26.7669H35.919L40.1116 33.3353L38.0066 36.6642L31.6895 26.7669ZM53.9233 36.6711L51.7639 33.3178L55.9439 26.7689H60.2435L53.9233 36.6711ZM54.7182 12.9585C54.5504 12.6956 54.2507 12.5352 53.9277 12.5352H38.0066C37.6835 12.5352 37.3837 12.6956 37.2161 12.9585L29.2556 25.4307C29.0763 25.7116 29.0762 26.0641 29.2555 26.345L37.2161 38.8172C37.3837 39.0801 37.6835 39.2406 38.0066 39.2406H53.9277C54.2507 39.2406 54.5504 39.0801 54.7182 38.8172L62.6787 26.345C62.8581 26.0641 62.8581 25.7116 62.6787 25.4307L54.7182 12.9585Z" fill="white"/>
<path fill-rule="evenodd" clip-rule="evenodd" d="M50.7214 27.2637C50.2899 27.0036 49.7183 27.1255 49.4449 27.5364L47.8077 29.9968C47.5344 30.4076 47.6626 30.9516 48.0942 31.2118C48.2478 31.3043 48.4191 31.3485 48.5883 31.3485C48.8947 31.3485 49.1946 31.2037 49.3707 30.9391L51.0079 28.4786C51.2813 28.0679 51.1529 27.5239 50.7214 27.2637Z" fill="white"/>
<path fill-rule="evenodd" clip-rule="evenodd" d="M52.0654 24.9967C51.6253 24.7502 51.0581 24.89 50.799 25.3092L50.6786 25.5041C50.4196 25.9232 50.5666 26.4629 51.007 26.7094C51.1543 26.7919 51.3157 26.8311 51.4751 26.8311C51.7921 26.8311 52.1009 26.6758 52.2733 26.3969L52.3937 26.2021C52.6527 25.7829 52.5057 25.2433 52.0654 24.9967Z" fill="white"/>
</svg>
