<svg width="210" height="51" viewBox="0 0 210 51" fill="none" xmlns="http://www.w3.org/2000/svg">
<path d="M67.3949 15.4844H76.1112C77.5466 15.4844 78.7304 15.6874 79.6618 16.0932C81.4304 16.8719 82.3151 18.3094 82.3151 20.4049C82.3151 21.4982 82.078 22.3932 81.6035 23.0888C81.129 23.7847 80.4657 24.3436 79.6128 24.7661C80.3611 25.0563 80.9245 25.4373 81.3032 25.9094C81.6816 26.3815 81.8926 27.1478 81.9363 28.2083L82.0278 30.6563C82.0539 31.3523 82.1148 31.87 82.2105 32.2097C82.3672 32.7898 82.6456 33.1623 83.0458 33.3282V33.7383H79.8605C79.7736 33.5812 79.7039 33.3782 79.6518 33.1295C79.5997 32.8809 79.5561 32.4008 79.5212 31.6881L79.3646 28.6436C79.3052 27.4508 78.8529 26.6513 78.0077 26.2455C77.5255 26.0217 76.7687 25.9101 75.7374 25.9101H69.9923V33.7383H67.3945V15.4847L67.3949 15.4844ZM75.832 23.8471C77.0165 23.8471 77.9537 23.6152 78.6434 23.1511C79.3332 22.6874 79.6782 21.8507 79.6782 20.6411C79.6782 19.3407 79.1961 18.4541 78.2313 17.982C77.7147 17.7334 77.0253 17.609 76.1621 17.609H69.9927V23.8467H75.832V23.8471Z" fill="white"/>
<path d="M96.2038 21.7564C97.4393 22.8986 98.0574 24.5785 98.0574 26.7965C98.0574 29.0145 97.5128 30.7115 96.424 32.1103C95.3352 33.5091 93.6459 34.2084 91.356 34.2084C89.4461 34.2084 87.9295 33.5897 86.8062 32.3524C85.6829 31.1151 85.1211 29.4534 85.1211 27.3677C85.1211 25.133 85.7132 23.3536 86.897 22.0295C88.0808 20.7054 89.6709 20.043 91.667 20.043C93.4559 20.043 94.9679 20.6142 96.2038 21.7564ZM94.745 30.601C95.3172 29.48 95.6037 28.2325 95.6037 26.8592C95.6037 25.6182 95.3972 24.6087 94.984 23.8311C94.3302 22.6066 93.2027 21.9941 91.6023 21.9941C90.1822 21.9941 89.1497 22.5154 88.5043 23.5581C87.859 24.6007 87.5362 25.8581 87.5362 27.3309C87.5362 28.8038 87.8586 29.9248 88.5043 30.8679C89.1497 31.811 90.1738 32.2828 91.5766 32.2828C93.1166 32.2828 94.1728 31.7221 94.745 30.601Z" fill="white"/>
<path d="M103.289 20.4297V29.2645C103.289 29.9437 103.399 30.4989 103.619 30.9294C104.026 31.7245 104.785 32.1223 105.895 32.1223C107.488 32.1223 108.573 31.4263 109.15 30.0348C109.463 29.2893 109.62 28.2663 109.62 26.9656V20.4297H111.969V33.7376H109.75L109.776 31.7745C109.477 32.2798 109.105 32.7063 108.662 33.0545C107.782 33.7504 106.715 34.0982 105.46 34.0982C103.504 34.0982 102.172 33.4646 101.463 32.197C101.079 31.5178 100.887 30.6108 100.887 29.4759V20.4301H103.289V20.4297Z" fill="white"/>
<path d="M116.279 16.7148H118.655V20.4301H120.887V22.2565H118.655V30.9422C118.655 31.4063 118.82 31.7169 119.151 31.8741C119.334 31.9652 119.638 32.0108 120.065 32.0108C120.178 32.0108 120.3 32.0082 120.43 32.0027C120.561 31.9973 120.713 31.9834 120.887 31.9612V33.7381C120.617 33.8124 120.337 33.8664 120.045 33.8996C119.753 33.9327 119.438 33.9491 119.099 33.9491C118.002 33.9491 117.258 33.6819 116.867 33.1478C116.475 32.6134 116.279 31.92 116.279 31.0665V22.2565H114.387V20.4301H116.279V16.7148Z" fill="white"/>
<path d="M131.87 20.7974C132.795 21.2407 133.5 21.8145 133.985 22.5185C134.452 23.1897 134.763 23.9724 134.919 24.867C135.057 25.4802 135.126 26.4576 135.126 27.7995H124.958C125.001 29.1535 125.333 30.2399 125.955 31.058C126.576 31.8761 127.539 32.2851 128.843 32.2851C130.06 32.2851 131.032 31.8983 131.757 31.1243C132.163 30.6752 132.451 30.155 132.62 29.564H134.93C134.869 30.0529 134.667 30.5976 134.323 31.198C133.979 31.7988 133.596 32.2895 133.173 32.6705C132.464 33.3332 131.588 33.7805 130.543 34.0124C129.981 34.1447 129.346 34.2111 128.638 34.2111C126.909 34.2111 125.443 33.6085 124.241 32.4032C123.038 31.198 122.438 29.5101 122.438 27.3398C122.438 25.1696 123.043 23.4671 124.254 22.1335C125.465 20.8 127.047 20.1328 129.002 20.1328C129.988 20.1328 130.943 20.3545 131.869 20.7974H131.87ZM132.711 26.0223C132.616 25.0529 132.396 24.2786 132.051 23.6986C131.413 22.6217 130.347 22.0832 128.854 22.0832C127.784 22.0832 126.887 22.454 126.162 23.1955C125.437 23.937 125.052 24.879 125.01 26.0223H132.711Z" fill="white"/>
<path d="M139.504 29.5628C139.575 30.3084 139.775 30.88 140.104 31.2777C140.707 31.9985 141.756 32.3586 143.248 32.3586C144.136 32.3586 144.918 32.1786 145.592 31.818C146.268 31.4578 146.605 30.9008 146.605 30.1469C146.605 29.5752 146.335 29.1403 145.796 28.8421C145.451 28.6598 144.77 28.4487 143.753 28.2085L141.856 27.7612C140.645 27.4797 139.751 27.1647 139.176 26.8169C138.15 26.2125 137.637 25.3755 137.637 24.3069C137.637 23.0477 138.12 22.0288 139.086 21.2501C140.051 20.4714 141.35 20.082 142.982 20.082C145.116 20.082 146.655 20.6704 147.599 21.8465C148.19 22.592 148.477 23.3955 148.459 24.257H146.24C146.195 23.7546 146.004 23.2975 145.666 22.8851C145.113 22.3004 144.155 22.0076 142.792 22.0076C141.884 22.0076 141.196 22.1688 140.728 22.4907C140.26 22.8126 140.026 23.2377 140.026 23.7659C140.026 24.3438 140.333 24.806 140.948 25.1527C141.303 25.3591 141.826 25.541 142.517 25.6985L144.1 26.0587C145.82 26.448 146.973 26.825 147.558 27.1895C148.472 27.7612 148.929 28.6602 148.929 29.8858C148.929 31.1115 148.451 32.0936 147.495 32.9551C146.539 33.8165 145.083 34.2474 143.127 34.2474C141.022 34.2474 139.53 33.7979 138.654 32.8993C137.777 32.0007 137.308 30.8884 137.246 29.5628H139.505H139.504Z" fill="white"/>
<path d="M160.711 21.1367C161.699 21.8658 162.293 23.1206 162.493 24.9018H160.209C160.07 24.0816 159.752 23.4006 159.256 22.8577C158.76 22.3153 157.964 22.0437 156.868 22.0437C155.37 22.0437 154.3 22.7389 153.656 24.1286C153.238 25.0305 153.03 26.1432 153.03 27.4669C153.03 28.7906 153.325 29.92 153.917 30.8304C154.509 31.7407 155.44 32.1956 156.711 32.1956C157.686 32.1956 158.458 31.9131 159.028 31.3477C159.598 30.7826 159.991 30.009 160.209 29.0269H162.494C162.233 30.7913 161.58 32.0815 160.536 32.8974C159.491 33.7133 158.155 34.1213 156.528 34.1213C154.701 34.1213 153.243 33.4855 152.155 32.2139C151.067 30.9423 150.523 29.3539 150.523 27.4487C150.523 25.1126 151.119 23.2945 152.312 21.9937C153.504 20.6933 155.023 20.043 156.868 20.043C158.443 20.043 159.725 20.4075 160.712 21.1363L160.711 21.1367Z" fill="white"/>
<path d="M172.333 25.6829C172.873 25.6169 173.234 25.4018 173.417 25.038C173.521 24.8382 173.573 24.5517 173.573 24.1773C173.573 23.4124 173.289 22.8572 172.72 22.5119C172.151 22.1671 171.337 21.9943 170.277 21.9943C169.053 21.9943 168.184 22.3107 167.671 22.9432C167.385 23.2932 167.198 23.8134 167.112 24.5043H164.919C164.962 22.8594 165.52 21.715 166.594 21.0712C167.667 20.4274 168.912 20.1055 170.329 20.1055C171.972 20.1055 173.306 20.4037 174.332 21.0001C175.349 21.5965 175.857 22.5243 175.857 23.7835V31.4506C175.857 31.6825 175.907 31.8691 176.007 32.0095C176.107 32.1502 176.318 32.2202 176.64 32.2202C176.745 32.2202 176.862 32.214 176.993 32.2016C177.123 32.1892 177.262 32.1706 177.411 32.1458V33.7984C177.045 33.8979 176.767 33.9599 176.575 33.9847C176.384 34.0095 176.123 34.0219 175.792 34.0219C174.983 34.0219 174.395 33.7485 174.03 33.202C173.839 32.9122 173.704 32.502 173.625 31.972C173.147 32.5684 172.459 33.0861 171.563 33.525C170.666 33.9639 169.679 34.1834 168.6 34.1834C167.303 34.1834 166.244 33.809 165.421 33.0602C164.599 32.3114 164.188 31.3744 164.188 30.249C164.188 29.0165 164.592 28.0606 165.402 27.3825C166.211 26.704 167.272 26.2862 168.587 26.1288L172.333 25.6822V25.6829ZM167.386 31.7251C167.882 32.097 168.469 32.2829 169.148 32.2829C169.975 32.2829 170.775 32.101 171.55 31.7372C172.855 31.1335 173.508 30.1451 173.508 28.7722V26.9734C173.221 27.1481 172.852 27.2935 172.401 27.4098C171.949 27.5265 171.506 27.6092 171.072 27.6588L169.652 27.8327C168.801 27.9403 168.161 28.1098 167.732 28.3413C167.005 28.7299 166.642 29.3497 166.642 30.2009C166.642 30.8455 166.89 31.3537 167.386 31.7259V31.7251Z" fill="white"/>
<path d="M179.707 20.4307H181.939V22.3195C182.6 21.5408 183.301 20.9819 184.041 20.6421C184.78 20.3027 185.603 20.1328 186.508 20.1328C188.492 20.1328 189.832 20.7912 190.529 22.1084C190.912 22.8291 191.103 23.8605 191.103 25.2024V33.739H188.714V25.3515C188.714 24.5396 188.588 23.8852 188.336 23.3884C187.918 22.5601 187.161 22.1459 186.065 22.1459C185.508 22.1459 185.051 22.1999 184.694 22.3074C184.05 22.4897 183.484 22.8543 182.997 23.4007C182.605 23.84 182.351 24.2936 182.233 24.7613C182.116 25.2294 182.057 25.8984 182.057 26.7682V33.739H179.707V20.431L179.707 20.4307Z" fill="white"/>
<g clip-path="url(#clip0_1168_10198)">
<path d="M20.4648 16.0661C22.1794 13.2441 24.6504 10.8907 27.6135 9.25781L37.3789 25.3668L20.4648 16.0664V16.0661Z" fill="white" fill-opacity="0.55"/>
<path d="M17.8516 25.3668C17.8516 21.9786 18.8029 18.8021 20.4651 16.0664L37.3792 25.3668H17.8516Z" fill="white" fill-opacity="0.7"/>
<path d="M20.4651 34.6675C18.8029 31.9318 17.8516 28.7553 17.8516 25.3672H37.3792L20.4651 34.6675Z" fill="white" fill-opacity="0.8"/>
<path d="M27.6135 41.4758C24.6504 39.8429 22.1794 37.4896 20.4648 34.6675L37.3789 25.3672L27.6135 41.4758Z" fill="white" fill-opacity="0.85"/>
<path d="M37.3787 43.9649C33.8211 43.9649 30.4858 43.0588 27.6133 41.4758L37.3787 25.3672V43.9649Z" fill="white" fill-opacity="0.9"/>
<path d="M47.1443 41.4762C44.2718 43.0592 40.9364 43.9649 37.3789 43.9649V25.3672L47.1443 41.4762Z" fill="white" fill-opacity="0.6"/>
<path d="M47.1439 41.4762C50.1074 39.8433 52.5784 37.4899 54.293 34.6675L37.3789 25.3672L47.1443 41.4762H47.1439Z" fill="white" fill-opacity="0.2"/>
<path d="M54.2929 34.6675C55.9551 31.9318 56.9065 28.7553 56.9065 25.3672H37.3789L54.2929 34.6675Z" fill="white" fill-opacity="0.1"/>
<path d="M56.9065 25.3668C56.9065 21.9786 55.9551 18.8021 54.2929 16.0664L37.3789 25.3668H56.9065Z" fill="white" fill-opacity="0.2"/>
<path d="M54.293 16.0661C52.5784 13.2441 50.1074 10.8907 47.1443 9.25781L37.3789 25.3664L54.293 16.0661Z" fill="white" fill-opacity="0.3"/>
<path d="M47.1443 9.25865C44.2718 7.67561 40.9364 6.76953 37.3789 6.76953V25.3673L47.1443 9.25865Z" fill="white" fill-opacity="0.36"/>
<path d="M27.6133 9.25828C30.4858 7.67524 33.8211 6.76953 37.3787 6.76953V25.3673L27.6133 9.25828Z" fill="white" fill-opacity="0.5"/>
</g>
<defs>
<clipPath id="clip0_1168_10198">
<rect width="39.056" height="37.1962" fill="white" transform="translate(17.8516 6.76953)"/>
</clipPath>
</defs>
</svg>
