<svg width="210" height="51" viewBox="0 0 210 51" fill="none" xmlns="http://www.w3.org/2000/svg">
<path d="M88.9515 30.2324L92.0122 29.0025C92.5912 30.751 93.917 32.2084 96.2974 32.2084C98.0667 32.2084 99.257 31.2369 99.257 30.0705C99.257 26.5406 89.7005 28.8406 89.7005 22.6541C89.7005 20.096 92.0466 18.1855 95.753 18.1855C98.9836 18.1855 101.704 19.805 102.451 22.2011L99.3903 23.431C98.949 21.8117 97.3499 20.9056 95.785 20.9056C94.2203 20.9056 93.1335 21.5205 93.1335 22.5907C93.1335 25.7331 102.756 23.3347 102.756 30.0398C102.756 32.8585 100.171 35.0271 96.2951 35.0271C92.1132 35.0271 89.7327 32.5652 88.9492 30.2345L88.9515 30.2324Z" fill="white"/>
<path d="M117.961 40.6621V32.8891C116.906 34.1846 114.9 35.0271 112.825 35.0271C107.69 35.0271 104.562 31.53 104.562 26.6062C104.562 21.6826 107.554 18.1855 112.621 18.1855C115.001 18.1855 117.007 19.1901 117.961 20.5184V18.446H121.667V40.6621H117.961ZM118.2 26.6062C118.2 23.3675 116.228 21.2624 113.234 21.2624C110.24 21.2624 108.269 23.3675 108.269 26.6062C108.269 29.8451 110.24 31.9503 113.234 31.9503C116.228 31.9503 118.2 29.8123 118.2 26.6062Z" fill="white"/>
<path d="M124.08 26.6066C124.08 21.6828 127.04 18.1858 132.208 18.1858C134.418 18.1858 136.424 19.1245 137.444 20.4858V11.3516H141.151V34.7668H137.444V32.6945C136.628 34.0556 134.554 35.0273 132.274 35.0273C127.038 35.0273 124.078 31.5303 124.078 26.6066H124.08ZM137.718 26.6066C137.718 23.3677 135.746 21.2626 132.752 21.2626C129.758 21.2626 127.787 23.3677 127.787 26.6066C127.787 29.8453 129.758 31.9505 132.752 31.9505C135.746 31.9505 137.718 29.8125 137.718 26.6066Z" fill="white"/>
<path d="M148.301 12.2338H146.414V11.3848H151.207V12.2338H149.321V17.2057H148.298V12.2338H148.301Z" fill="white"/>
<path d="M152.297 11.3848H153.476L155.422 15.8075L157.368 11.3848H158.547V17.2057H157.57V13.2055L155.824 17.2057H155.029L153.273 13.2055V17.2057H152.297V11.3848Z" fill="white"/>
<path d="M54.0992 20.9801C53.3984 20.9801 52.7091 20.9319 52.0312 20.8465V26.2628C52.6677 26.3415 53.3571 26.3852 54.1107 26.3852C58.5707 26.3852 60.7674 24.8775 63.0927 23.2844C65.5812 21.5774 68.1569 19.8115 73.2833 19.8115C74.5356 19.8115 75.6339 19.9164 76.6173 20.1025V14.2793H67.1781C64.3657 18.3147 59.5541 20.9822 54.0992 20.9822V20.9801Z" fill="white"/>
<path d="M73.2833 21.7812C68.8233 21.7812 66.6267 23.289 64.3013 24.8843C61.8129 26.5912 59.2371 28.3571 54.1107 28.3571C53.3663 28.3571 52.6746 28.3179 52.0312 28.2499V37.6948H76.6173V22.1204C75.6546 21.9059 74.5609 21.7812 73.2833 21.7812Z" fill="white"/>
<path d="M52.0312 18.8619C52.7068 18.9605 53.3961 19.0107 54.0992 19.0107C58.3271 19.0107 62.1116 17.166 64.6115 14.2773H52.0312V18.8597V18.8619Z" fill="white"/>
</svg>
