<svg width="210" height="51" viewBox="0 0 210 51" fill="none" xmlns="http://www.w3.org/2000/svg">
<g clip-path="url(#clip0_1168_10207)">
<mask id="mask0_1168_10207" style="mask-type:alpha" maskUnits="userSpaceOnUse" x="87" y="3" width="29" height="48">
<path d="M104.363 24.8096L114.725 29.1301C115.151 29.3064 115.346 29.7797 115.161 30.1853C115.104 30.3105 115.017 30.4144 114.912 30.4937L88.9071 50.1188C88.5428 50.3938 88.0121 50.3349 87.7233 49.9879C87.5061 49.7271 87.4873 49.3758 87.6465 49.1007L95.4737 34.2561L87.6521 30.9645C87.229 30.7877 87.0355 30.3183 87.2159 29.9142L97.922 4.17526C98.0762 3.80338 98.4904 3.60299 98.8875 3.68694L114.607 6.12041C115.066 6.19088 115.377 6.60325 115.303 7.03955C115.286 7.14124 115.249 7.23479 115.198 7.3186L104.363 24.8096Z" fill="black"/>
</mask>
<g mask="url(#mask0_1168_10207)">
<path d="M98.1064 4.00391L115.389 6.5911L109.965 15.6351L95.1406 11.3008L98.1064 4.00391Z" fill="white" fill-opacity="0.2"/>
<path d="M106.882 22.2938L89.4961 20.4348L94.4966 11.1719L110.393 14.2401L106.882 22.2938Z" fill="white" fill-opacity="0.3"/>
<path d="M111.924 33.3558L86.7812 25.8353L90.3164 18.5215L123.61 25.7508L111.924 33.3558Z" fill="white" fill-opacity="0.4"/>
<path d="M103.445 43.5003L77.7734 36.9969L83.379 24.7148L116.025 34.2561L103.445 43.5003Z" fill="white" fill-opacity="0.5"/>
<path d="M90.8655 54.3624L66.3711 45.1016L72.9211 34.0781L108.934 43.9721L90.8655 54.3624Z" fill="white" fill-opacity="0.7"/>
</g>
<path fill-rule="evenodd" clip-rule="evenodd" d="M104.04 24.9267L115.211 7.25041C115.212 7.25021 115.212 7.25003 115.212 7.24983C115.236 7.21134 115.252 7.16958 115.26 7.12437C115.294 6.92941 115.151 6.74546 114.944 6.71418L114.943 6.71411L99.1074 4.31122L99.0943 4.30854C98.9128 4.27093 98.724 4.3615 98.6542 4.5268L87.8758 29.9267L87.8735 29.9316C87.7908 30.113 87.8803 30.3233 88.0722 30.4017L88.0733 30.4022L96.3918 33.8339L88.2907 48.8934L88.2864 48.9008C88.2127 49.0254 88.2229 49.1829 88.3209 49.2981L88.3209 49.2983C88.4528 49.4536 88.6955 49.4795 88.861 49.3569H88.8611L115.036 29.9947C115.085 29.9582 115.124 29.9123 115.149 29.8579L115.15 29.8575V29.857C115.234 29.6756 115.144 29.464 114.951 29.3856L104.04 24.9267ZM115.718 7.19364C115.701 7.29397 115.663 7.38626 115.612 7.46894L104.706 24.7259L115.136 28.9885C115.565 29.1625 115.761 29.6294 115.575 30.0297C115.518 30.1532 115.43 30.2557 115.324 30.3339L89.1491 49.6963C88.7824 49.9676 88.2482 49.9095 87.9575 49.5672C87.7389 49.3098 87.7199 48.9632 87.8802 48.6917L95.7586 34.046L87.8859 30.7984C87.46 30.6237 87.2652 30.1608 87.4468 29.7622L98.2229 4.3677C98.3781 4.00079 98.795 3.80307 99.1947 3.88591L115.018 6.28681C115.479 6.35633 115.792 6.76319 115.718 7.19364Z" fill="white"/>
<path fill-rule="evenodd" clip-rule="evenodd" d="M114.684 6.68273C114.661 6.55586 114.729 6.43024 114.837 6.40214L120.735 4.87281C120.844 4.8447 120.951 4.92478 120.975 5.05165C120.999 5.17852 120.93 5.30413 120.822 5.33223L114.924 6.86157C114.816 6.88967 114.709 6.8096 114.684 6.68273Z" fill="white"/>
<path fill-rule="evenodd" clip-rule="evenodd" d="M98.3719 3.46313L105.462 1.93236C105.821 1.85472 106.194 1.84637 106.556 1.90773L120.307 4.23263C121.476 4.43024 122.085 5.68022 121.493 6.66553L111.767 22.8345L121.538 27.24C122.11 27.4975 122.203 28.2388 121.712 28.619L96.5087 48.1334C96.3499 48.2561 96.1632 48.341 95.9638 48.3809L88.517 49.8672L88.4297 49.466L95.8765 47.9797C96.0094 47.953 96.1339 47.8966 96.2397 47.8146L121.443 28.3003C121.688 28.1102 121.642 27.7395 121.356 27.6109L111.164 23.0157L121.122 6.46088C121.567 5.72194 121.11 4.78445 120.233 4.63622L106.482 2.31132C106.175 2.25939 105.86 2.26649 105.556 2.33215L98.466 3.86294L98.3719 3.46313Z" fill="white"/>
</g>
<defs>
<clipPath id="clip0_1168_10207">
<rect width="210" height="50" fill="white" transform="translate(0 0.867188)"/>
</clipPath>
</defs>
</svg>
