<svg width="224" height="83" viewBox="0 0 224 83" fill="none" xmlns="http://www.w3.org/2000/svg">
<path d="M76.9793 26.1715L219.683 16.9773L213.305 73.5044L70.6005 82.6986L76.9793 26.1715Z" fill="#3CC6CD"/>
<path d="M85.3907 36.8896L96.4877 36.1747L96.8246 41.4038L91.0366 41.7767L91.4533 48.2433L96.0038 47.9501L96.3484 53.2991L91.7979 53.5922L92.2685 60.8971L98.3359 60.5062L98.6806 65.8551L87.3041 66.5881L85.3907 36.8896ZM105.788 55.7372L110.538 55.4312L110.836 60.0616C111.026 63.0154 109.629 65.5906 105.917 65.8298L105.078 65.8838C101.047 66.1435 99.2958 63.8514 99.0901 60.658L98.3931 49.8404C98.1617 46.2479 99.6092 43.8298 103.561 43.5752L104.559 43.5109C108.511 43.2563 109.892 45.4119 110.082 48.3658L110.311 51.9185L105.601 52.2219L105.406 49.1882C105.347 48.2701 105.148 47.6816 104.35 47.7331C103.592 47.7819 103.465 48.3112 103.527 49.2692L104.224 60.0867C104.275 60.8851 104.469 61.3937 105.187 61.3474C105.906 61.3011 106.114 60.8067 106.065 60.0483L105.788 55.7372ZM111.765 59.3203L111.109 49.1414C110.859 45.2695 112.836 42.9776 116.309 42.7539L117.506 42.6767C121.019 42.4504 123.274 44.4696 123.518 48.2618L124.174 58.4407C124.4 61.9534 122.454 64.7242 118.942 64.9505L117.744 65.0277C113.832 65.2797 111.986 62.7532 111.765 59.3203ZM116.25 48.6899L116.909 58.9087C116.963 59.747 117.206 60.4127 118.044 60.3587C118.923 60.3021 119.076 59.5708 119.024 58.7724L118.366 48.5536C118.31 47.6754 118.031 47.0921 117.193 47.1461C116.395 47.1975 116.194 47.8117 116.25 48.6899ZM135.369 45.6143L135.557 48.5283L131.006 48.8215L130.862 46.5861C130.818 45.9075 130.59 45.4813 129.952 45.5224C129.273 45.5662 129.144 46.0555 129.185 46.6941L129.214 47.1332C129.275 48.0912 129.501 48.4776 130.266 49.1498L133.28 51.7614C135.617 53.8154 136.271 55.2563 136.417 57.5316L136.464 58.2501C136.656 61.2439 135.182 63.8641 131.509 64.1007L130.472 64.1676C126.759 64.4068 125.149 62.4262 124.981 59.8316L124.755 56.3189L129.465 56.0154L129.651 58.8895C129.702 59.6878 130.047 60.0664 130.646 60.0278L130.686 60.0253C131.284 59.9867 131.493 59.4922 131.444 58.7338L131.413 58.2548C131.347 57.217 131.141 56.5087 130.123 55.6524L127.242 53.2326C125.208 51.5199 124.626 49.9541 124.482 47.7187L124.438 47.0401C124.253 44.1661 125.766 42.1446 129.159 41.926L130.237 41.8565C133.869 41.6225 135.217 43.2592 135.369 45.6143ZM140.401 62.8064L135.328 41.9294L140.357 41.6053L142.558 53.3681L143.191 41.4227L148.101 41.1064L145.249 67.1436C144.994 69.4047 144.061 70.4669 142.504 70.5672L137.873 70.8656L137.567 66.1154L139.683 65.9791C140.362 65.9354 140.461 65.6083 140.492 64.8448L140.518 64.0013C140.529 63.5597 140.516 63.3601 140.401 62.8064ZM159.382 44.0672L159.569 46.9812L155.019 47.2744L154.875 45.039C154.831 44.3604 154.603 43.9342 153.964 43.9753C153.286 44.0191 153.157 44.5084 153.198 45.147L153.226 45.5861C153.288 46.5441 153.514 46.9305 154.278 47.6027L157.292 50.2143C159.629 52.2683 160.283 53.7092 160.43 55.9845L160.476 56.703C160.669 59.6968 159.195 62.317 155.522 62.5536L154.484 62.6205C150.772 62.8597 149.161 60.8791 148.994 58.2845L148.768 54.7718L153.478 54.4683L153.663 57.3424C153.715 58.1407 154.06 58.5193 154.658 58.4807L154.698 58.4782C155.297 58.4396 155.506 57.9451 155.457 57.1867L155.426 56.7077C155.359 55.6699 155.153 54.9616 154.136 54.1053L151.255 51.6855C149.22 49.9728 148.638 48.407 148.494 46.1716L148.451 45.493C148.265 42.619 149.779 40.5975 153.172 40.3789L154.249 40.3094C157.882 40.0754 159.23 41.7121 159.382 44.0672ZM171.101 61.1892L165.991 61.5184C164.594 61.6084 163.484 60.5576 163.387 59.0407L162.479 44.9499L160.044 45.1068L159.738 40.3567L162.173 40.1998L161.715 33.0945L166.784 32.7679L167.242 39.8732L169.717 39.7137L170.023 44.4639L167.548 44.6233L168.258 55.6405C168.297 56.2392 168.394 56.5135 169.073 56.4698L170.79 56.3592L171.101 61.1892ZM176.826 38.8549C180.419 38.6234 182.336 40.3838 182.567 43.9763L182.976 50.3232L176.151 50.7629L176.451 55.4333C176.505 56.2715 176.776 56.7351 177.534 56.6862C178.213 56.6425 178.419 56.1082 178.367 55.3098L178.162 52.1164L183.072 51.8001L183.324 55.712C183.54 59.065 181.295 60.9332 178.261 61.1287L177.303 61.1904C174.11 61.3961 171.801 59.7812 171.588 56.4681L170.827 44.6526C170.639 41.7386 171.996 39.166 175.868 38.9166L176.826 38.8549ZM175.736 44.3363L175.904 46.9309L177.979 46.7972L177.812 44.2025C177.756 43.3244 177.52 42.7784 176.682 42.8324C175.764 42.8915 175.68 43.4581 175.736 44.3363ZM184.756 60.3094L183.372 38.834L188.441 38.5073L188.603 41.0221C189.178 39.983 190.387 38.2217 192.103 38.1111L192.263 38.1008C194.02 37.9876 195.177 39.1556 195.586 40.5321C196.308 39.2832 197.452 37.7664 199.249 37.6507L199.448 37.6379C201.444 37.5093 202.62 38.9567 202.743 40.8727L203.916 59.075L198.806 59.4042L197.798 43.7566C197.744 42.9183 197.586 42.3273 196.748 42.3813C196.029 42.4276 195.858 42.8795 195.862 43.5607L196.89 59.5276L191.781 59.8568L190.773 44.2092C190.719 43.371 190.56 42.7799 189.682 42.8365C188.924 42.8854 188.8 43.4545 188.857 44.3327L189.865 59.9802L184.756 60.3094Z" fill="white"/>
<path d="M0.76 30.8691V1.10914H8.32C12.28 1.10914 14.12 2.94914 14.12 7.46914V24.2691C14.12 28.5091 12.68 30.8691 8.32 30.8691H0.76ZM6.08 5.82914V25.9091H7.12C8.32 25.9091 8.68 25.2691 8.68 23.8291V7.82914C8.68 6.38914 8.28 5.82914 7.28 5.82914H6.08ZM20.5647 9.34914V30.8691H15.4447V9.34914H20.5647ZM20.5647 3.26914V8.30914H15.4447V3.26914H20.5647ZM24.3309 30.8691L21.0509 9.34914H26.0109L27.4109 23.0691L28.8509 9.34914H33.7309L30.2109 30.8691H24.3309ZM40.2784 8.94914C43.8784 8.94914 45.6784 10.8291 45.6784 14.4291V20.7891H38.8384V25.4691C38.8384 26.3091 39.0784 26.7891 39.8384 26.7891C40.5184 26.7891 40.7584 26.2691 40.7584 25.4691V22.2691H45.6784V26.1891C45.6784 29.5491 43.3184 31.2691 40.2784 31.2691H39.3184C36.1184 31.2691 33.9184 29.5091 33.9184 26.1891V14.3491C33.9184 11.4291 35.4384 8.94914 39.3184 8.94914H40.2784ZM38.8384 14.3491V16.9491H40.9184V14.3491C40.9184 13.4691 40.7184 12.9091 39.8784 12.9091C38.9584 12.9091 38.8384 13.4691 38.8384 14.3491ZM56.0334 9.34914V30.8691H50.9134V9.34914H56.0334ZM56.0334 3.26914V8.30914H50.9134V3.26914H56.0334ZM57.3197 30.8691V9.34914H62.3997V11.9491C63.3597 10.5091 64.5197 9.26914 66.2797 9.26914H66.5597C68.9597 9.26914 69.6397 11.5491 69.6397 12.8691V30.8691H64.4797V15.0291C64.4797 14.3091 64.2797 13.7491 63.4797 13.7491C62.6397 13.7491 62.4397 14.3091 62.4397 15.1891V30.8691H57.3197ZM80.3553 30.8691H75.2353C73.8353 30.8691 72.7953 29.7491 72.7953 28.2291V14.1091H70.3553V9.34914H72.7953V2.22914H77.8753V9.34914H80.3553V14.1091H77.8753V25.1491C77.8753 25.7491 77.9553 26.0291 78.6353 26.0291H80.3553V30.8691ZM81.1059 25.1891V14.9891C81.1059 11.1091 83.2259 8.94914 86.7059 8.94914H87.9059C91.4259 8.94914 93.5459 11.1091 93.5459 14.9091V25.1091C93.5459 28.6291 91.4259 31.2691 87.9059 31.2691H86.7059C82.7859 31.2691 81.1059 28.6291 81.1059 25.1891ZM86.2659 14.8691V25.1091C86.2659 25.9491 86.4659 26.6291 87.3059 26.6291C88.1859 26.6291 88.3859 25.9091 88.3859 25.1091V14.8691C88.3859 13.9891 88.1459 13.3891 87.3059 13.3891C86.5059 13.3891 86.2659 13.9891 86.2659 14.8691ZM108.324 30.8691H103.204C101.804 30.8691 100.764 29.7491 100.764 28.2291V14.1091H98.3241V9.34914H100.764V2.22914H105.844V9.34914H108.324V14.1091H105.844V25.1491C105.844 25.7491 105.924 26.0291 106.604 26.0291H108.324V30.8691ZM109.312 30.8691V1.10914H114.432V11.8291C115.232 10.6291 116.432 9.26914 118.272 9.26914H118.472C120.432 9.26914 121.632 10.7091 121.632 12.6291V30.8691H116.472V14.9491C116.472 14.3091 116.272 13.7491 115.472 13.7491C114.632 13.7491 114.432 14.3091 114.432 15.1091V30.8691H109.312ZM129.146 8.94914C132.746 8.94914 134.546 10.8291 134.546 14.4291V20.7891H127.706V25.4691C127.706 26.3091 127.946 26.7891 128.706 26.7891C129.386 26.7891 129.626 26.2691 129.626 25.4691V22.2691H134.546V26.1891C134.546 29.5491 132.186 31.2691 129.146 31.2691H128.186C124.986 31.2691 122.786 29.5091 122.786 26.1891V14.3491C122.786 11.4291 124.306 8.94914 128.186 8.94914H129.146ZM127.706 14.3491V16.9491H129.786V14.3491C129.786 13.4691 129.586 12.9091 128.746 12.9091C127.826 12.9091 127.706 13.4691 127.706 14.3491ZM0.76 66.8691V37.1091H7.32L9.36 52.1491L11.4 37.1091H17.52V66.8691H12.72V49.2691L10.08 66.8691H8.08L5.4 49.2691V66.8691H0.76ZM24.0413 45.3491V66.8691H18.9213V45.3491H24.0413ZM24.0413 39.2691V44.3091H18.9213V39.2691H24.0413ZM34.8475 66.8691H29.7275C28.3275 66.8691 27.2875 65.7491 27.2875 64.2291V50.1091H24.8475V45.3491H27.2875V38.2291H32.3675V45.3491H34.8475V50.1091H32.3675V61.1491C32.3675 61.7491 32.4475 62.0291 33.1275 62.0291H34.8475V66.8691ZM35.5981 61.1891V50.9891C35.5981 47.1091 37.7181 44.9491 41.1981 44.9491H42.3981C45.9181 44.9491 48.0381 47.1091 48.0381 50.9091V61.1091C48.0381 64.6291 45.9181 67.2691 42.3981 67.2691H41.1981C37.2781 67.2691 35.5981 64.6291 35.5981 61.1891ZM40.7581 50.8691V61.1091C40.7581 61.9491 40.9581 62.6291 41.7981 62.6291C42.6781 62.6291 42.8781 61.9091 42.8781 61.1091V50.8691C42.8781 49.9891 42.6381 49.3891 41.7981 49.3891C40.9981 49.3891 40.7581 49.9891 40.7581 50.8691ZM60.0347 49.0291V51.9491H55.4747V49.7091C55.4747 49.0291 55.2747 48.5891 54.6347 48.5891C53.9547 48.5891 53.7947 49.0691 53.7947 49.7091V50.1491C53.7947 51.1091 53.9947 51.5091 54.7147 52.2291L57.5547 55.0291C59.7547 57.2291 60.3147 58.7091 60.3147 60.9891V61.7091C60.3147 64.7091 58.6747 67.2291 54.9947 67.2291H53.9547C50.2347 67.2291 48.7547 65.1491 48.7547 62.5491V59.0291H53.4747V61.9091C53.4747 62.7091 53.7947 63.1091 54.3947 63.1091H54.4347C55.0347 63.1091 55.2747 62.6291 55.2747 61.8691V61.3891C55.2747 60.3491 55.1147 59.6291 54.1547 58.7091L51.4347 56.1091C49.5147 54.2691 49.0347 52.6691 49.0347 50.4291V49.7491C49.0347 46.8691 50.6747 44.9491 54.0747 44.9491H55.1547C58.7947 44.9491 60.0347 46.6691 60.0347 49.0291ZM66.2288 45.3491V66.8691H61.1088V45.3491H66.2288ZM66.2288 39.2691V44.3091H61.1088V39.2691H66.2288ZM78.355 49.0291V51.9491H73.795V49.7091C73.795 49.0291 73.595 48.5891 72.955 48.5891C72.275 48.5891 72.115 49.0691 72.115 49.7091V50.1491C72.115 51.1091 72.315 51.5091 73.035 52.2291L75.875 55.0291C78.075 57.2291 78.635 58.7091 78.635 60.9891V61.7091C78.635 64.7091 76.995 67.2291 73.315 67.2291H72.275C68.555 67.2291 67.075 65.1491 67.075 62.5491V59.0291H71.795V61.9091C71.795 62.7091 72.115 63.1091 72.715 63.1091H72.755C73.355 63.1091 73.595 62.6291 73.595 61.8691V61.3891C73.595 60.3491 73.435 59.6291 72.475 58.7091L69.755 56.1091C67.835 54.2691 67.355 52.6691 67.355 50.4291V49.7491C67.355 46.8691 68.995 44.9491 72.395 44.9491H73.475C77.115 44.9491 78.355 46.6691 78.355 49.0291Z" fill="white"/>
</svg>
