<svg width="210" height="51" viewBox="0 0 210 51" fill="none" xmlns="http://www.w3.org/2000/svg">
<path d="M103.157 14.3222H85.6128V10.3066H108.988V14.3222L90.7009 37.5794V38.416H108.939V42.4316H84.8203V38.416L103.157 15.1588V14.3222Z" fill="#FAFAF5"/>
<mask id="mask0_1168_10201" style="mask-type:luminance" maskUnits="userSpaceOnUse" x="27" y="5" width="155" height="42">
<path d="M27.3008 5.87429H181.651V46.8672H27.3008V5.87429Z" fill="white"/>
</mask>
<g mask="url(#mask0_1168_10201)">
<path d="M126.988 26.8428C126.988 25.9613 126.823 25.1656 126.493 24.457C126.163 23.7484 125.708 23.1504 125.131 22.6617C124.553 22.1738 123.893 21.804 123.15 21.5515C122.407 21.2999 121.623 21.1735 120.798 21.1735C119.972 21.1735 119.188 21.2999 118.445 21.5515C117.702 21.804 117.042 22.1738 116.464 22.6617C115.886 23.1504 115.432 23.7484 115.102 24.457C114.772 25.1656 114.607 25.9613 114.607 26.8428V28.1656H126.988V26.8428ZM120.798 43C118.982 43 117.388 42.6848 116.018 42.0552C114.648 41.4254 113.509 40.5595 112.601 39.4567C111.693 38.3546 111.016 37.0318 110.571 35.4883C110.125 33.9454 109.902 32.2448 109.902 30.3861C109.902 28.5598 110.141 26.8664 110.62 25.3073C111.099 23.7484 111.809 22.4182 112.75 21.3153C113.691 20.2131 114.83 19.3473 116.167 18.717C117.504 18.0874 119.047 17.7721 120.798 17.7721C122.613 17.7721 124.198 18.0718 125.552 18.6696C126.905 19.2683 128.028 20.087 128.92 21.1264C129.811 22.1657 130.48 23.3867 130.926 24.7878C131.371 26.1894 131.594 27.6933 131.594 29.2995V31.5672H114.607V34.1183C114.607 35.0004 114.78 35.7799 115.127 36.4567C115.474 37.1345 115.944 37.7087 116.539 38.1811C117.133 38.6536 117.801 39.008 118.544 39.244C119.287 39.4803 120.055 39.5984 120.847 39.5984C122.432 39.5984 123.802 39.2131 124.958 38.4409C126.113 37.6696 126.773 36.4493 126.939 34.7797H131.396C131.297 36.0714 130.942 37.2208 130.331 38.2284C129.72 39.2367 128.928 40.0945 127.954 40.8031C126.98 41.5119 125.882 42.0552 124.661 42.433C123.439 42.8109 122.151 43 120.798 43Z" fill="#FAFAF5"/>
<path d="M157.28 14.75H152.625V10.309H157.28V14.75Z" fill="#FAFAF5"/>
<path d="M134.895 10.3085H139.352V42.4336H134.895V10.3085Z" fill="#FAFAF5"/>
<path d="M143.809 10.3085H148.266V42.4336H143.809V10.3085Z" fill="#FAFAF5"/>
<path d="M152.723 18.3396H157.18V42.4336H152.723V18.3396Z" fill="#FAFAF5"/>
<path d="M160.543 30.575C160.543 28.6543 160.782 26.8982 161.261 25.3073C161.739 23.7173 162.441 22.3709 163.366 21.2681C164.29 20.166 165.429 19.3074 166.783 18.6934C168.136 18.0792 169.672 17.772 171.389 17.772C172.709 17.772 173.956 17.9374 175.128 18.2681C176.299 18.5989 177.332 19.1112 178.223 19.8035C179.115 20.4966 179.84 21.3788 180.402 22.4492C180.963 23.5202 181.31 24.7802 181.442 26.2285H176.985C176.886 25.2528 176.671 24.4414 176.341 23.7956C176.011 23.1504 175.581 22.6307 175.054 22.2365C174.525 21.8431 173.922 21.5677 173.246 21.4098C172.569 21.2525 171.867 21.1735 171.141 21.1735C170.381 21.1735 169.655 21.2917 168.962 21.5279C168.269 21.7642 167.641 22.1184 167.08 22.5909C166.518 23.0632 166.073 23.6539 165.743 24.3625C165.413 25.071 165.248 25.8979 165.248 26.8428V33.9292C165.248 34.7797 165.404 35.5592 165.718 36.2678C166.032 36.9764 166.461 37.575 167.006 38.0629C167.551 38.5517 168.177 38.9297 168.888 39.1969C169.597 39.4647 170.365 39.5984 171.191 39.5984C172.841 39.5984 174.212 39.1733 175.301 38.3228C176.391 37.4725 177.018 36.1497 177.183 34.3543H181.64C181.475 35.8351 181.079 37.1181 180.452 38.2048C179.824 39.2914 179.048 40.1889 178.124 40.8976C177.199 41.6062 176.151 42.134 174.979 42.4803C173.807 42.8265 172.577 43 171.29 43C169.44 43 167.848 42.6928 166.511 42.0787C165.173 41.4645 164.059 40.5987 163.168 39.4803C162.276 38.3628 161.615 37.0473 161.187 35.5354C160.757 34.0237 160.543 32.3701 160.543 30.575Z" fill="#FAFAF5"/>
<path d="M42.0368 6.29303V22.5078L39.2305 20.9618V6.29303H42.0368Z" fill="#FAFAF5"/>
<path d="M47.6462 6.29251V25.5977L44.8398 24.0516V6.29251H47.6462Z" fill="#FAFAF5"/>
<path d="M28.7196 24.4449L43.44 32.5523L40.6333 34.0977L27.3164 26.7633L28.7196 24.4449Z" fill="#FAFAF5"/>
<path d="M31.5243 19.8099L49.0504 29.4625L46.2437 31.0078L30.1211 22.1282L31.5243 19.8099Z" fill="#FAFAF5"/>
<path d="M38.543 44.5234L53.2634 36.416L53.2631 39.5074L39.9462 46.8418L38.543 44.5234Z" fill="#FAFAF5"/>
<path d="M35.7344 39.8867L53.2605 30.2341L53.2601 33.3255L37.1376 42.2051L35.7344 39.8867Z" fill="#FAFAF5"/>
<path d="M61.6797 46.4492V30.2344L64.4861 31.7805V46.4492H61.6797Z" fill="#FAFAF5"/>
<path d="M56.0703 46.4492V27.1441L58.8767 28.6901V46.4492H56.0703Z" fill="#FAFAF5"/>
<path d="M74.9939 28.293L60.2734 20.1856L63.0802 18.6402L76.3971 25.9746L74.9939 28.293Z" fill="#FAFAF5"/>
<path d="M72.1902 32.9297L54.6641 23.2771L57.4708 21.7318L73.5933 30.6113L72.1902 32.9297Z" fill="#FAFAF5"/>
<path d="M65.1736 8.21683L50.4531 16.3242L50.4535 13.2329L63.7704 5.89847L65.1736 8.21683Z" fill="#FAFAF5"/>
<path d="M67.9792 12.8513L50.4531 22.5039L50.4535 19.4125L66.576 10.533L67.9792 12.8513Z" fill="#FAFAF5"/>
</g>
</svg>
