<svg width="74" height="67" viewBox="0 0 74 67" fill="none" xmlns="http://www.w3.org/2000/svg">
<path d="M10.0664 0.869141L74 1.56677L63.9336 66.8691L0 66.1715L10.0664 0.869141Z" fill="#573BFF"/>
<path d="M17.76 45.8691V16.1091H29.16V21.3091H23.08V27.7891H27.56V33.1491H23.08V45.8691H17.76ZM36.5422 45.8691L35.9822 40.8691H32.7822L32.3022 45.8691H27.5822L31.3422 16.1091H37.6622L41.7022 45.8691H36.5422ZM34.3422 25.5491L33.3022 35.7491H35.4622L34.3422 25.5491ZM55.8969 23.3091V39.0691C55.8969 42.7891 54.2169 45.4291 51.2169 46.1091L53.7769 52.0691H47.1369V46.2291C43.7369 45.7491 41.9369 43.2291 41.9369 39.0691V23.3491C41.9369 18.7491 43.7369 15.7491 48.3369 15.7491H49.5369C54.2169 15.7491 55.8969 18.7491 55.8969 23.3091ZM50.3369 39.2291V22.9091C50.3369 21.5891 49.8969 20.9491 48.9369 20.9491C47.8969 20.9491 47.4969 21.5891 47.4969 22.9091V39.2291C47.4969 40.1491 47.8569 40.9891 48.9769 40.9891C50.0569 40.9891 50.3369 40.1491 50.3369 39.2291Z" fill="white"/>
</svg>
